/* XPM */
static char *d9267d3f64c34baaa22dc19126965ddd9ptfPAVnXiKWQFIF[] = {
/* columns rows colors chars-per-pixel */
"128 128 51 1 ",
"  c #3BDBFD",
". c #3CDBFE",
"X c #3EDCFF",
"o c #44DBFB",
"O c #43DCFB",
"+ c #45DBFC",
"@ c #40DDFC",
"# c #44DCFC",
"$ c #48DFFE",
"% c #4BDEFF",
"& c #53DEFB",
"* c #50DFFD",
"= c #54DFFC",
"- c #51E0FE",
"; c #55E0FD",
": c #5CE2FB",
"> c #5AE2FC",
", c #58E2FE",
"< c #5CE2FD",
"1 c #66E4FB",
"2 c #60E2FC",
"3 c #65E3FC",
"4 c #63E5FF",
"5 c #67E5FC",
"6 c #64E4FF",
"7 c #6FE6FA",
"8 c #6DE3FD",
"9 c #68E4FC",
"0 c #6CE6FE",
"q c #70E7FB",
"w c #75E5FB",
"e c #70E7FD",
"r c #75E6FC",
"t c #78E7FB",
"y c #78E6FD",
"u c #7CE7FD",
"i c #73E8FC",
"p c #74E9FD",
"a c #79E8FC",
"s c #7AE9FC",
"d c #7CE9FF",
"f c #83E7FD",
"g c #83E7FE",
"h c #83E8FC",
"j c #80E9FE",
"k c #85E9FF",
"l c #87ECFE",
"z c #88EBFE",
"x c #8CEBFF",
"c c #8CECFE",
"v c #90EDFF",
/* pixels */
"     ..         ...          ..         ...                     ..                      ...         ...         ...             ",
"................................................................................................................................",
".......XXXXXXX.........XXXXXXXXXXX.............XXXXXXX.............XXXXXXXXXXX.........XXX.....XXX.....XXX.........XXXXXXXXXXXXX",
"XX.....XXXX....XXXXXXX.........XXX.........................XXXXXXX.........................................................XXX..",
"..XX@XX...X@XXX.......X@XXXXXXX...X@XXXXXXXXXX@@XXXXXX@@XXX.......XX@@@@XXXXXX@@XX@@XXXXXXXXXX@@XXXXX@XXXX@@XXXXXXXX@@@@XXX...X@",
"................................................................................................................................",
"................................................................................................................................",
"@@@@@@@@@@@@@@@@@@@@@@@@@@@@@@@@@@@@@@@@@@@@@@@@@@@@@@@@@@@@@@@@@@@@@@@@@@@@@@@@@@@@@@@@@@@@@@@@@@@@@@@@@@@@@@@@@@@@@@@@@@@@@@@@",
"@@@@###@@@####@@#######@@@####@@@@@@@@@@########@@@@######@@@###@@#@##@@@@@@@@@#@@@@@@@##########@@@####@@#####@#######@@@@@###@",
"@@@@@@@@@@@@@@@@@@@@@@@@@@@@@@@@@@@@@@@@@@@@@@@@@@@@@@@@@@@@@@@@@@@@@@@@@@@@@@@@@@@@@@@@@@@@@@@@@@@@@@@@@@@@@@@@@@@@@@@@@@@@@@@@",
"@@@###@@@@@@@@@@@@@@@@@@@@@@@@@@@@@@@@@@@@@@@@@@@@@@##@@@@@@##@@@@@@@@@@@@@@@@@@@@@@@@@@@@@@@@@@@@@@@@@@@@@@@@@@@@@@@@@@@@@###@@",
"@@####@@####@##@@@@@##@@@@####@@@@@@@@######@@#@@@####@@##@@###########@@@@@@@######@@#@@###@@@@####@#@#########@@@@##@@@@####@@",
"###############################@@@##@@#################################@##@#@@@#####################@@##########################",
"####@#@@@@@@####@#@@@@@@####@@@@####@@@@@@#@@#@@####@@@@@@@@#@##@@@@@@@###@@@@@@##@@@@##@@####@@####@@@@@@@@##@#@#@@@@@@####@#@@",
"###############################OOO##@@########################++++oooo#@@####@####################+++++ooooooo+#################",
"################################################################################################################################",
"################################################################################################################################",
"################################################################################################################################",
"######$#$$######$$######$$########$#$$####$#$$###########$####$#$$########$#######$#$$####$#$$##########$$######$$######$$######",
"$$$$$$$$$$$$$$$$$$$$$$$$$$$$$$$$$$$$$$$$$$$$$$$$$$$$$$$$$$$$$$$$$$$$$$$$$$$$$$$$$$$$$$$$$$$$$$$$$$$$$$$$$$$$$$$$$$$$$$$$$$$$$$$$",
"$$$$$$$$$$$$$$$$$$$$$$$$$$$$$$$$$$$$$$$$$$$$$$$$$$$$$$$$$$$$$$$$$$$$$$$$$$$$$$$$$$$$$$$$$$$$$$$$$$$$$$$$$$$$$$$$$$$$$$$$$$$$$$$$",
"$$$$$$$$$$$$$$$$$$$$$$$$$$$$$$$$$$$$$$$$$$$$$$$$$$$$$$$$$$$$$$$$$$$$$$$$$$$$$$$$$$$$$$$$$$$$$$$$$$$$$$$$$$$$$$$$$$$$$$$$$$$$$$$$",
"$$$$$$$$$$$$$$$$$$$$$$$$$$$$$$$$$$$$$$$$$$$$$$$$$$$$$$$$$$$$$$$$$$$$$$$$$$$$$$$$$$$$$$$$$$$$$$$$$$$$$$$$$$$$$$$$$$$$$$$$$$$$$$$$",
"$$$$$$$$$$$$$$%%$$$$$$$$$$$$$$%%$$$$$$$$$$$$%%$$$$$$$$$$$$$$$$$$$$$$$$%$$$$$$$$$$$$$$$$$$$$$%%%$$$$$$$$$$$$$$$%%$$$$$$$$$$$$$$%%",
"$$$$$$$%%%%%$$%%$$$$$$$%%%%%%%%%$$%%%%%%%%$%%%$$$$$$%%$$$$%%%%%%%%%%%%$$%%$$$$$$$$%%%%%%%%%%%%$$$$$$$$$%%%%%%%%%$$$$$$%%%%%%%%%%",
"$$$$$$%%%%$%$$%%$$$$$$%%%%$%$$%%$$$%%%%%%$%%%%$$$$$$%%%$$$%%%%%%%%%%%%$$%$$$$$$$$$$%%%%%%%%%%%$$$$$$$$%%%%$%$$%%$$$$$$%%%%$%$$%%",
"%%$$$$$$$$$$$$$$%%$$$$$$$$$$$$$$$$$%$%%$$$$$%%$$$$%%%%$$$$$%$$%$$%$$%$$$%$%$$%$$$$$%$%%$$%$$%$$$%%$$$$$$$$$$$$$$%%$$$$$$$$$$$$$$",
"%%%$$$$$$$$$$$$$%%%$$$$$$$$$$$$$$$$%$$$$$$$$%%$$%$%%%%$$$$$%$$$$$$$$%$$$%%%%%%$$$$$%$$$$$$$$%$$$%%%$$$$$$$$$$$$$%%%$$$$$$$$$$$$$",
"**$$$$**$%*****$**$$$$**%%***$$$$$$$$%**$$*****$****$$$$$$$$$%**$$$$$$$$*******$$$$$$%**$$$$*$$$**$$$$**%%***$$$**$$$$**$%***$$$",
"--*****---*****-----------------------*********-----------*****-------*********-----------------------------------*********---**",
"***************************************************************************---**************************************************",
"-------;;;;;-----;;;----;;-***------;;;;-----------------------;;;-;;;---;;;;;-***-;;;-----------;-****---;;---****;;;----------",
"-------;------;;----;;;;------;;;;------------------------------;;;---;;;---------;;;-----------;;;****--;----;;----;;----------",
";;----;--;----;;----;;;;-;----;;;-------;--;---;-------------;--;;----;-----------;;;------------;=***=--;----;;----;;;----;----",
"------;;==================;;;;;===============;;-;----;;-;----;===============;;;;;===;---;;-;;====&&&=;;;====;;;;;=;;;----;--;=",
";;;;;;;;;;;;;;;;;;;;;;;;;;;;;;;;;;;;;;;;;;;;;;;;;;;;;;;;;;;;;;;;;;;;;;;;;;;;;;;;;;;;;;;;;;;;;;;;;;;;;;;;;;;;;;;;;;;;;;;;;;;;;;;;",
";;;;;;;;;;,,;;,,;;,,;;;;;;,,;;,,,,,,,,,,;;,;,;;;;;;;;;;;;;;;;;;,;;;;;;;;;,;;;;,,;;,,;;;;;;;;;;;;;;;;;;;;;;,;;;,,;,,,;;;;;;;;;;;,",
";;;;;;;;;;;,;;,,;;,,;;;;;;;,;;,,,,,;,,;;;,,;,;;;;;;;;;;;;;;;;;;;;,;;;;;;,,;;;;,,,;,,;,;;;;;;;;;;;;;;;;;;;;;;;;,,;;,,;;;;;;;;;;,,",
";;;;;;;,,;;,;;;;;;,,;,;,,;;,;;;;,,;;;;;;,,,;;;;;;;;;;;;;;;;;;;;;,,,,,,;;,;;;,,,,,,;,;;;;;;;;;;;;,,;;,,,,,,;;;;;;;;,;,,;;;;;;;;;;",
";;;;;;;;;;;;;;;;;;;;;;;;;;;;;;;;;;;;;;;;;;;;;;;;;;;;;;;;;;;;;;;;;;;;;;;;;;;;;;;;;;;;;;;;;;;;;;;;;;;;;;;;;;;;;;;;;;;;;;;;;;;;;;;;",
";;;;;;;;,,,;;;;;;;,;;;;;,,,;;;;;;;;;;;;;;;,,;;;;;;;;,,,,,,;;;;;;,,,;;;;;;;;;,,,;;;;;;;;;;;,,;;;;,,;;;;;;,,,;;;;;;;;;;;;;,,,;;;;;",
";;,,,;;,,,,,,,,,,,,,,,,;,,,,,,,,,,;;;;;;;;,,,,,,,,,,,,,;,,;,,,;;,,,,,,,,,,,,,,,,,,;;;;;;;;,,,,,,,,;;;;;;,,;,,,,,,,,,;;;,,,,,,,,,",
",,,,,,,,,,,,,,,,,,,,,,,,,,,,,,,,,,,,,,,,,,,,,,,,,,,,,,,,,,,,,,,,,,,,,,,,,,,,,,,,,,,,,,,,,,,,,,,,,,,,,,,,,,,,,,,,,,,,,,,,,,,,,,,,",
",,,,,,,,,,,,,,,,,,,,,,,,,,,,,,,,,,,,,,,,,,,,,,,,,,,,,,,,,,,,,,,,,,,,,,,,,,,,,,,,,,,,,,,,,,,,,,,,,,,,,,,,,,,,,,,,,,,,,,,,,,,,,,,,",
",,,,,,,,,,,,,,,,,,,,,,,,,,,,,,,,,,,,,,,,,,,,,,,,,,,,,,,,,,,,,,,,,,,,,,,,,,,,,,,,,,,,,,,,,,,,,,,,,,,,,,,,,,,,,,,,,,,,,,,,,,,,,,,,",
",,,,,,,,,,,,,,,,,,,,,,,,,,,,,,,,,,,,,,,,,,,,,,,,,,,,,,,,,,,,,,,,,,,,,,,,,,,,,,,,,,,,,,,,,,,,,,,,,,,,,,,,,,,,,,,,,,,,,,,,,,,,,,,,",
"<<<<<<<<<<<<<<<<<<<<<<<<<<<<<<<<<<<<<<<<<<<<<<<<<<<<<<<<<<<<<<<<<<<<<<<<<<<<<<<<<<<<<<<<<<<<<<<<<<<<<<<<<<<<<<<<<<<<<<<<<<<<<<<<",
"::::::::::::::::::::::::::::::::::::::::::::::::::::::::::::::::::::::::::::::::::::::::::::::::::::::::::::::::::::::::::::::::",
"<::::::<<<:::::::::<<<<<<<:::::::::<<<<<<<<<<<:::::::::::::<<<<<<<:::::::::<<<<<<<:::::<<<:::::<<:::<<:::::::::::::<<<<<<<::::::",
"222222<<<<2222<<<<<<2<22<<<<<2<<2222<<222222<<<222<<<<<<<<2222<<<<<<2<22<<<<22<<2222<<222222<<<2222222<<<<2222<<<<<<2<22<<<<22<<",
"<<2<222<<<2222<<2<22222222<<222222<2<<222<<2<<22<<<<2222<22222<<2<22222222<<222222<<<<222<<2<<22<<2<2222<<2222<<2<22222222<<2222",
"222222222222222<<222222222222222222:::22222222222222222222222:2222222222222:2222222222222222222222222222222222222222222222222222",
"22222222222222222222222222222222222222222222222222222222222222222222222222222222222222222222222222222222222222222222222222222222",
"22222222222222222222222222222222222222222222222222222222222222222222222222222222222222222222222222222222222222222222222222222222",
"22222222222222222222222222222222222222222222222222222222222222222222222222222222222222222222222222222222222222222222222222222222",
"22246622222222222222222222222224444222222222222222222226666222222222222466622222222222222222222222222222222222222222222466222222",
"44446644444222222222224444422246444444444442224444422244644444444444444444444444444444422244444444422244444444422244444444444444",
"44446644444444444444444444444466444444444644444444444444464444446666644444444444444444444466644444444466666644444444444444444444",
"66666642232322223223222333222266666666666663224666423346664222466666666666423346666222222246664222223346666666423322224666222322",
"32222322222332223223222333222222222222222223222233222266662222222222222233222222333322222266662222222222222222223322222222222222",
"66666666666666666666666666666633333666333336666666666666666333366633333666666666666666666666666333333336663333366666663333333336",
"66666966666669999996699996666666666666666666699966669966666666666666666966669966666666999966696666666666966666669666696666666669",
"99669999696669996666669966666666696696996666699966669966666699999966696966669999666699999966666699666669996666996999666699669996",
"11111111111111111111111111111111111111111111111111111111111111111111111111111111111111111111111111111111111111111111111111111111",
"69666999666699666999666999666999666699666999666696996999666999666699999966669966699966669966699966699966699999999966699966699966",
"69999999999999999999999999999999999999999999999999999999999999999999999999999999999999999999999999999999999999999999999999999999",
"99999999999999999999999999999999999999999999999999999999999999999999999999999999999999999999999999999999999999999999999999999999",
"99999999999999999999999999999999999999999999999999999999999999999999999999999999999999999999999999999999999999999999999999999999",
"00000000000000000000000000000000000000000000000000000000000000000000000000000000000000000000000000000000000000000000000000000000",
"00999900000000009990900000099900000909900000000000000000000900000009990000090000000000000000000999900099999090999999990999000000",
"99990000000999099000990000099900990900999000000000000009999999000009990000099900000099999900000099000099900099999999000099000009",
"88888800888888888800888888888800888888888800888888888880008888888888880088888888880088888888888088888888880088888888880088888888",
"000000000000000000000000000000000000000000000000000000000e0000000000000000000000000000000000000000000000000000000000000000000000",
"0000000000000000000000000000000000000000000000000000000000e000000000000000000000000000000000000000000000000000000000000000000000",
"0e000000eeee0000e0ee00000000eeee0000eeeee0ee0000000000eeeeee000000000000eeee0000e0ee00000000eeee0000eeeee0ee00000eee0000eeee0000",
"eeeeeeeeeeeeeeeeeeeeeeeeeeeeeeeeeeeeeeeeeeeeeeeeeeeeeeeeeeeeeeeeeeeeeeeeeeeeeeeeeeeeeeeeeeeeeeeeeeeeeeeeeeeeeeeeeeeeeeeeeeeeeee0",
"eeeeeeeeeeeeeeeeeeeeeeeeeeeeeeeeeeeeeeeeeeeeeeeeeeeeeeeeeeeeeeeeeeeeeeeeeeeeeeeeeeeeeeeeeeeeeeeeeeeeeeeeeeeeeeeeeeeeeeeeeeeeeeee",
"eeeeeeeeeeeeeeeeeeeeeeeeeeeeeeeeeeeeeeeeeeeeeeeeeeeeeeeeeeeeeeeeeeeeeeeeeeeeeeeeeeeeeeeeeeeeeeeeeeeeeeeeeeeeeeeeeeeeeeeeeeeeeeee",
"qqqqqqqqqqqqqqqqqqqqqqqqqqqqqqqqqqqqqqqqqqqqqqqqqqqqqqqqqqqqqqqqqqqqqqqqqqqqqqqqqqqqqqqqqqqqqqqqqqqqqqqqqqqqqqqqqqqqqqq7q7qqqqq7",
"ppppppiipiiiiiipppppppiiiiiiiiipppppppiiiiipppiippiiiiiiiiippppppppiiiipppiiiiiiiiipppppppiiiiiiiiiiiiiiiiipppiiiiiiiiipppppppii",
"pppppppiiiiiiipppppppppiiiiiiipppppppppiiipppppiiiiiiiiiiipppppppppiiipppppiiiiiiipppppppppiiiiiiiiiiiiiiipppppiiiiiiipppppppppi",
"pppppppiiiiiiipppppppppiiiiiiipppppppppiiipppppiiiiiiiiiiipppppppppiiipppppiiiiiiipppppppppiiiiiiiiiiiiiiipppppiiiiiiipppppppppi",
"ppppppprrrrrrrppppppppprrrrrrrppppppppprrrppppprrrrrrrrrrrppppppppprrrppppprrrrrrrppppppppprrrrrrrrrrrrrrrppppprrrrrrrpppppppppr",
"pppppppppppppppppppppppppppppppppppppppppppppppppppppppppppppppppppppppppppppppppppppppppppppppppppppppppppppppppppppppppppppppp",
"rrrrrrrrrrrrrrppppprrrrrrrrrrrrrrrrrrrrrrrrrrrrrrrrrrrrrrrrrrrrrrrrrrrppppppppprrrrrrrrrrrrrrrppppprrrrrrrrrrrrrrrrrrrpppppppppr",
"rrrrrrrrrrrrrrrrrrrrrrrrrrrrrrrrrrrrrrrrrrrrrrrrrrrrrrrrrrrrrrrrrrrrrrrrrrrrrrrrrrrrrrrrrrrrrrrrrrrrrrrrrrrrrrrrrrrrrrrrrrrrrrrr",
"rrrrrrrrrrrrrrrwwwrrrrrrrrrrrrrrrrrrrrrrrrrrrrrrrrrrrrrrrrrrrrrrrrrrrrrwwwwwwwrrrrrrrrrrrrrrrrrwwwrrrrrrrrrrrrrrrrrrrrrwwwwwwwrr",
"yyyyyyyrrryyyyyyyyyyyyyyyyyrrrrrrrrrrryyyyyyyyyyyyyyyyyrrryyyyyyrryyyyyrrryyyyyyyyyyyyyryyrrrryyyyyrrrryrrrryyyyyyyrrryyyyyyyyyy",
"yyyyyyyrrrrrrryyrryyrrrrrrrryrrrrrrrrryyyyyyyytyyyyyyyrrrrrrrryyrryyrrrrrrrrrryyyyyyyyyyrrrryrrrrrrrrryyrryyrrrrrrrryryyyyyyyyyy",
"yyyyyyyrrrrwwwttwwttwwwwwwrryrrrrrrrrrytttttttyyyyytttrrrrrwwwyyrrytwwrrrrrwwwttttyyyyyyrrrrrrrwwwrrrryyryyyrrrwwwrrrryyyyyyyyyt",
"tttttttttttttttttttttttttttttttttttttttttttttttttttttttttttttttttttttttttttttttttttttttttttttttttttttttttttttttttttttttttttttttt",
"yytttttaaaaaaaaaaaaaaaaaaatttttaaaaaaayyyyyyyytttttyyytttttaaaaaaatttttaaaaaaayyyyyyyyyaaaaaaaaaaaaaaaaaaaaaaaaaaaaaaatttttyyyyy",
"yyyyyyaaaaaaaaaaaaaaaaaaaaaaaaaaaaaaaaayyyyyyytyyyyyyyaaaaaaaaaaaaaaaaaaaaaaaaayyyyyyyaaaaaaaaaaaaaaaaaaaaaaaaaaaaaaaaayyyyytyyy",
"aaaaaaaaaaaaaaaaaaaaaaaaaaaaaaaaaaaaaaadayaaaaaaaaaayaaaaaaaaaaaaaaaaaaaaaaaaaadaaaaaaaaaaaaaaaaaaaaaaaaaaaaaaaaaaaaaaaaadaaaaad",
"aaddddaaaaaaaaaaaaaaaaaaaaaaaaaaaaaaaaddddaadddddddaddaaaaaaaaaaaaaaaaaaaaaaaaddddaaaaaaaaaaaaaaaaaaaaaaaaaaaaaaaaaaaaaddddaaadd",
"dddddddaaaaaaaadddddddadddaaaaadddddddddddddddddddddddddaaadddddddddddddddddddddddddddddddddddaaaaadddaaaaadddaaaaaddddddddddddd",
"adddadddddaaaddaaaaaaadddadaadaddaaaadddddaaadddaaaaadadadddadddaaaaadddddaaadddaaddddaaadddaaaaaaadadddddaaaddaaaddddaaaddadddd",
"uuuuuuuuuuuuuuuuuuuuuuuuuuuuuuuuuuuuuuuuuuuuuuuuuuuuuuuuuuuuuuuuuuuuuuuuuuuuuuuuuuuuuuuuuuuuuuuuuuuuuuuuuuuuuuuuuuuuuuuuuuuuuuuu",
"dddddddddddddddddddddddddddddddddddddddddddddddddddddddddddddddddddddddddddddddddddddddddddddddddddddddddddddddddddddddddddddddd",
"dddjddddjjddjjjjjjjjdjjjddddjjjdddddddddjddddddjjjjjdjdjddjdddddjdddddddjddddddjddddjddddddjjjjjjjjjdjjdjjdddddjddddjjdddddjdddd",
"jjjjjjjjjjjjjjjjjjjjjjjjjjjjjjjjjjjjjjjjjjjjjjjjjjjjjjjjjjjjjjjjjjjjjjjjjjjjjjjjjjjjjjjjjjjjjjjjjjjjjjjjjjjjjjjjjjjjjjjjjjjjjjjj",
"jjjjjjjjjjjjjjjjjjjjjjjjjjjjjjjjjjjjjjjjjjjjjjjjjjjjjjjjjjjjjjjjjjjjjjjjjjjjjjjjjjjjjjjjjjjjjjjjjjjjjjjjjjjjjjjjjjjjjjjjjjjjjjjj",
"jjjjjjjjjjjjjjjjjjjjjjjjjjjjjjjjjjjjjjjjjjjjjjjjjjjjjjjjjjjjjjjjjjjjjjjjjjjjjjjjjjjjjjjjjjjjjjjjjjjjjjjjjjjjjjjjjjjjjjjjjjjjjjjj",
"kkkkkkkkkkkkkkkjjjkkkkkkkkkkjjkkkkkkkkkkkkkkkkkkjjjkkkjjkkkkkkkkkkkkkkkkkkkkkkkkkkkkkkjjjkkkjjjkkkjjjkkkkkkkkkkkkkkkkkkkkkkkkkkk",
"kkkkkkgggggkkkkkkkkkkkgggggkkkkkkkgggggkkkgggggkkkjggggkkkkkkkkkkkgggggggggkkkgggjjggggkkkkkkkjjgggkkkkkkkkkkkkkkkkkkkggggggjjjk",
"ggggjggggggggggkkkgggggggggkkkjgggggjggggggggggkkkgggggkkkggggjggggggggggggggggggggggggkkkkkkkjggggkkkggggggggggggggggggggggjjjg",
"kkkkkkkkkkkjjjjkkkjjjjkkkkkkkkjjjjkkkkkkkkkkkkkkkkkkkkkkkkjjjjjkkkkkkkkkkkkkkkkkkkkkkkkkkkkkkkkkkkkkkkkkkkkkkkjjjjjjjjjkkkkkkkkj",
"kkkkkkkkkkkkkkkkkkkkkkkkkkkkkkkkkkkkkkkkkkkkkkkkkkkkkkkkkkkkkkkkkkkkkkkkkkkkkkkkkkkkkkkkkkkkkkkkkkkkkkkkkkkkkkkkkkkkkkkkkkkkkkkk",
"kkkklkkkkkllkkkklkkkkkklkkkkkkkkkkkklkkkkkklkkkkllkkkkkkkkkkkklkkkkkllkkkkllkkkklkkkkkkkkkkkkkkkkkkklkkkkkllkkkklkkkkkklkkkkkkkk",
"kkkkllkkkkklkkkkllkkkkklkkkkkkkkkkkkllkkkkklkkkkllkkkkkkkkkkkkllkkkkllkkkkllkkkkllkkkkkkkkkkkkkkkkkkllkkkkklkkkkllkkkkklkkkkkkkk",
"lkkkllkkkkllkkkkllkkkklllkkkkkkklkkkllkkkklllkkkllkkkklllkkkkkkklkkkklkkkkllkkkkllkkkklllkkkkkkklkkkllkkkkllkkkkllkkkklllkkkkkkk",
"zzzzzzkllllllllllllllllzzzzzzzzzzzzzzzkllllllllllllllllllllllzzzzzzzzzklllllllkzzzzzzzzzzzzzzzzzzzzzzzkllllllllllllllllzzzzzzzzl",
"zzzzzzklzzzzzzllllllllkzzzzzzzzzzzzzzzklzzzzzzlllzlllllkkkzzlzkzzzzzzzklzzzzzzlzzzzzzzzkzzzzzzzzzzzzzzklzzzzlzlllllllzzzzzzzzzkl",
"kkkkkzkkkkkzzzkkkkkkkkzkzzkkkkzkkkkkkzkkkkkkkkllllkkkkzlzzzkkkkkkkkkkzkkkkkkkklkzzkkkkzzzzzkkkkkkkkkkzkkzzkkkkllkkkkkkzzkkkkkkzk",
"zzzzzzkkkzkkkkkkzkzkkkzzzzzzzzzzzzzzzzkkkzkkkkkkzkkkkkzkkzkkkkzzzzzzzzzkkzkkkkzzzzzzzzzzzzzzzzzzzzzzzzkkkkkkkkkkzkkkkkzzzzzzzzzk",
"zzzzzzzkkkkkkkkkzzkkkkzzzzzzzzzzzzzzzzzkkkkkkkkkzzkkkkkkkkkkkkkzzzzzzzzkkkkkkkzzzzzzzzzzzzzzzzzzzzzzzzzkkkkkkkkkkkkkkkzzzzzzzzzk",
"xxzzzxzzzzzzzzzzzzzzzzzzzzzzzzzzxxzzzxzzzzzzzzzzzzzzzzzzzzzzzzzzzzzzzzzzzzzzzzzzzzzzzzzzzzzzzzzzxxzzzxzzzzzzzzzzzzzzzzzzzzzzzzzz",
"xxxxxxcczczzzzzzzzzzzzzxxxxxxxxxxxxxxxcczczzzzzzzzzzzzczzczzzzcxxxxxxxcczczzzzzxxxxxxxxxxxxxxxxxxxxxxxcczczzzzzzzzzzzzzxxxxxxxzz",
"xxxxxxxccccccczzzzczcccxxxxxxxxxxxxxxxcccccccczzzzczcccccccczczxxxxxxxcccccczczxxxxxxxxxxxxxxxxxxxxxxxczcccccczzzzczcccxxxxxxxzz",
"cczzzzzzcccccczzzzcccccccczcczzzcczzzzzzcccccczzzzcccccccccccczzczzzcczccccccczzczzczczccczcczzzczzzczzzcccccczzzzcccccccccccczz",
"cccccccccccccccccccccccccccccccccccccccccccccccccccccccccccccccccccccccccccccccccccccccccccccccccccccccccccccccccccccccccccccccc",
"xxxxxxxxxxxxxxxxxxxxxxxxxxxxxxxxxxcccccxxxxxxxxxxxxxxxcccccxxxxxxxxxxxxxxxxxxxxxxxxxxxxxxxxxxxxxxxxxxxcccccxxxxxxxcccccxxxxxxxcc",
"cccccccccccccccccccccccccccccccccccccccccccccccccccccccccccccccccccccccccccccccccccccccccccccccccccccccccccccccccccccccccccccccc",
"cccccccccccccccccccccccccccccccccccccccccccccccccccccccccccccccccccccccccccccccccccccccccccccccccccccccccccccccccccccccccccccccc",
"vvvvvvvvvvvvvvvvvvvvvvvvvvvvvvvvvvvvvvvvvvvvvvvvvvvvvvvvvvvvvvvvvvvvvvvvvvvvvvvvvvvvvvvvvvvvvvvvvvvvvvvvvvvvvvvvvvvvvvvvvvvvvvvv",
"vvvvvvvvvvvvvvvvvvvvvvvvvvvvvvvvvvvvvvvvvvvvvvvvvvvvvvvvvvvvvvvvvvvvvvvvvvvvvvvvvvvvvvvvvvvvvvvvvvvvvvvvvvvvvvvvvvvvvvvvvvvvvvvv",
"ccccvvvcccccvvcccvvcccccccccvvccccccvvccccccvvcccvvcccccccccvvccccccvvccccccvvccccccvvccccccvvccccccvvccccccvvccvvvcccccccccvvcc",
"vvvvvvvvvvvvvvvvvvvvvvvvvvvvvvvvvvvvvvvvvvvvvvvvvvvvvvvvvvvvvvvvvvvvvvvvvvvvvvvvvvvvvvvvvvvvvvvvvvvvvvvvvvvvvvvvvvvvvvvvvvvvvvvv"
};
