/* XPM */
static char *_d6ddce937b6468fb361d9d82387f7679JR6m31s4vRJSFBN[] = {
/* columns rows colors chars-per-pixel */
"128 128 63 1 ",
"  c #DA9F5B",
". c #DDA25D",
"X c #E0A45F",
"o c #DFA460",
"O c #E1A662",
"+ c #E5A965",
"@ c #E9AD67",
"# c #E7AE6C",
"$ c #E9AF6C",
"% c #E7B16E",
"& c #EBB16E",
"* c #F0B46F",
"= c #E7B570",
"- c #EDB471",
"; c #EFB876",
": c #EFBC78",
"> c #F1B674",
", c #F2B976",
"< c #F8BC77",
"1 c #F5BD7B",
"2 c #F9BF7C",
"3 c #F6C07E",
"4 c #F9C17E",
"5 c #F5BF81",
"6 c #FABF81",
"7 c #EFC385",
"8 c #EFC688",
"9 c #F6C282",
"0 c #F8C180",
"q c #F6C886",
"w c #FAC887",
"e c #F5C689",
"r c #F9C78A",
"t c #F6C889",
"y c #F6CA89",
"u c #F4C88B",
"i c #F4C88C",
"p c #F6C98D",
"a c #F5C88F",
"s c #F7CC8E",
"d c #F9C88A",
"f c #FACA8C",
"g c #FBCB8C",
"h c #FBCC8E",
"j c #FBCE8E",
"k c #FCD08D",
"l c #F7CA91",
"z c #F7CE90",
"x c #F7CF94",
"c c #F8C890",
"v c #FBCB91",
"b c #F8CE90",
"n c #FCCE93",
"m c #F8CE94",
"M c #F8CC96",
"N c #F8CF97",
"B c #FCCE94",
"V c #F5D093",
"C c #F7D094",
"Z c #F7D097",
"A c #F8D094",
"S c #F8D097",
"D c #FAD096",
/* pixels */
"222205555000099egjjjjjbzzzzzzzzzzmmmmmmmmmmxmmzzbbmbzzzzzbbbbbbbzVVVVVbbbbbbbbbbbmDDDDDDmmmmmDDDmmmmxxCCCCCZCCCCCCCCCCCCCCCCmmmx",
"000000550000009edgggggssssssssszzzzzbmmmmbzzmmzzzzzzzzzlssggggcgssssssjbsssszbbDbbmDDDDDmmmmmmmmmmmmzzCCCCCCCCCCCCCCCCCCCDDCDmmm",
"000000000000009eerrereetttttttttsssslbmmbbbbbbssssstteeeeeeerreeqqqqttttttttsjjDbbbmzzmmmmxxxxxmmmmmmzDDCCCCCCCCCCCCCDDDDDDDDDDD",
"0000000000000009eeeeeeeeeeeeeeeeeeeslbmmbbbbbbsteeeeeeeeeee9999999999qqqeeeettjbbbbmzzzmmmxxxxxxmmmmmmDDCCCCCCCCCCCCCDDDDDDDDDDD",
"00000000000000000000000000000099eeesccBBbbbbbjseeeeeeeee99999900933399q99999qtjjbbbbsmmmmxxxxxxxmmmmmmDDCCCCCCCCCCCCCCCDDDCxmmmm",
"000000000000000000000000000000099eeescnnbbbbbgteeeee999900000000333339999999etgjbbbbzzbmxxxxxxxxmmmmmmDDCCCCCCCCCVVVzxCDDDxxmmmm",
"220000000000000000000000003300099eeescnnnbbbbgeee779999990055550333333999939ettjbnbbbbbbxxxxxxxxmmmmmmDDCCCCCCCCVVVVzzVDmxzxmBBm",
"220000000000000000000000003300099e9escBDnnbbbgeee799995590555550333333999999etgjnnbbbbbbmDDmmxxxmmmmmmDDCCCCCCCCVVVVVDDDxxxxbnnn",
"0000000000000000000000000000000955eegnnDnnnnbgtee999999900000333033333990999eqgjnnnbzzzmDDDDDmmmmmxxDDDDCCCCCCCCCDDVVVDbbbbbnBnB",
"00000000000000000000000000000009555esjnDnnnjjgeee999999000000000003333990009edgjnnnbzbbbDDDDDDDmmmmxDDDDCCCCCCCCDDDDVVbbbbbbnnnn",
"000009000000000000000000000000095559rjnnjjjjgdwee999000000000000003333999999ewgjjbbbbzzzCDDDDCDDmmmxmmmmCCCCCCCCDDDDVADbbbjbbbbb",
"999999090000000000000000000000009559rwjjjjwwdde09900000000000000000333999999eedjjjjssszzzDDDDCCxmNmmmmmmCCCCCVVDDDDDVjbjbggggggg",
"eeeee99900000000000000000000000055559rwdrrwwwe009990000000000220003333000999eeetttttttssszDDCxxxxmmmxxxmDDCCDDDDmmmbbjssstttttte",
"wwwwee99000000000000000006666006555509wwww0ee90099000000000022240032233009999eeeeeee8etszzxCxzzxxmmmxzzmDDCDDDDDmmbbjstteeeeeeee",
"ggdwwqe900000000000000066666666655220090000000033333333333002224032222300999999eeee8888slzzxVzzzxmmmDVDDDDVDmbbbmbbbssteeeeeeeee",
"gggdwee9000000000000066666666660002220002230003333333333330044400322223000939999eee7788tizzVVzzzxmmmDDVDDDVzsbbbmbbjsseeee999999",
"jgggdww90000000000000006666666600022200222230003300000000000000003222300000355999e77788tszDDDDzzmDDDDDmmmmmbbbbbDbnjgdeee9999999",
"kjjgwww900000000000000006666660000323002222300040000000000000333033223000009559999777eetssbDDbzzmDDDDmmmmmbbnnnnbnnjgdeee9999999",
"kkkgdww90999000000000000666666000033400333300000003333330033322233323009000939999977eeetsszbbbbbbmmmxxmbbbbbnnnnbbnnjgee99909900",
"kkkgdww99939000000000000666666000433344000000000004333300000332200320000000099099979eeettszbbbbbbbbmbzbbbbbbnnnnbnnnjgee99909900",
"jjggww909990000000000000666666000444444400000000002233000000003000330000000999999399eeettsjbbbbbbbbbbnnnnnnnbbbbnnnnjdw999990000",
"gggdww909990000000000000066666000444444440000000002240000000000000000000000900ee099eeeettsjjbbjbbbbbbbbnnncccggggjjjjdwe99099900",
"wwwwww900000000000000006000000000444444440000066666600000wwwwwwwww00000000000eeweeeeeeetttttttttssstttggggsrrrrerrddddweeeeeeeee",
"wweww900000000000000000000000000044444444000600666660000wwwwwwwwwww0000330909ewddddtdddeeeeeeeeeeeeeeeeeeee9999999eerrreeetdddrr",
"9999900000000000000000000000000004444334400000006600000wwwdwwwwwwww0002213000wwwjjjwwddreee9997790009999999999955599eerrddggjjjj",
"0000000000000000000000000000000000443443000000006605009wwdwwjjjggww003211130wwwgjjjjwwdr9999557790999999995555555509eerdggjjjjjj",
"0000000000000000000000000000000000033330000000006555569wwdwjjjjjjwww03211130wwwgwwwwwwdwe999999999000000000000500999errjjnbjjjjj",
"0000000000000000000000000000000000000000000000006555559wrdjjjnnjjwww00311300wwwgwwgwjwwre909000000000000000000000009ergjnnbbbjjj",
"0000000000000000000000000000000000000000000000000055009erdjjjnnnjgww09333390wwwjggjjjjwre099000900090000000000000009eegjnnbbbbjj",
"0000000000000000000000000000000000000000000000000055009erdgjnnnnjdwe09333390wwwjjjjjjjwwe900000003333333330000000099eedgnnbbbbbn",
"00000000000000000000000000000000000000000000669990550999esggnnnjjde9999999900wwwjjjjjwww905250003333333332222225555599egbnnbbbnD",
"00000000000000000000000000000000000000000000669990550999ergggjjjdde9999999900wwwwwwwwwww00522000333333343222222505559eegbnbbbbbb",
"w0000000222200000000000000000000000000000000000000555099eegggjjjddw9009999909wwwwwwwwww0022200004433444442222250000099rgccgsssss",
"wwwe99003330000000000000000000000000034400000000000000999erdddddwww9000000009wwww00www00022300000443444444444400090009wrdgdeeeee",
"gggdwq9093900000000000000000000033003344400022300000000999eeeeee000000000000000000000000000000000433440444000000000000099eeeee9e",
"gjkggq99939000220000000000000000230043244004222300000000000000000000000000000000000000000000000000440000000000000000000000000009",
"kkggtq99939000220000000000000003224044244044222300000000000000000000000000000000000000000000000000000000000000000000000000000000",
"kkggtq99999000220000000000000003224444244044223000000000000000000000000000000000000000000000000000000000000000000000000000000000",
"kkkggqe9999000220000000000000003224444240044220000000000000000000000000000000000000000000000000000000000000000000000000000000000",
"kkkggqe9990000050000000000000000224444240044220000000000000000000000000000000000000000000000000000000000000000000000000000000000",
"gkkkgwq9990000000000000000000000244442244444220000000000000000000000000000000000000000000000000000000000000000000000000000000000",
"gggggwq9900000000006000000000000444421124442220000000000000000000000000000000000000000000000000000000000000000000000000000000000",
"ttggqq99990000000000000000000000064211112211113000000000000000000000000000000000000000000000000000000000000000000000000000000000",
"qqqqq9999990000000000000000000000222,,,,11,,;12000000000000000000000000000000000000000000000000000000000000000000000000000000000",
"9eee99933390002200000000000000004221,;;>,,>;-;2300000000000000000000000000000000000000000000000000000000000000000000000000000000",
"99999993139000220000000000000000021,>;-;;;;---1200000000000000000000000000000000000000000000000000000000000000000000000000000000",
"99999933139000220000000000000000021,;-&&;-&&--1230000000000000000000000000000000000000000000000000000000000000000000000000000000",
"39999033190000000000000000000000002,;&&&&&&&--1230000000000000000000000000000000000000000000000000000000000000000000000000000000",
"33300093390000000000000000000000002,;&&&&&&%--1200000000000000000000000000000000000000000000000000000000000000000000000000000000",
"99000000000000000000000000000000002,;&&&&&#%--1230000000000000000000000000000000000000000000000003300000000000000000000000000000",
"00000000000000000000000000000000002,;&&$###%--1230000000000000000000000000000000000000000000333333333300000000330000000000000000",
"00000000000000000000000000000000002,;-&&&&&&--1230000000000000000000000000000000000000000000333322223300000000330000000000000000",
"000000000000000000000000000000000021,>;;;;;;-:1230000000000000000000000000000000033333333333333333333000000000000000000000000000",
"0000000000000000000000000000000000421,,,,,,,111230000000000000000000000000000000322223333333333000000000000000000000000000000000",
"00000000000000000000000000000000004211111111122230000000000000000000000000000000333330000000000000000000000000000000000000000000",
"00000000000000000000000000000000044422244422222330000000000000000000000000000000000000000000000000000000000000000000000000000000",
"66000000000000000000000000000000222244444442222330000000000000000000000000000000000000000000000000000000330000000000000000000000",
"66000000000000000000000000000002222244444444222330000000000000000000000000000000000000000000033000000000330000000000000000000000",
"66000000000000000000000000000002222244444444432330000000000000000000000000000000000000033333333000000000000000000000000000000000",
"66000000000000000000000000000002222444444444433300000000000000000000000000000000333333333000000000000000000000000000000000000004",
"66666000000000000000000000000002224444424444000000000000000000000000000000000000333300000000000033333300000000330000000000000044",
"66666600000000000000000000000002224444424440000000000000000000000000000000000000000000000000000022222300000003330000000000000444",
"66666600000000000000000000000002224444444440000300000000000000000000000000000000000000333333222221222300000003230000000000000444",
"66666600000000000000000000000002224444444440003300000000000000000000000000000000000003222211111111122300000003233000000000000044",
"66666600000000000000000000000002224404444440002230000000000000000000000000000000000322211:;-----;1112300000003233000000000000004",
"6666600000000000000000000000000222440444444000323000000000000000000344443344443433432211---------;112200000043330000000000000000",
"664400440044004400330044004400004400004444000033000000000000000000444444434444444444321;;-&%=%--;;113433333440000000000000000000",
"224444444444444434444444444444400000000000000000000000000000000004444444444444444444321;--%%%&--;;113433323340000000000000000000",
"222222244444444444444444444444440000000000000000000000000000000034444433444444444000421,;-&%%&--;;114444333340000000000000000000",
"444442244444444444444444444444444000000000000000000000000000000434443433444444444000421,;-&%%&--;,124444333340000000000000000000",
"444444444444444444444444444444444000000000000000000000000000000433444433343344444444311,;-%%%&%-;,124444334440330000000000000000",
"444444444444444444444444444444444000000000000000000000000000000443444444333444434443211,;-&%%&&--,124444334440330000000000000000",
"044424222222444444444444444444444000000000000000000000000000000444444333444444333333211,--------;1134443334440330000000000000000",
"4444211111111111444444444444444440000000000000000000000000000004444444334444443344433111;;-----;,1133343334400330000000000000000",
"44211,,,,>>>>>,,2444444444444444400000000000000000000000000000044444444444444444444443321111111111233443334400330000000000000000",
"44211,,;;;;;;;;,1444444444444444400000000000000000000000000000043444444444444444400044443211222111233333334403333000000000000000",
"4422,,>;&&&&&-->1444444444444444400000000000000000000000000000043344444433444444444444444433333311334433334403333000000000000000",
"04411,>;&&&&&&->1444444444444444400000000000000000000000000000043344444433444444444444444444443322334433344403223000000000000000",
"00421,>;&&&&&-;,1444444444444444400000000000000000000000000000043444433434444333333333333333333222344432344403223000000000000000",
"00421,>;&&&&--;,1444444444444444000000000000000000000000000000004444333334444333332333333443333223444432344403223000000000000000",
"0441,,;;&&&&--;,1444444444444444400000000000000000000000000000034333444444444444433334444444433333444332333403223000000000000000",
"4441,,;;&&&&-;;,1444444444444444232000000000000000000000333330033333444444444434444444444444443333443222133343330000000000000000",
"44211,>;;;--;;;,2444444004422222222033333333000003000033222222221123444444443323444444333444444433321111111123000000000000000000",
"44421,,,>>>>,,,,2442444044211111111222333333300000000032211111111112444444444323444444333334433332111111111112000000000000000000",
"444411,,,,,1,,,144444444421,,,,,111112222223333000000022111;;::;;,113333334444444444443333444444211;--;;;;;,11300000000000000000",
"44442111111111224444444441,,;;;;--:1122222223300000000211:------;-,1233333340444444444333344444311;---;-;;;;11200000000000000000",
"44444444444444444444444421,;&&&----;112233333330000000211-------&;,123332334444444433333333444431,;------;;;11200000000000000000",
"44444444444444440444444421>;&&&&%---112200003333000003211----###&-,123332234444444333333333334421,---&&--;;;12300000000000000000",
"44444444444444444444444421,;&&&&%=--112000000000300003211---==##&-;123432223344333332222222223321,---&&&--;;12000000000000000000",
"44444444444444444444444421,;&&&&%=--120000000000330003221---==##&-;124332122333333333332222222321,--&%%&--;;12000000000000000000",
"22444444444444444444444421,;-&&&----120000000000330003221----=#%%-;123332223332233333333333333311;;-&%%&&-;-12000000000000000000",
"44444444444444244044444421,;-&&&---;123000000003300003221----=#=%-;113333333332223334433444433321;;-&%%&--;-12300000000000000000",
"44444444444444440044444411,;;------:123000000333300003211:-----&--;112333444432111133333444434431,------;;;;11200000000000000000",
"44444444444444440044444411,>;;;;--;1123300033323000003211:-------;,1123344443211111112334444444421,;-;--;;;;12200000000000000000",
"44444444444444440044444421,,>>,,;:112230333333330000032211::----;;1123334443311,;,,,11122344444432111,,,,,1112300000000000000000",
"444444444444444004444444421,,111122224000343340000000032211111111112333444431,;;-;;-;,111134444443211111111122000000000000000000",
"44444444444400000442244444444444224000000433400000000004222222433334444444421;-%%&&&;;>,,112444444412233321122300000000000000000",
"44444444444400000442244444444440440000040044440004004444224444004344444434421--%%&&&&;>,,<12444444312233332222234444334000000003",
"44444442244444400444244444211244444042224444224400444444224422443333333340421;-&&&&&&&&>,124442244112233322222234444344400440044",
"44444442244444444444244444211244444442124444224444444244444422442233322300021,;&&&&&&&&>,<44444244433333333333334444344444444444",
"44444444444444444442244444444444440042224044224444442244444444444240003300321,;&&&&&&&*>,<44444444444444444444444444444444444444",
"4444444444444444444224440444440444444222444422444422224444440004420000344441,,;&&&&&&&*>,<44444440000000000000044444444444444444",
"2222444444444444444224444444444422442222244222444222222224444444224000044441,>-&&&&&&&;>,<24444444444444444444444444444444444444",
"1111144444444444444224444421111122221,,,222222244222222222222222222300044421,>&&&&&&&&>>,,<<<<<222222222222222221111111111111111",
",,,,1144444442444444444441,,,,,,>,,,,,>,,,,,,,22444442221,,,,,,1,,2233344421,;-&&&&&&&&>*>,,,,,,,,,,,,,,,,,,,,,,,,,,,,,,,,,,,,,,",
";;;,,12444442244444444442,,>;;;;;>>>>>>>,,>>>,,224444222,,>>>;;->11223344421,;-&&&&&&&&&********>>>>>>>>>>>>>>>>>>>>>>>>>>>>>>>>",
"---;>,14444422444444444411,;-&&&--;;---->>>-->,22444422,,>>;-&&-;-1112224421,;-&&&&&&&&&&&&&&&&&&-------;;----------------------",
"$&&-;,14444424444444444411,;-&&&&&--&&&->>-&->,22444422,>>;-&&&&---111224421,>;&&&&&&&&&&&&&&&&&&&&&&&&&&&&&&&&&$$$$&&&&&&&&&&$$",
"$$&&;,12444224444444444421,;-&&&$&&&&&&---&&&;,12244422,>>>-&&&&---,12244421,>;&&&&&&&&&&&&&&&&&&&&&&&&&&&&&&&&&&&&&&&&&&&&&&&&&",
"$$$&->12444224444444444421,;;&&&$$&&&$&---&$&;,22224422,,>>--&&&&--,11444421,>;&&&&&&&&&&&&&&&&&&&&&&&&&&&&&&&&&&-&&&-----------",
"&&$&-,14444212444444444441,;;&&&&&&&&$&---$$$>,22222422,,>>----&&--112444441,>;&&&&&&&&&&&&&&&&&&&&&&&&&&&&&&&&&----------------",
"&&&&;,14444112444444440441,;;&&&&&&&$&&---$$$>1222244421,>>--&&&&->,14400441,,;&&&&&&&&&&&&&&&&&&&&&&&&&&&&&&&&&----------------",
"-&&&;>14442112404444440441,;-&&&&&&&&&&---$$&>1222244422,>-&&&&&&;,,24040441,>;&&&&&&&&&&&&&&&&&&&&&&&&&&&&&&&&&&&&&&&&&&&&&&&&&",
";-&&->14442114404444444441,>;-----;-&&&&--&$$;1222444422,>>>----;;>,,11111,,,>;;&&;&;>&-&&&&&&&&-;---------------&&&------------",
";-&&;,144422244044444444211,,,,>>,,,;$$$--&$$-,4444444222,,,,,,,,,>&&&&&&&&&&;,,,,,,,,,,,>>>,,,,,,,,>>>>,,>,>>>>>>>>>>>>,,,,>>>>",
";-&&;,1444422400444444442211111,,122>&$$--&$$-,444444422222222,12,;$++++++++$;,21,111111111111111211,,,,22,1,,,,,,,,,,,11111,,11",
"--&&;,140442440044444444444444222242,-$$-;-&$-14444444222222222221;#O......O$>24444444422222444444422222244422222222222222222222",
"-&&&;,140044440044444444444444442242,-$&-;-&&>,4444444444422244441&+.      o+&24444444444444444400444444444444444444444444444444",
"&&&&;,140444440442244444444444444442,-&&->-&&>1422222222444444442,&+.      .+&,4400000444444400000444440400000444444444444444444",
"&&&&->124444444421224444444444444442,-$$--&&&>,222222222444444442,&+. .... .+&,4440444444444400444444444400000044444444444444444",
"$$$&;,124442224422222444444444224442,-$$&&&&&;,222222244444444442,&+........+&,2444444444444433344444434444444444444333122144444",
"$$&&;,124422112444442444444422224442,-&$&&&&&;,,22222244444444442,&+X.......+&,2444444444444033344443333444444334433331111234444",
"&&&-;,124422112444444444444444444422,>&&&&--->>,22222244444444444<*@X......o+&<4444422444000000444443333444443333333333333334444",
"--;;,,124442222222222222444444444422,>>---;>>>>,12222222222222222<*@+XX...o+$&<2422211240000000044443333444333331233333333333444",
";-,,,1244444444211,,,,111112444444222,>>>>>,,,>,,,,,,,,,,,,,,,,,<,*&@@+++++$&>,1111,,1124000000043333333333331111111133333333344",
",,,1114444444441,,>>>>,,,,114444442222,,,,,,,,,>>>>>>>>>>>>>>>>>>>>***&&&&&&>>>,,,,,>,1120000003333333333333,;;;;;;;111333333333",
"1111244444444421,;;;;;;;>,,1144444222222,,222,,>>-------------&&&*>>,,<<<<,,>>;;;;;;;;;122000003333333333331;=-=---;;::133333333",
"1122444444444421;-&&&&-;;>,,144444224422222221,>-&&&&&&&&&&&&&&&&&>,<244442<,>&&-;-----11230003333333333333:;-%%%%=-;::133333333"
};
