/* XPM */
static char *result[] = {
/* columns rows colors chars-per-pixel */
"64 64 16 1 ",
"  c #162A42",
". c #172A42",
"X c #162B42",
"o c #172B42",
"O c #162A43",
"+ c #172A43",
"@ c #162B43",
"# c #172B43",
"$ c #546C8E",
"% c #556C8E",
"& c #546D8E",
"* c #556D8E",
"= c #546C8F",
"- c #556C8F",
"; c #546D8F",
": c #556D8F",
/* pixels */
"...o+o.++  ....o..oo+.#+..+ .... .. ........oO... .+ .  + ..+o.@",
"X.....#.X#O+.+.o .o..+.o.+.X....+o.o+++. +.+o o.#..X.+o..o..o+#o",
"#.+o...+..o.o  .o..+..+#+o ...+.o+.oo.O....#...O+. .+... +# .o..",
"#.#... ....+.o+..o+..#+o#.. ..+..@. +..+...+Xo..+.+.oo.+.+.+.+. ",
"++ . ..#+... #.. o...XX.#o.o ...XoO# o#.o . O.+.. oo..++o. .o+.o",
". ..oo ...+#+...o.o...Oo..ooo .... Xoo+.X...@o.X...#+ o. . +..+@",
" #.. . . ..+.o..++o +.......O...+... ..+++. OoO+o.X+. OO.....o..",
".... ....O. ..+o...O.o+. +ooo....X...@oO .o@o.ooX+..+. o..... Xo",
"..O. oo# ...+..o....O. o. oo.o..o......+.O.X.. o+o+. +Xooo..+ .o",
"o#o. o o.X O..+.+.#...o.o. o .+..o.o+ ...o.X.o+o ....o.... ...o+",
".oo+ +...+. #o..+ +o ++$$$$=$=$================.   .#. .X #.. o.",
".....oOo+.. +@.#OX.. . %$-$$$$%=========$$=====o  .X+  .o... O.+",
"o . ..o.  ... ..o.#....$$$$$%$$;===============O. +..+.@@Xoo....",
"......+#o .oX# o+.....o$*%$$$=$=====$-=====$$=;+ o+.o..++. X. +.",
"o....+O.. ...  X..+.Xo.%$$$$%=$======-======;=;..+.o+. .O. .+.++",
"....O... .  ..+ +.... .$$$$$$$$======-=-======-.oO o..o.oO ++. +",
" .. ++o.... o.. oo . o.$$$$$$&$=====;===$=====$. ..o. .+++..+...",
"....+.XO....  .... +..o$$&$$$$$==========$-=;==. oo.... oX+ +..+",
". o#o+..XoX@oo %--==---..........X.......++.. ..O....o++X. . o.O",
"#o#.....+Oo ..#-%-:----O#.+#. .o. ..+.oo ......++...oo...o.+ .+ ",
".... +.o ....o.--------. #.+.+o. oo#.+.... . .++.. ....X..o+.o..",
"...o.o o... o.o-------- +. oX.X.o...++ ++.o...+. #o..O..+.@.#+..",
". .o..+...o .. -:$-----ooo@+o.#..O+.....#.OO+..Ooo+.o #X. ..# .o",
"#.+..O.....O+  -%-:---=.X...o.O.o.X...#.o.Oo o.o.....+......  .o",
"..#+ oo.. . o.o--------.+#.o.    .#.o. .....+. o+ o..X.+  ...+o.",
"#...Xo#..oX o+.--------...o.#o.X .+. .. .....+ + . .....+oo.. ..",
".oo  +.oo ..++.# o+....$$$$%$$%========.. . o+.+X#+ ..+o+. X...#",
". .O....#.... ....o.o+ $$$&*&=%=====$==.@. .. ..o+ .+o....+. +.o",
" +oo+o .oOo.Xo.+. o.++.$$$$$$$$=$;==-==.o ooX+..+.o..+..#++ .. #",
" o.. ....+#o.. ..OX.o..$$$$$&$$===$==;=#   +o@.#o.. ....+Oo...XX",
"o...X+o+....... + ...#+&&$&=$$$==;=====.# O.O+oo .#.oO...+ ....X",
"..+o ......+..+o......X$=$$$$$$======$=+.oX.o....++. o.o+..o.o.o",
". +......o.+.o.+o+..o..%%$$$%$$======$=. .+..o...o+...o...+o.+o ",
".. ..#X. ..@O+++o#oo.O+$$$$$%$$=$======o...ooX.+ . +..O.+o.oo...",
".Oo++ +.+..#..#....... ..oXo...+ ..  ..********. o.+o. ..O..o.+X",
".o..o+.+...o.++o+o+++X +O+.+O. o..o....******;*. .+O..X.+o o...o",
".. oo .o.. o.. .O.ooo.o#.+O++.@...X....********...O..o+ ..o... .",
"O .o....  ++o.+.+... ++ .. o.o+O# .Oo.@******-*. ..o...O.oX.o.o ",
"..+.o+... .+.....+.+O..o .++.O. .o.o...*****$*&o.....#.#o.. . o.",
"+ +......  .......o...  o...#.. .....O.*&***%**..oXX..X.X+. .+.o",
"....o..o  .  .o...X.++O.++#...o...  ...*****:**X. o.++ o..o  +.o",
"..+O+. ooo.+.o . ...o .+.X....#+OO.o...******&*..   X.. .o....X ",
"..#.X.X +.. .+.;&;;;;;;$&&&&&&&--=-----..X. .ooo+ ++.. ...o.. ..",
"O....ooo@+....#:;;;;;:;&&&&&&&$-%%%---:.+o..o..o.#.. +...o++.o+.",
"... o. o. . +++=;;;=;;*&&&&&&$&=;-:%---.. .     o+. ...oX ... o ",
".o++  ..O#.. ..;;;;;:;;$&$&*;:&-------:XO#..OX..  ...o. O.o.+X@.",
"oo..X..#..#o...;&;;;;;;&&&;&&*&-:-:-:--.#.o.o..+ ..+o.#oo...... ",
"  +..   ...+@o.;;;;::;*&&&*&&&&--------..       .++ . O+o @o.o.+",
". +.. .oo..+...;;;&;=;;*&&$*&&&--------o.#+....+ o.+.+@..+.#.+oo",
"..o..+..X+.+.o.==;;;;;**$;&&&&&--------...oo+..+ . o..o..+X..O. ",
"O#o.+O.+..+....O.o+ .. +.+...o..  ..o. ++.. ...oX#.#.O.+..+o o# ",
"+ .   +...O.X.. ...o..#o. . ..+ #X.. +.o. #. oO.+.o... O. o X.++",
".ooXXX..++ o..o....+..O+.o+  o .o+ooo.o.#.o.+....O.o.o...++..o.o",
".O...O+ .. ....  o ..+ o..+o.o OX...XO. ....o..+#o....#o.+.+.  #",
".. . o..+..o..#. oo. . .. ....+o.#.o#.++.@ . + ..#. o .+. .@...+",
"  #@+ X...#..oO. .o..oo... ...X. .oO.+. .oo.++ ...X..+o.o o+.  o",
"o  oo+.O. ...o....++.o.X. o ...+.+.o. X.O.#O...X.+o. o ..+.+.. .",
"+.ooX+.o.......+.....@.O..+.... +..+.X# o..o..+..+ # oX  ..X...+",
"+ O ... ...o...o...+.oo.X...+...# .@.o.O.#+o ..X... X.. X+.. .o.",
".+.. .++O . ... #...+.O..+oO ..+  o.. oo.oo .X..X.+.  X+. ...Xo+",
". . X...o+.   .o.o.Xo . ooo+X+o.Oo+@+.. ... #...+. ....+#+ oo...",
"+O.+....o + .. ..# XOO+++#o+XO. .+o.O...+. #o .oO. ...o. ..X.. .",
". +. .o.o.o.X.oO#..O.oXo......X.+.......o.oo+o...+X++.o......X..",
"  ..... o+oO. +.....X. +X+ +.o+... XX#.+..#..+ #.#...  ..oo. ..."
};
