/* XPM */
static char *d9690f88bda34d91c9c494f3c8dc66feAwlQeazgbOQrWbAM[] = {
/* columns rows colors chars-per-pixel */
"64 64 2 1 ",
"  c None",
". c #EB2F19",
/* pixels */
"                                                                ",
"                                                                ",
"                                                                ",
"                               ..                               ",
"                               ..                               ",
"                               ..                               ",
"                               ..                               ",
"                               ..                               ",
"                               ..                               ",
"                               ..                               ",
"                               ..                               ",
"                               ..                               ",
"                               ..                               ",
"                               ..                               ",
"                               ..                               ",
"                               ..                               ",
"                               ..                               ",
"                               ..                               ",
"                                                                ",
"                                                                ",
"                                                                ",
"                                                                ",
"                                                                ",
"                                                                ",
"                                                                ",
"                                                                ",
"                                                                ",
"                                                                ",
"                                                                ",
"                                                                ",
"                                                                ",
"   ................            ..            ................   ",
"   ................            ..            ................   ",
"                                                                ",
"                                                                ",
"                                                                ",
"                                                                ",
"                                                                ",
"                                                                ",
"                                                                ",
"                                                                ",
"                                                                ",
"                                                                ",
"                                                                ",
"                                                                ",
"                               ..                               ",
"                               ..                               ",
"                               ..                               ",
"                               ..                               ",
"                               ..                               ",
"                               ..                               ",
"                               ..                               ",
"                               ..                               ",
"                               ..                               ",
"                               ..                               ",
"                               ..                               ",
"                               ..                               ",
"                               ..                               ",
"                               ..                               ",
"                               ..                               ",
"                               ..                               ",
"                                                                ",
"                                                                ",
"                                                                "
};
