/* XPM */
static char *_744588cc02d411cb2cbfe7f3cbd7cb41Qo30jJpbTJ4Irlj[] = {
/* columns rows colors chars-per-pixel */
"30 78 169 2 ",
"   c None",
".  c #030005",
"X  c #080006",
"o  c #04000A",
"O  c #0B030B",
"+  c #10070C",
"@  c #040013",
"#  c #090412",
"$  c #02001A",
"%  c #0A031B",
"&  c #0C0B1C",
"*  c #150E1E",
"=  c #1A121F",
"-  c #050223",
";  c #090424",
":  c #0C0822",
">  c #0D0628",
",  c #0C082C",
"<  c #130C24",
"1  c #19072D",
"2  c #130B2C",
"3  c #18092D",
"4  c #141027",
"5  c #181121",
"6  c #181B24",
"7  c #16132F",
"8  c #1B142D",
"9  c #1F1C2A",
"0  c #150E30",
"q  c #171231",
"w  c #1B1333",
"e  c #1E1A34",
"r  c #1E163C",
"t  c #1F1838",
"y  c #231D2D",
"u  c #231535",
"i  c #281334",
"p  c #211B35",
"a  c #2B1F35",
"s  c #211738",
"d  c #231A3A",
"f  c #2D2D2F",
"g  c #262133",
"h  c #292235",
"j  c #2E2C36",
"k  c #25213B",
"l  c #2B243B",
"z  c #2F2B3C",
"x  c #322B34",
"c  c #322B3C",
"v  c #373538",
"b  c #3C343A",
"n  c #251E40",
"m  c #272344",
"M  c #2C2544",
"N  c #2D2943",
"B  c #2B2548",
"V  c #2E2949",
"C  c #332C42",
"Z  c #312748",
"A  c #312949",
"S  c #3E3743",
"D  c #3B3843",
"F  c #352F54",
"G  c #363254",
"H  c #383357",
"J  c #37375B",
"K  c #3A355B",
"L  c #3D3A5C",
"P  c #3D3660",
"I  c #3E3D64",
"U  c #3D3F68",
"Y  c #413C5D",
"T  c #413E64",
"R  c #433E6A",
"E  c #3F405F",
"W  c #4F4953",
"Q  c #424164",
"!  c #484166",
"~  c #4F4C65",
"^  c #45436A",
"/  c #48446B",
"(  c #4B4B6E",
")  c #554E6D",
"_  c #584F6C",
"`  c #525566",
"'  c #54546C",
"]  c #59536F",
"[  c #454770",
"{  c #4B4C73",
"}  c #524D74",
"|  c #564F78",
" . c #545276",
".. c #5A5474",
"X. c #5C5A75",
"o. c #565379",
"O. c #5A537C",
"+. c #5C5A7D",
"@. c #605E6C",
"#. c #605776",
"$. c #665E73",
"%. c #655E7E",
"&. c #66606C",
"*. c #6C6574",
"=. c #6C6974",
"-. c #6E6D7D",
";. c #746C72",
":. c #746D7B",
">. c #797277",
",. c #5A5681",
"<. c #5A5983",
"1. c #615E84",
"2. c #665F88",
"3. c #5F6188",
"4. c #646185",
"5. c #656A86",
"6. c #696A87",
"7. c #65648D",
"8. c #68618A",
"9. c #6A6488",
"0. c #6A668B",
"q. c #6B6788",
"w. c #6D6688",
"e. c #6A658D",
"r. c #6B678C",
"t. c #69678F",
"y. c #68668E",
"u. c #6B668F",
"i. c #6B668E",
"p. c #6C668C",
"a. c #69658E",
"s. c #65688B",
"d. c #65698E",
"f. c #66688E",
"g. c #6B6A88",
"h. c #68688A",
"j. c #6E688A",
"k. c #686B8E",
"l. c #6D698D",
"z. c #69698F",
"x. c #716C82",
"c. c #716C8B",
"v. c #6F758F",
"b. c #797189",
"n. c #656591",
"m. c #696691",
"M. c #686791",
"N. c #686793",
"B. c #696693",
"V. c #6C6790",
"C. c #6A6792",
"Z. c #646993",
"A. c #666B93",
"S. c #676C92",
"D. c #6B6991",
"F. c #6D6891",
"G. c #6E6991",
"H. c #6D6B93",
"J. c #696F93",
"K. c #6C6992",
"L. c #736E96",
"P. c #746C93",
"I. c #6D7197",
"U. c #867D9C",
"Y. c #82849D",
"T. c #9796B4",
"R. c #9B9BB7",
"E. c #A097B6",
"W. c #A299B8",
/* pixels */
"                    >.O v x x x x b + ;.                    ",
"                    ;.O y 5 5 5 = y X ;.                    ",
"                    :.o l p l k h l o ;.                    ",
"                    :.$ e 2 0 2 2 8 @ :.                    ",
"                    x.N L K P T H Y M $.                    ",
"            X O # @ X.q.r.r.r.m.r.p.p._ $ @ # X             ",
"            X c l d 4.r.r.m.m.m.m.r.u.%.s l c X             ",
"            X c 8 w +.r.m.m.m.m.m.m.r.1.t d l o             ",
"            X c u w 8.r.m.m.m.m.m.m.r.1.w d l o             ",
"            X C s r } ,.,.O.,.<.<.,.O.} t q l o             ",
"            o C s r K I I I I I I I L L w t l o             ",
"            o C s r T R ^ ^ R Q Q ^ Q L d s M @             ",
"            @ C s r P R R ^ R R R R R L n d N @             ",
"            % z ; > K R R ^ R R R R T L , > d @             ",
"          b.~ ] ) } / R R I R R R R R (  .( X.~ -.          ",
"  . o o @ ) c.j.l.G.} R R I I R R Q R { I.Z.J.v.` o . X .   ",
"  X D C M X.q.l.r.7.{ R R R R T T T T { 7.Z.S.5.` j j S X   ",
"  o z p % ) q.u.r.D.{ R T T ! T T Y W ( 7.d.s.6.' & 9 x .   ",
"  X z p :  .L.G.D.G.{ T ! ! ! Q ! Q Q { k.d.h.h.] & 9 x X   ",
"  o z p 2 ! o.} } } F M M M M B B B M G { { ( ( ! 4 y x .   ",
"  o z p q F P L L Y d 3 8 w w q q 7 7 k L L L L G 8 y c X   ",
"  o z p w G / T T ! M u u d d s s e e B Q ! Q ^ G w p c X   ",
"  o z p q G R T T T n w u u u u t e e m Q Q R I H w p c X   ",
"  o z s q T / / / / B s d d d d d d d V ^ / ^ ^ T q p c .   ",
"  o z s 0 | r.8.8.7./ L Y Y Y Y Y Y L ( s.7.7.D.o.0 s c .   ",
"  o z s > O.G.7.7.7./ Y Y T T T Q L E { 7.n.7.D.o.; e z .   ",
"  o z s > O.G.7.7.n./ Y T T T T Q E I { 7.n.n.m.o.; e z .   ",
"  o z s > O.G.7.n.n./ P T T R T Q I I { n.n.n.m.o.; s c X   ",
"  o z s > O.H.n.n.n./ P T T R T Q I I { n.n.n.m.o.; s c o   ",
"  o z s > O.H.n.n.n.[ P T R R R R I I { n.N.n.m.o.; s c o   ",
"  o z s > O.H.n.n.n.[ P T R Q I R I I { n.N.n.m.o.; s c o   ",
"  o z s > O.H.7.n.n.[ P T R Q I R I U { n.N.n.m.o.; s c o   ",
"  o z s > O.H.n.n.n./ P T R R I R U U { n.N.n.m.o.; s c o   ",
"  o z s > O.H.n.n.n./ P T R R I R U U { n.N.n.m.o.; s c o   ",
"  o z s > O.H.n.n.Z./ P T R R I R U U { n.N.n.m.o.; s c o   ",
"  o z s > O.H.n.n.Z./ P T R R I R U U { n.N.n.m.o.; s c o   ",
"  o z s > O.H.n.n.Z.[ I T R R I R U U { n.n.n.m.o.; s c o   ",
"  o z s > O.H.n.n.Z.[ I T R R I R I U { n.n.n.D. .; p c o   ",
"  o z s > O.H.n.n.n.[ P T R R I I I I { n.n.7.D.o.; s c o   ",
"  o z s > O.H.n.n.n.[ P T R R I I I I { n.n.7.D.o.; s c o   ",
"  o z s > O.H.n.n.n.[ P T I Q I I I I { n.n.n.m.o.; s c o   ",
"  o z s > O.H.n.n.n.[ P T I Q I Q I I { n.n.n.D.o.; s c o   ",
"  o z s > O.H.n.n.n.[ I T R R I Q I I { n.n.n.m.o.> e N o   ",
"  o z s > O.H.7.n.n.[ I T I R I Q I I { n.n.n.m.o.> e N o   ",
"  o z s > O.H.n.n.n.[ I T R R I Q I I { n.n.7.D.o.; e z o   ",
"  o z s > O.H.n.n.n.[ I T T R I Q I I { n.n.7.D.o.; e z o   ",
"  o z s > O.H.n.n.n./ P T T R I Q I I { 7.n.7.D.o.; e z o   ",
"  o z s > O.H.n.n.n.[ P T T R I Q I I { 7.n.7.D.o.; e z o   ",
"  o z s > O.H.n.n.n.[ P T I R I Q I I { 7.n.7.D.o.; e z o   ",
"  o z p ; O.K.n.n.n.[ P T T Q I I I I { 7.n.7.D.o.; e z o   ",
"  o c k 2 O.H.n.n.n.[ P T T Q I Q I I { 7.n.7.D.o.; e z o   ",
"  o l s > O.H.n.n.n.[ P T T Q I Q I I { 7.n.7.D.o.; e z o   ",
"  o c k 2 O.H.n.n.n./ P T T R I Q I I { 7.n.7.D.o.- e z o   ",
"  o l u - O.H.n.n.n./ P T T R I Q I I { 7.n.7.D.o.- p z o   ",
"  o z d > O.H.n.n.n./ P T T R T Q I I { 7.n.7.D.o.- d z o   ",
"  o c l w O.G.n.n.n./ L T T T T R I I { 7.n.7.D.o.q k c o   ",
"  o * % $ O.G.7.7.n./ P T T T T Q T I { 7.7.7.k. .$ @ # .   ",
"  W &.*.$.%.2.8.1.4./ L Y L L L L L K ^ 4.3.7.4.+.X.@.=.W   ",
"          W.> / R R m t s u s s t s w B Q Q ^ - T.          ",
"          W.; / R T M u s u s s s s w B Q Q ^ - R.          ",
"          E.; / T T M d u u d d u d t B ! ! / , R.          ",
"          W.; T L L d w w w w w q w 2 n L L I - R.          ",
"          U.T o.} } H A A Z A A V A B K  . .o.^ Y.          ",
"  O o o o _ P.G.7.r.( Q Q T Q Q Q Q L { d.d.J.J.( . . . .   ",
"  X S c g #.G.m.n.7.( Q Q T Q Q Q Q L { d.7.D.Z.X.6 f v .   ",
"  X c y < ..V.4.N.7.{ Q Q ! Q Q Q Q Q ( k.7.7.7. .: p j .   ",
"  o c p < o.V.7.N.4.{ P P L J J J J J ^ k.7.4.r.o.> p z .   ",
"  o c p : } 8.7.7.4.<.<.O.o.o.o.o.o.o.+.H.D.r.r.o.> p z .   ",
"  o c p ; O.H.m.m.m.m.m.m.m.D.D.D.N.D.D.m.m.7.r.o.> p z .   ",
"  o c p ; | H.m.m.n.n.n.n.n.n.n.n.n.n.m.m.n.7.G.+.- p z .   ",
"  o c p ; o.V.7.7.7.7.7.7.7.7.7.7.7.7.7.7.7.7.G.o.- p z .   ",
"  o c p 2 ,.a.G.G.G.D.D.D.D.D.D.D.D.D.D.D.D.G.r.o., p z .   ",
"  o c p 2 L T T T T T T T T T T T T T T T T T T K 2 p z .   ",
"  . c p w q 2 2 2 2 3 3 3 1 1 1 1 3 3 1 3 3 3 > w e 8 y .   ",
"  . c p p p e e e t u u i i i i i i i i i u u u u e 9 c .   ",
"  . x g g l g g g g a a a a a a a a a a a a a a h g g x .   ",
"  X O . o o o o o o o o o o o o o o o o o o o o o o . . .   ",
"                                                            "
};
