/* XPM */
static char *_b096a72e47e43dda37d50fd5e9f0108YGH0sbq7Yv62IErq[] = {
/* columns rows colors chars-per-pixel */
"30 78 243 2 ",
"   c None",
".  c #050005",
"X  c #090005",
"o  c #04000B",
"O  c #0A000C",
"+  c #150005",
"@  c #1A0004",
"#  c #15000A",
"$  c #1A010A",
"%  c #0B0212",
"&  c #0B031A",
"*  c #060017",
"=  c #1B041B",
"-  c #160417",
";  c #2E0C0A",
":  c #270706",
">  c #310A0A",
",  c #320B06",
"<  c #260A19",
"1  c #360E12",
"2  c #381319",
"3  c #2C1213",
"4  c #1C0B24",
"5  c #1E1129",
"6  c #210C23",
"7  c #2A1925",
"8  c #24132D",
"9  c #2A152A",
"0  c #25192A",
"q  c #2C1A2C",
"w  c #291525",
"e  c #341729",
"r  c #241732",
"t  c #241B33",
"y  c #2E1C31",
"u  c #271D38",
"i  c #2A1834",
"p  c #301C34",
"a  c #311D38",
"s  c #340F20",
"d  c #38242D",
"f  c #2B2136",
"g  c #2D243B",
"h  c #2C293C",
"j  c #2D2937",
"k  c #332436",
"l  c #342933",
"z  c #33263A",
"x  c #392638",
"c  c #3D343A",
"v  c #2E222E",
"b  c #49241C",
"n  c #451E28",
"m  c #492739",
"M  c #57353E",
"N  c #4D2C2D",
"B  c #7A382C",
"V  c #6A3B37",
"C  c #723D3B",
"Z  c #7E442C",
"A  c #7A4835",
"S  c #6E413A",
"D  c #2B2642",
"F  c #322541",
"G  c #372C42",
"H  c #463942",
"J  c #5A3547",
"K  c #512E44",
"L  c #663C44",
"P  c #574D55",
"I  c #5B4E58",
"U  c #6D454B",
"Y  c #784849",
"T  c #764854",
"R  c #6D5058",
"E  c #5A5362",
"W  c #635B65",
"Q  c #6B636D",
"!  c #6D6267",
"~  c #6C6571",
"^  c #863A29",
"/  c #863C34",
"(  c #913C2B",
")  c #83432C",
"_  c #8A472E",
"`  c #9D452A",
"'  c #8C443C",
"]  c #884636",
"[  c #93453C",
"{  c #974536",
"}  c #8F5637",
"|  c #B7592D",
" . c #A85B37",
".. c #B75934",
"X. c #A44B2F",
"o. c #9B613D",
"O. c #B0643D",
"+. c #94421C",
"@. c #D5731B",
"#. c #CB6B1C",
"$. c #D96E28",
"%. c #C97327",
"&. c #D57224",
"*. c #DA7222",
"=. c #DC742D",
"-. c #DC7A2C",
";. c #D5752A",
":. c #C86837",
">. c #C9753B",
",. c #DD7533",
"<. c #DC7A32",
"1. c #DB753C",
"2. c #D5793B",
"3. c #DA793C",
"4. c #D57735",
"5. c #C96A2F",
"6. c #E46E29",
"7. c #E47323",
"8. c #EB7525",
"9. c #E27825",
"0. c #E4742B",
"q. c #E6772B",
"w. c #E17433",
"e. c #E57835",
"r. c #E2741E",
"t. c #8E3F43",
"y. c #8B4443",
"u. c #844C4C",
"i. c #8B4B4C",
"p. c #8A4648",
"a. c #924A43",
"s. c #954646",
"d. c #875546",
"f. c #875449",
"g. c #8B4C55",
"h. c #974A56",
"j. c #895456",
"k. c #9A594B",
"l. c #986246",
"z. c #976853",
"x. c #A66346",
"c. c #A76956",
"v. c #AF7454",
"b. c #AC765E",
"n. c #B37354",
"m. c #B27259",
"M. c #BB795A",
"N. c #B46D4C",
"B. c #B97960",
"V. c #AF7266",
"C. c #976255",
"Z. c #CB7743",
"A. c #CE7B4C",
"S. c #D47C42",
"D. c #DB7E44",
"F. c #D47D4D",
"G. c #DB7A4B",
"H. c #D77544",
"J. c #CC7D54",
"K. c #D37C54",
"L. c #CE6F49",
"P. c #E17C43",
"I. c #DC8335",
"U. c #DB823A",
"Y. c #DA8639",
"T. c #CF8337",
"R. c #E18939",
"E. c #E4943E",
"W. c #B68757",
"Q. c #9B8179",
"!. c #B98466",
"~. c #D88848",
"^. c #DE954A",
"/. c #D78A54",
"(. c #D99355",
"). c #CD8654",
"_. c #EB9C43",
"`. c #E69647",
"'. c #E9964C",
"]. c #DEB45D",
"[. c #EDA149",
"{. c #F8AA4A",
"}. c #EEB14E",
"|. c #E3AE55",
" X c #ECAD54",
".X c #E8AD59",
"XX c #F3AE54",
"oX c #FBAB57",
"OX c #E3B254",
"+X c #ECB254",
"@X c #EAB35C",
"#X c #E3B35B",
"$X c #F2B154",
"%X c #F3B35B",
"&X c #DA9A6A",
"*X c #C68263",
"=X c #DCAD68",
"-X c #DCB26B",
";X c #DDB264",
":X c #DDAB70",
">X c #FAAF62",
",X c #EDB464",
"<X c #E8B369",
"1X c #F4B466",
"2X c #E7A871",
"3X c #F8B977",
"4X c #ECB169",
"5X c #FBCC6D",
"6X c #FFC16D",
"7X c #FAD36F",
"8X c #F3D96C",
"9X c #FECC73",
"0X c #FECC7C",
"qX c #F9CC75",
"wX c #F5D574",
"eX c #FCD474",
"rX c #F6D47C",
"tX c #FDD57C",
"yX c #F6D976",
"uX c #EED47D",
"iX c #867D84",
"pX c #EAB488",
"aX c #EABA8E",
"sX c #D2B7A3",
"dX c #F9CB87",
"fX c #ECD883",
"gX c #F4D483",
"hX c #FAD483",
"jX c #FFD28E",
"kX c #EFD99D",
"lX c #FCD595",
"zX c #F4C293",
"xX c #F9DDAD",
"cX c #FBE6AA",
"vX c #FFE6B6",
"bX c #FFE7B9",
"nX c #FDE9BA",
"mX c #FFF0BE",
"MX c #EDE7B3",
"NX c #FDE9C4",
"BX c #FFFFD7",
"VX c #FFF5D0",
"CX c #FEEECF",
/* pixels */
"                    H v l l l l k m X                       ",
"                    y - 8 5 5 5 4 f O                       ",
"                    G a y i a z a z O                       ",
"                    k # # # # # # w X                       ",
"                    U V S V V V S V b Q.                    ",
"          P o o X : B.J.F.F.A.A.J.J.).l.+ o O o             ",
"          Q % z 7 N A.=.=.0.*.*.,.4.3. .: G G %             ",
"          Q * G 4 N >.e.9.9.r.7.q.e.R. .+ u F %             ",
"          ~ * u 5 n O.%.#.#.#.&.-.&.4.O.$ u g o             ",
"          ~ & D & H sXaXpXpX2X^.`.`.'.M.# D D o             ",
"          ~ & D * E BXBXBXBXvX2X>X>X1XW.# D h o             ",
"          Q & D * E BXBXBXBXnX:X,X.X4X!.# D h .             ",
"          Q % z - E BXBXBXBXbX:X,X.X,XW.@ f l .             ",
"          ! X ; $ M BXBXBXBXcX-X,X@X1XW.@ : : +             ",
"          z.l.l.l.b.MXMXMXcXlX;X@X X1X(.} l.x.l.Q.          ",
"iX. . X + b.).3.2.~.hXfXfXfXqXOX X X%X'.2.P.P.).A X X . .   ",
"  . c c b n.4.7.r.R.eXyXwXwX5X+XXXXXXX_.$.6.6.H.} 3 l c .   ",
"  . j 7 1 m.3.7.*.R.9XwXwXeX5X XXXXXXX'.=.6.0.S.d.+ 7 l .   ",
"  o h 9 2 V.F.1.1.~.0XtX9X9X5XXXoXoX>X'.1.1.1.K.Y # q l .   ",
"  o h 8 s j. ...| | ^.`.^.E.R.R.R.Y.~.S. . ...x.L = y k X   ",
"  o h r e T ' { ` ` >.%.%.&.&.&.;.;.4.:.( / { p.K 4 y k X   ",
"  . h 0 e T u.y.[ ` 2.<.-.0.7.0.0.=.w.:.{ y.[ i.K 4 u z X   ",
"  . h 0 s T u.' { ` >.;.;.=.*.7.7.$.,.:.{ [ [ i.K 4 u z X   ",
"  o h 0 < u.{ ` ` X.~.T.4.<.-.-.-.;.<.5.` ` ` [ L 4 y k X   ",
"  o h 0 1 c.L.:.>.~.3X0X9X9X6XoXoXoXoX~.Z.L.H.J.Y < y k X   ",
"  o h 0 > m.H.e.,.U.0X9XeXtX9X|.XXXX$X'.;.0.=.F.f.# y k X   ",
"  o h 0 > m.3.q.6.I.tXtXrXtX9X|.@X X$X[.*.7.7.D.d.# y k X   ",
"  o h 0 ; v.2.0.*.I.hXgXgXhXqX|.@X X$X[.*.7.7.D.d.# y k X   ",
"  o h 7 ; v.2.9.*.Y.lXkXkXlXdX#X@X+X$X[.*.7.7.D.d.# y k X   ",
"  o h 0 ; v.4.9.*.~.mXBXBXBXcX;X@X+X$X_.*.7.7.D.d.# y k X   ",
"  . h w ; v.<.9.*.~.VXBXBXBXvX-X@X+X$X_.*.7.7.D.d.# y k X   ",
"  . z 9 ; m.3.8.*.^.VXBXBXBXbX-X@X+X$X_.*.7.7.D.d.# y k X   ",
"  X z 9 ; m.1.8.*.(.BXBXBXBXbX-X@X+X$X_.*.7.7.D.d.# y k X   ",
"  X z 9 > m.3.0.*.~.BXBXBXBXvX-X@X+X$X_.*.7.7.D.d.# y k X   ",
"  X z 9 > m.3.0.*./.BXBXBXBXvX-X@X+X$X_.*.7.7.D.d.# y k X   ",
"  X z 9 > m.3.q.&./.BXBXBXBXvX-X@X+X$X_.*.7.7.D.d.# y k X   ",
"  X z 9 > m.3.q.$./.BXBXBXBXvX-X@X+X$X_.*.7.7.D.d.# y k X   ",
"  X z 9 ; m.3.q.$./.BXBXBXBXvX-X@X+X$X_.*.7.7.D.d.# y k X   ",
"  o F 9 > n.1.8.0.~.xXNXNXbXcX;X@X}.$X_.*.7.7.D.d.# y k X   ",
"  o F 9 > n.,.8.0.U.dXfXuXuXgX].+X}.$X_.*.7.7.D.d.# y k X   ",
"  o F 9 , n.,.8.0.I.eXyX8X8XyXOX+X}.$X_.@.7.7.D.d.# y k X   ",
"  o F 9 , n.,.8.0.I.eXwX8X8XeXOX+X}.$X_.@.7.7.D.d.# y k X   ",
"  o F 9 , n.,.8.0.I.0XfXfXuXrXOX+X}.$X_.*.7.7.D.d.# y k X   ",
"  o F 9 , n.1.q.=.~.xXNXNXmXcX<X@X+X$X_.*.7.7.D.d.# y k X   ",
"  o F 9 ; n.3.0.=.(.NXBXBXBXvX=X@X$X$X_.*.7.7.D.d.# y k X   ",
"  o F 9 ; n.2.0.-.(.CXBXBXBXnX:X@XXXXX_.@.7.7.D.d.# y k X   ",
"  o F 9 ; v.2.0.-.(.CXBXBXBXnX:X@XXX$X_.@.7.7.D.d.+ q k X   ",
"  o F 9 ; n.<.0.=.(.NXBXBXBXvX=X@X$X$X_.*.7.7.D.d.+ q k X   ",
"  o F 9 > n.1.q.=.~.lXxXcXkXlX;X@X+X$X_.*.7.7.D.d.# y k X   ",
"  o F 9 > n.H.e.=.U.0XgXgXrXqXOX@X+X$X_.*.7.7.G.d.+ p k X   ",
"  o F 9 > n.H.e.=.I.9XeXeXeX5XOX+X+X+X_.*.0.0.G.d.+ p k X   ",
"  o F 9 , n.H.e.;.I.9X7X7X7X5XOX+X+X+X_.*.0.6.G.f.+ y k X   ",
"  o F 9 ; b.K.H.2.~.9XyXwX7X5XOX+X+X+X`.4.1.1.K.f.+ y z X   ",
"  o F r 2 Y [ X.`  .dXrXyXeX7XOX+X+X+X^.+.X.{ a.M < q z X   ",
"  o F r s Y s.s.' o.dXrXyXeX7XOX+X+X%X(.^ s./ i.M < 8 z X   ",
"  o F r s Y i.a.] o.dXrXyXeX7XOX@X+X@X(.^ s.t.i.J w g G X   ",
"  X - O $ T u.i.] l.dXhXhXtX0X#X,X,X,X(.] h.i.j.m O - 4 X   ",
"  P Q W W P U T Y j.aXzXaXpXpX:X2X&X&X!.C T T U I Q W W P   ",
"          ! # e < 2 A _ _ _ _ _ _ ) ) B : e m #             ",
"          Q & i 8 e u.a.a.[ [ a.' ' ] C < i z O             ",
"          ~ * g r x u.a.s.s.s.s.a.a.y.L = r f O             ",
"          Q O a = s C B B ^ ^ / / / B V $ 4 k O             ",
"          R n J m V !.*X*XM.M.M.n.n.n.c.n M M <             ",
"iXX X X + U g.g.p.C.zXjXjXjXdX4X4X3X3X&X] g.g.j.d X X X X   ",
"  X c x d T i.s.y.k.zXhXtXtX9X|.|..X1X).^ h.t.g.J e l H X   ",
"  X k 7 e T g.p.y.l.dXtXtXeX5X|.|..X1X)./ h.p.g.L 6 q k X   ",
"  X j 0 2 Y ' ' ]  .dXeXtXeX5X$X X%X>X/.( t./ p.J = q k X   ",
"  o j 9 2 C.x.O...5.oX{.{.{.{._.E.`.[.3.| ....x.U - q k X   ",
"  o h 9 > V.K.3.1.<.@.@.@.@.@.@.&.*.*.$.e.e.e.K.f.# q k X   ",
"  o h 9 1 n.S.-.0.0.9.9.9.9.9.0.0.0.0.q.q.q.q.F.Y # q z X   ",
"  o D 9 1 m.S.<.<.<.<.=.,.;.,.,.,.,.w.w.w.w.w.F.u.- 9 z X   ",
"  O D r 1 V.).Z.Z.Z.Z.Z.~.F.F.F.F.F.G.G.G.G.G.*XT = q k X   ",
"  O D r s L A ) ) ) ) Z Z Z Z Z ) ) ) ) ) ^ ^ ] m 6 q k X   ",
"  % u r i = + + + + + + + + + + + + + + + + + # 6 8 i g X   ",
"  O h r u u u u u u u u u u u u u u u u u u u t r i g z o   ",
"  o j f f f f f f f f f f f f f f f f f f f f i t t j z .   ",
"  o % % O O O O O O O O O O O O O O O O O O O O O o o o X   ",
"                                                            "
};
