/* XPM */
static char *_4a16d9571714ff9c130b35108964561Wq2vfI4KiAWc8sD3[] = {
/* columns rows colors chars-per-pixel */
"53 35 124 2 ",
"   c None",
".  c #000000",
"X  c #080707",
"o  c #0D0C0C",
"O  c #100F0E",
"+  c #121110",
"@  c #171817",
"#  c #1C1C1A",
"$  c #242322",
"%  c #282726",
"&  c #292927",
"*  c #2B2B29",
"=  c #302F2E",
"-  c #353432",
";  c #383634",
":  c #3A3837",
">  c #3E3C3B",
",  c #423F3C",
"<  c #454442",
"1  c #494743",
"2  c #4B4945",
"3  c #4E4C49",
"4  c #514E4B",
"5  c #53514E",
"6  c #565451",
"7  c #595653",
"8  c #5B5956",
"9  c #5E5D5A",
"0  c #605F5D",
"q  c #63615E",
"w  c #656461",
"e  c #686764",
"r  c #6C6966",
"t  c #6C6A67",
"y  c #6D6A67",
"u  c #6D6B67",
"i  c #6E6B67",
"p  c #6A6966",
"a  c #6B6A68",
"s  c #6C6A68",
"d  c #6C6B68",
"f  c #6D6B69",
"g  c #6E6B68",
"h  c #6D6C6A",
"j  c #6D6C6B",
"k  c #6F6D6A",
"l  c #6E6D6B",
"z  c #6F6D6B",
"x  c #6F6E6C",
"c  c #6F6E6D",
"v  c #6F6F6D",
"b  c #6E6D6B",
"n  c #706E6A",
"m  c #716E6A",
"M  c #706E6B",
"N  c #706F6D",
"B  c #716F6D",
"V  c #706F6C",
"C  c #72706D",
"Z  c #71706E",
"A  c #72716E",
"S  c #73716E",
"D  c #72706F",
"F  c #73726F",
"G  c #74726D",
"H  c #74726E",
"J  c #737270",
"K  c #757370",
"L  c #747371",
"P  c #767370",
"I  c #767471",
"U  c #777471",
"Y  c #757472",
"T  c #767572",
"R  c #767573",
"E  c #777673",
"W  c #767574",
"Q  c #787672",
"!  c #797773",
"~  c #787774",
"^  c #797775",
"/  c #797875",
"(  c #7A7875",
")  c #7B7975",
"_  c #7A7876",
"`  c #7B7977",
"'  c #7B7A76",
"]  c #7B7A77",
"[  c #7C7976",
"{  c #7C7977",
"}  c #7C7A77",
"|  c #7C7A78",
" . c #7D7B78",
".. c #7C7B79",
"X. c #7D7B79",
"o. c #7C7B7A",
"O. c #7D7C7A",
"+. c #7E7D7B",
"@. c #7F7E7C",
"#. c #7C7A78",
"$. c #807E7A",
"%. c #807F7D",
"&. c #81807D",
"*. c #81807E",
"=. c #82807E",
"-. c #82817E",
";. c #82817F",
":. c #838280",
">. c #858280",
",. c #848281",
"<. c #858480",
"1. c #858481",
"2. c #868582",
"3. c #868583",
"4. c #878583",
"5. c #888684",
"6. c #888784",
"7. c #898784",
"8. c #8A8885",
"9. c #898886",
"0. c #8A8986",
"q. c #8A8987",
"w. c #8B8987",
"e. c #8B8A87",
/* pixels */
"                                                                                      1 5                 ",
"  < -                                                                 w x x x x x x a g x z p             ",
"e *.*.:.:.:.:.:.:.:.:.:.:.:.:.:.:.:.:.:.:.:.:.:.:.:.:.:.:.:.:.:.:.*.p >.w.w.w.w.+.z T ~ ] *.*.6           ",
"z w.w.w.w.w.w.w.w.w.w.w.w.w.w.w.w.w.w.w.w.w.w.w.w.w.w.w.w.w.w.w.w.w.z | C C C C p 0 u g w w a w N | z     ",
"p <.<.<.<.<.<.<.<.<.<.<.<.<.<.<.<.<.<.<.<.<.<.<.<.<.<.<.<.<.<.<.<.*.x W w w p 0 p q M C p w w p [ ~       ",
"w $.$.$.$.$.$.$.$.$.$.$.$.$.$.$.$.$.$.$.$.$.$.$.$.$.$.$.$.$.$.$.$.C | ] z w z w 0 5 8 q q 9 p u M         ",
"9 ! ! ! ! C z M M M M M M M M M M M M M M M M M M M M M M M M M M g <.%.N w e w q 0 w w w w a a 9         ",
"  u G G G p T ] ] ] ] ] ] ] ] ] ] ] ] ] ] ] ] ] ] ] ] ] ] ] ] ] ] +.<.+.w 0 9 9 0 9 9 w q w e w >         ",
"  q u u g w T [ [ [ [ [ [ [ [ [ [ [ [ [ [ [ [ [ [ [ [ [ [ [ [ [ [ ] ] G 8 6 6 8 6 8 8 8 8 7 8 q =         ",
"  5 q w q 9 e u u u u u u u u u u u u u u u u u u u u u u u u u u u u w 3 4 2 5 3 4 3 2 3 1 2 8 ;         ",
"    , 4 5 3 5 5 6 6 6 6 7 7 7 7 7 7 7 7 8 8 8 8 8 6 7 9 7 8 8 8 8 8 8 8 3 5 3 5 4 4 3 < 1 4 5 9 9         ",
"      1 5 4 3 3 4 4 4 4 5 5 5 5 6 6 6 7 7 8 8 9 q 9 0 u p C G P T T T z P ] ] | | | 9 $ < ] *.>.<.J z p   ",
"            . . . . . . . . . . . . . . . . . .   2 6 q u q 8 8 9 6 3 6 C ] ] [ [ ] 2 X ; ] 5.w.w.5.*.| 9 ",
"            . . . . . . . . . . . . . . . . .       q p             . o 8 6 > > > > @ . & T 5.5.@.p       ",
"                                                    4 7             . . 5 3 X . . . . . $ T <.]           ",
"                                                    : 1             .   3 5 X . . . . . # P %.            ",
"                                                    : 1           . .   3 9 + . . . . . @ g C             ",
"                                                    : 1           .     9 e > X . . . . O 8 e             ",
"                                                    : 1         . .     8 q 3 X . . . . . % -             ",
"                                                    > 3                 3 w % . . . . . . . .             ",
"                                                      8 6 7 8 8 8 8 8 8 1 7 @ . . . . . . . .             ",
"                                                                          5 $ . . . . . . . .             ",
"                                                                          5 * . . . . . . . .             ",
"                                                                          6 - . . . . . . . . .           ",
"                                                                          8 : . . . . . . . . .           ",
"                                                                          8 : . . . . . . . . .           ",
"                                                                          8 > . . . . . . . . .           ",
"                                                                          8 > . . . . . . . . . .         ",
"                                                                          6 < X . . . . . . . . .         ",
"                                                                          9 4 X . . . . . . . . .         ",
"                                                                          q 8 X . . . . . . . . .         ",
"                                                                          w q o . . . . . . . . .         ",
"                                                                          N w o . . . . . . . . .         ",
"                                                                          | z 1 < < < < 1 1 < % .         ",
"                                                                          9 q 9 9 9 0 0 q q 9             "
};
