/* XPM */
static char *da2cadbe8f43455cd82140cfd94ab117U5wtmwhjhp5lcb8o[] = {
/* columns rows colors chars-per-pixel */
"99 65 142 2 ",
"   c None",
".  c #000000",
"X  c #080705",
"o  c #0C0C0B",
"O  c #151412",
"+  c #181716",
"@  c #191816",
"#  c #1C1B1A",
"$  c #201F1E",
"%  c #22211F",
"&  c #242322",
"*  c #292727",
"=  c #2C2A27",
"-  c #2D2C2A",
";  c #302E2D",
":  c #31302F",
">  c #333231",
",  c #383634",
"<  c #3A3937",
"1  c #3D3C3A",
"2  c #403E3C",
"3  c #42413E",
"4  c #454441",
"5  c #494644",
"6  c #4C4946",
"7  c #4E4C49",
"8  c #514E4B",
"9  c #53514E",
"0  c #565451",
"q  c #595653",
"w  c #5B5956",
"e  c #5D5C5A",
"r  c #605F5B",
"t  c #63605E",
"y  c #656461",
"u  c #686663",
"i  c #6B6966",
"p  c #6E6D69",
"a  c #716F6C",
"s  c #72706E",
"d  c #72716F",
"f  c #72706D",
"g  c #74726F",
"h  c #75736F",
"j  c #76736F",
"k  c #72716D",
"l  c #737270",
"z  c #737271",
"x  c #757270",
"c  c #747370",
"v  c #757471",
"b  c #777471",
"n  c #757472",
"m  c #757473",
"M  c #767472",
"N  c #767572",
"B  c #767573",
"V  c #777673",
"C  c #777674",
"Z  c #777775",
"A  c #767470",
"S  c #787672",
"D  c #787673",
"F  c #787674",
"G  c #787774",
"H  c #797774",
"J  c #787775",
"K  c #797775",
"L  c #787776",
"P  c #787774",
"I  c #7A7874",
"U  c #7A7875",
"Y  c #7B7975",
"T  c #797876",
"R  c #7A7876",
"E  c #7A7977",
"W  c #7B7977",
"Q  c #7B7A77",
"!  c #7C7A77",
"~  c #7B7976",
"^  c #7B7A78",
"/  c #7C7A78",
"(  c #7D7B78",
")  c #7C7B79",
"_  c #7D7B79",
"`  c #7E7B79",
"'  c #7E7C79",
"]  c #7E7D79",
"[  c #7F7D79",
"{  c #7D7C7A",
"}  c #7E7D7A",
"|  c #7E7D7B",
" . c #7E7C79",
".. c #807E7B",
"X. c #817F7C",
"o. c #807F7D",
"O. c #817F7D",
"+. c #817F7E",
"@. c #807F7C",
"#. c #82807D",
"$. c #81807E",
"%. c #83817E",
"&. c #82817F",
"*. c #83827F",
"=. c #84827F",
"-. c #83817E",
";. c #838280",
":. c #838281",
">. c #848280",
",. c #848380",
"<. c #848381",
"1. c #858381",
"2. c #868381",
"3. c #848382",
"4. c #858480",
"5. c #848481",
"6. c #868481",
"7. c #858482",
"8. c #858483",
"9. c #868582",
"0. c #868583",
"q. c #878583",
"w. c #878683",
"e. c #878684",
"r. c #878784",
"t. c #868482",
"y. c #888683",
"u. c #888684",
"i. c #888784",
"p. c #888785",
"a. c #888784",
"s. c #898885",
"d. c #898886",
"f. c #8A8886",
"g. c #8A8987",
"h. c #8B8987",
"j. c #8B8A87",
"k. c #8A8986",
"l. c #8B8A88",
"z. c #8C8B89",
"x. c #8D8C8A",
"c. c #8C8B88",
/* pixels */
"                                                                                                                                                                  < 7 1                               ",
"    %                                                                                                                                                           3 r S t                               ",
"    q w >                                                                                                                           > > > > > > > > > > > > > - < 4 7 4 : > :                         ",
"  - 3 5 , > > > > > > > > > > > > > > > > > > > > > > > > > > > > > > > > > > > > > > > > > > > > > > > > > > > > > > > > > > ; - q #.q.q.q.q.q.q.q.q.q.<.<.<.<.;.<.<.<.<.q.#.p                       ",
"  o.;.;.;.<.<.<.<.<.<.<.<.<.<.<.<.<.<.<.<.<.<.<.<.<.<.<.<.<.<.<.<.<.<.<.<.<.<.<.<.<.<.<.<.<.<.<.<.<.<.<.<.<.<.<.<.<.<.<.<.<.<.o.t ( l.x.x.x.x.x.x.x.x.d.s p G Y Y ^ Y ( q.x.x.C .                     ",
"  d.x.x.x.x.x.x.x.x.x.x.x.x.x.x.x.x.x.x.x.x.x.x.x.x.x.x.x.x.x.x.x.x.x.x.x.x.x.x.x.x.x.x.x.x.x.x.x.x.x.x.x.x.x.x.x.x.x.x.x.x.x.r.e r.;.i.<.q.q.q.q.;.r.i e q e y u i p p p a <.Y 5 8 >                 ",
"  q.d.d.d.d.d.d.d.d.d.d.d.d.d.d.d.d.d.d.d.d.d.d.d.d.d.d.d.d.d.d.d.d.d.d.d.d.d.d.d.d.d.d.d.d.d.d.d.d.d.d.d.d.d.d.d.d.d.d.d.d.d.q.r r.a p i u i i a p i u i e y a c a e t i q y p w h G [ q.q.[ 9       ",
"  =.y.i.i.i.i.i.i.i.i.i.i.i.i.i.i.i.i.i.i.i.i.y.i.i.i.i.i.i.i.i.i.i.i.i.i.i.i.i.i.i.i.i.i.i.i.i.i.i.i.i.i.i.i.i.i.i.i.i.i.i.i.#.e q.u t y y y t y y e p a t i h G i e t u y w y t S ..<.d.;.e         ",
"  o.q.=.q.q.q.q.q.q.q.q.q.q.q.q.q.q.q.q.q.q.=.=.q.=.=.=.q.q.q.q.q.q.q.q.q.q.q.q.q.q.q.q.q.q.q.q.q.=.=.=.q.q.q.q.q.q.q.q.q.q.#.N u r.i y t y i y p w e p p t i h G N i p a t t i i i ( o.G 0           ",
"  [ #.#.#.#.#.#.#.#.#.#.#.#.#.#.#.#.#.#.#.#.#.#.#.#.#.#.#.#.#.#.#.#.#.#.#.#.#.#.#.#.#.#.#.#.#.#.#.#.#.#.#.#.#.#.#.#.#.#.#.#.[ i N i.i u p e p w G e p e e 9 8 q w y i u e w t p N e Y c 7             ",
"  Y [ [ [ [ [ [ [ [ [ [ [ [ [ [ [ [ [ [ [ [ [ [ [ [ [ [ [ [ [ [ [ [ [ [ [ [ [ [ [ [ [ [ [ [ [ [ [ [ [ [ [ [ [ [ [ [ [ [ [ [ Y e q.d.s w N e ^ w N e a t 7 5 9 w e e e w e t y N Y q a 0               ",
"  S Y Y Y Y Y Y Y Y Y Y I I Y Y Y Y Y Y Y Y I I Y Y Y Y Y Y Y Y Y Y Y Y Y Y Y Y I I I I Y Y Y Y Y Y Y Y Y Y Y Y Y Y Y Y Y Y s q d.z.o.q G q N t p y y y w e y y y y t t t y y C ( q u                 ",
"  i N S S S S S S S t t u u u u u u u u u u u u u u u u u u u u u u u u u u u u u u u u u u u u u u u u u u u u u u u u u y y l l.z.i.e l t i t y u y y t y u y y t y u y u y p [ 9 w                 ",
"  9 a h h h h h h h w i G C C C C C C C C C C C C C C C C C C C N C C C C C C C N N C C C C C C C C C C C C C C C C C C C C Y q.d.d.q.t y y y r e r y y t e e y y y r y y u p y Y 9 <                 ",
"  , i f f f f f f f r N <.<.<.<.<.<.<.<.<.<.<.<.<.<.<.<.<.<.<.<.<.<.<.<.<.<.<.<.=.<.<.<.<.<.<.<.<.<.<.<.<.<.<.<.<.<.<.<.<.<.<.#.#.#.o.t w w w e e w w e e r w r w y t y y w u w s e O                 ",
"    y p p p p p p p w p ( ! ! ! ! ! ! ! ! ! ! ! ! ! ! ! ! ! ! ! ! ! ! ! ! ! ! ! ! ! ! ! ! ! ! ! ! ! ! ! ! ! ! ! ! ! ! ! ! ! ! ! ! ! Y e w 0 0 0 0 w 0 w 9 r 0 t q e e w t 0 e 9 y y .                 ",
"    8 u i i i i i i 0 u N N N j j j N N N N N N N N N N N N j j N N N j N N N N N N N N N N N N N N N N N N N N N N N N N N N N N N s 0 8 9 9 0 7 q 7 r 7 e 8 w q 0 0 8 0 8 0 8 e y o                 ",
"    > t u u u u u u 9 t a a p p p p p p p p p p p p p p p p p p p p p p p p p p p p p p p p p p p p p p p p p p p p p p p p p p p p i 9 5 8 5 q 4 w 4 w 6 0 7 7 7 6 8 7 6 5 5 6 w r &                 ",
"      9 9 e r r r r 5 q t t t t t t t t t t t t t t t t t t t t t t t t t t t t t t t t t t t t t t t t t t t t t t t t t t t t t t r 8 1 8 , 9 < 9 2 5 2 3 4 3 3 2 2 3 3 3 2 2 7 9 %                 ",
"        O 3 6 6 6 6 1 4 7 6 6 6 7 7 7 7 6 7 7 7 7 7 7 7 8 8 8 8 8 8 8 8 8 8 8 8 8 8 8 8 8 8 8 7 7 8 9 0 8 6 9 8 8 9 9 9 9 9 9 9 9 9 9 5 1 7 3 6 1 4 4 4 4 3 3 4 5 5 5 4 4 5 5 4 5 w q                 ",
"          = 5 6 7 8 8 8 8 8 8 8 9 9 9 9 9 9 9 9 9 0 0 0 0 0 q q q q q q w w w w w w w e e e e 9 9 w t i e 7 r r r r t t t t t t y t e r y y y y u u u u i i i q 4 4 4 0 u p p p a ( #.e               ",
"          - 8 0 q q 9 9 9 9 9 9 9 9 0 0 q q q q q q q w w w w w w w w e e e e e e e r t y y i t e y i s a i Y Y Y ! ! ! ( ( ( [ [ [ p s [ o.o.o.#.#.#.#.=.=.q.w . . . 7 ! i.i.i.i.d.d.<.p y i u y     ",
"                    X . . . . . . . . . . . . . . . . . . . . . . . . . . . . . . . . X O   4 9 4 5 5 8 i h s i i i i i p p p i i p y h [ o.o.o.#.#.#.#.=.=.( 7 . . . 4 N r.i.i.i.d.d.d.d.z.z.d.i.i   ",
"                      . . . . . . . . . . . . . . . . . . . . . . . . . . . . . . . . .       3 8 e y a h i q , @ # # # # # + o O = 1 t Y [ Y Y Y ( ( ( ( [ y - . . . > p i.i.i.i.d.d.d.d.#.o.| [ N   ",
"                      . . . . . . . . . . . . . . . . . . . . . . . . . . . . . . . . .         4 y S h r ,                   . . . . # i p e w w e e e e e < . . . . - i i.i.i.i.d.d.;.Y y e q 7 ,   ",
"                      . . . . . . .   . . . .   . . .   . . .   . . .   . . .   . . .             w s y 1                     . . . .   w 0 & . . . . . . . . . . . . O t i.i.i.i.y.( y               ",
"                                                                                                  5 r e                       . . .     9 r * . . . . . . . . . . . . X e i.i.i.q.N 7                 ",
"                                                                                                  , 4 8                       . . .     9 t = . . . . . . . . . . . . . e i.i.q.c 4                   ",
"                                                                                                    2 7                       . . .     9 y = . . . . . . . . . . . . . e i.i.G 7                     ",
"                                                                                                    2 7                       . . .     3 i ; . . . . . . . . . . . . . w i.#.p                       ",
"                                                                                                    2 7                     . . .       4 N , . . . . . . . . . . . . . 0 #.N 7                       ",
"                                                                                                  ; 2 7                     . . .       8 N 2 O X . . . . . . . . . . . 5 Y N                         ",
"                                                                                                    2 7                     . .       3 p p p 9 # . . . . . . . . . . . 1 s c                         ",
"                                                                                                    2 7                   . . .       0 w p e i > . . . . . . . . . . . * w t                         ",
"                                                                                                    2 7                 . . .         e e w r u > . . . . . . . . . . . X # $                         ",
"                                                                                                    2 7                               , w N i 1 o . . . . . . . . . . . . . .                         ",
"                                                                                                    3 8                                 : s 5 O . . . . . . . . . . . . . . .                         ",
"                                                                                                    0 r :   - - - - -       - - - ; > 4 5 u 1 o . . . . . . . . . . . . . . . .                       ",
"                                                                                                    5 r e e e e r r r r r t t t t t t 8 < y 7 # . . . . . . . . . . . . . . . .                       ",
"                                                                                                                                          e 7 # . . . . . . . . . . . . . . . .                       ",
"                                                                                                                                          0 9 & . . . . . . . . . . . . . . . .                       ",
"                                                                                                                                          0 e = . . . . . . . . . . . . . . . .                       ",
"                                                                                                                                          5 t - . . . . . . . . . . . . . . . . .                     ",
"                                                                                                                                          4 p , . . . . . . . . . . . . . . . . .                     ",
"                                                                                                                                          5 N < . . . . . . . . . . . . . . . . .                     ",
"                                                                                                                                          < N < . . . . . . . . . . . . . . . . . .                   ",
"                                                                                                                                          : N < . . . . . . . . . . . . . . . . . .                   ",
"                                                                                                                                          > G < . . . . . . . . . . . . . . . . . .                   ",
"                                                                                                                                          = G 1 . . . . . . . . . . . . . . . . . .                   ",
"                                                                                                                                            Y 4 X . . . . . . . . . . . . . . . . .                   ",
"                                                                                                                                            N 4 o . . . . . . . . . . . . . . . . . .                 ",
"                                                                                                                                            p 5 + . . . . . . . . . . . . . . . . . .                 ",
"                                                                                                                                            y 9 $ . . . . . . . . . . . . . . . . . .                 ",
"                                                                                                                                            i 0 & . . . . . . . . . . . . . . . . . .                 ",
"                                                                                                                                            s t = . . . . . . . . . . . . . . . . . .                 ",
"                                                                                                                                            Y p ; . . . . . . . . . . . . . . . . . . .               ",
"                                                                                                                                            Y s > . . . . . . . . . . . . . . . . . . .               ",
"                                                                                                                                          , Y ( 1 . . . . . . . . . . . . . . . . . . .               ",
"                                                                                                                                          3 Y o.1 . . . . . . . . . . . . . . . . . . .               ",
"                                                                                                                                          7 Y o.1 . . . . . . . . . . . . . . . . . . .               ",
"                                                                                                                                          t ( o.1 . . . . . . . . . . . . . . . . . . .               ",
"                                                                                                                                          c [ o.4 o o o o o o o o o o o o o o o X . .                 ",
"                                                                                                                                        - Y o.o.r 4 1 2 2 2 3 3 3 3 3 3 4 4 4 1 & .                   ",
"                                                                                                                                        - c ( ( Y Y Y Y ! ( ( [ [ [ [ [ [ | o.s 7                     ",
"                                                                                                                                          < 5 7 7 7 7 7 7 7 8 8 8 9 9 9 9 0 7 1                       "
};
