/* XPM */
static char *_41026c2be4c4f21cc1a4021cd173ebbdm0NcdpvQCEaI79m[] = {
/* columns rows colors chars-per-pixel */
"64 64 202 2 ",
"   c None",
".  c #49483F",
"X  c #504F3E",
"o  c #53523E",
"O  c #56553D",
"+  c #5C5A3C",
"@  c #65643B",
"#  c #797637",
"$  c #72703E",
"%  c gray25",
"&  c #434240",
"*  c #444442",
"=  c #494945",
"-  c #4A4A45",
";  c #4D4D47",
":  c #555347",
">  c #515048",
",  c #54544A",
"<  c #57574C",
"1  c #5D5C4E",
"2  c #5D5C4F",
"3  c #5E5D4F",
"4  c #6F6D41",
"5  c #636252",
"6  c #666554",
"7  c #686755",
"8  c #6A6950",
"9  c #6B6A53",
"0  c #6D6C58",
"q  c #6F6E59",
"w  c #706F57",
"e  c #75745D",
"r  c #76755C",
"t  c #78775E",
"y  c #7F7E5B",
"u  c #7C7B61",
"i  c #7F7E62",
"p  c #98953D",
"a  c #C7C300",
"s  c #C7C303",
"d  c #C8C300",
"f  c #C8C400",
"g  c #C8C401",
"h  c #C9C401",
"j  c #CAC501",
"k  c #CAC504",
"l  c #CBC604",
"z  c #CCC704",
"x  c #C8C409",
"c  c #CBC70D",
"v  c #CFCA0D",
"b  c #CCC80E",
"n  c #CEC90E",
"m  c #C8C412",
"M  c #C9C51C",
"N  c #CFCA18",
"B  c #CEC91A",
"V  c #D0CC19",
"C  c #F9F300",
"Z  c #F9F400",
"A  c #FAF400",
"S  c #FAF500",
"D  c #FBF500",
"F  c #FCF600",
"G  c #FDF700",
"H  c #FDF800",
"J  c #FEF800",
"K  c #FFF900",
"L  c #FFF90D",
"P  c #FFF91C",
"I  c #CBC625",
"U  c #D1CC26",
"Y  c #D2CE26",
"T  c #D5D029",
"R  c #CAC632",
"E  c #CBC736",
"W  c #CEC93F",
"Q  c #D2CD32",
"!  c #D4D035",
"~  c #D6D235",
"^  c #D8D437",
"/  c #FFF921",
"(  c #FFF926",
")  c #FFF92D",
"_  c #FFF931",
"`  c #FFF937",
"'  c #918F40",
"]  c #96934B",
"[  c #AAA74F",
"{  c #ACA84A",
"}  c #BDBA48",
"|  c #B0AE54",
" . c #B0AD5C",
".. c #BFBB52",
"X. c #828160",
"o. c #828064",
"O. c #8A8865",
"+. c #898768",
"@. c #908E62",
"#. c #959467",
"$. c #92906D",
"%. c #9A996C",
"&. c #9B9973",
"*. c #9F9D75",
"=. c #A19E67",
"-. c #A6A36E",
";. c #AFAD6D",
":. c #A4A277",
">. c #AAA772",
",. c #ABA873",
"<. c #ADAA75",
"1. c #A8A67A",
"2. c #B2AF70",
"3. c #B0AE7D",
"4. c #B6B374",
"5. c #BDBB71",
"6. c #B2B07E",
"7. c #BAB878",
"8. c #C1BE5B",
"9. c #C0BE75",
"0. c #C7C348",
"q. c #CBC74E",
"w. c #D5D141",
"e. c #D7D343",
"r. c #D9D544",
"t. c #D7D34D",
"y. c #D9D54F",
"u. c #DCD750",
"i. c #D6D25F",
"p. c #D8D458",
"a. c #DAD65A",
"s. c #DDD95B",
"d. c #F8F347",
"f. c #FFF940",
"g. c #FFF945",
"h. c #FFF947",
"j. c #FEF950",
"k. c #FEF951",
"l. c #FEF953",
"z. c #FEF95A",
"x. c #CDC96E",
"c. c #D3CF6C",
"v. c #D5D266",
"b. c #D9D561",
"n. c #DBD763",
"m. c #DDD965",
"M. c #D8D469",
"N. c #DAD66B",
"B. c #C6C270",
"V. c #C9C674",
"C. c #CFCB71",
"Z. c #CBC877",
"A. c #C5C179",
"S. c #D1CE74",
"D. c #D5D270",
"F. c #D4D077",
"G. c #D8D571",
"H. c #FCF767",
"J. c #FDF861",
"K. c #FCF866",
"L. c #FCF768",
"P. c #FBF66E",
"I. c #FBF670",
"U. c #FAF573",
"Y. c #FAF672",
"T. c #F7F37B",
"R. c #F7F37C",
"E. c #F7F27D",
"W. c #F5F17F",
"Q. c #F9F478",
"!. c #B7B580",
"~. c #B9B782",
"^. c #BAB882",
"/. c #BFBD85",
"(. c #C4C186",
"). c #C6C387",
"_. c #C8C587",
"`. c #CAC788",
"'. c #CBC889",
"]. c #D0CD8A",
"[. c #D4D18B",
"{. c #D5D28B",
"}. c #D5D28C",
"|. c #D9D68C",
" X c #DDDA8C",
".X c #DEDB8C",
"XX c #DEDB8D",
"oX c #E1DE8C",
"OX c #E2DF8C",
"+X c #E7E382",
"@X c #E5E18C",
"#X c #E8E48B",
"$X c #E9E58B",
"%X c #EAE68A",
"&X c #EBE88A",
"*X c #EDE988",
"=X c #EEEA88",
"-X c #F3EF83",
";X c #F1ED85",
":X c #F3EF84",
">X c #F0EC86",
",X c #F5F180",
/* pixels */
"                                                                                                                                ",
"                                                              % %                                                               ",
"                                                              % %                                                               ",
"                                                              % %                                                               ",
"                                                            % >.<.%                                                             ",
"                                                            % +Xm.%                                                             ",
"                                                            < d.b e %                                                           ",
"                                                          % `.C a F.%                                                           ",
"                                                          % E.Z a ^ *                                                           ",
"                                                        % +.P Z a a 7.%                                                         ",
"                                                        % oXK Z a a s.%                                                         ",
"                                                        * J.K Z a a z O.%                                                       ",
"                                                      % !.K K Z a a a G.%                                                       ",
"                                                      % >XK K Z a a a T >                                                       ",
"                                                      0 ` K K Z a a a a A.%                                                     ",
"                                                    % {.K K K Z a a a a u.%                                                     ",
"                                                    % U.K K K Z a a a a h %.%                                                   ",
"                                                  % &.K K K K Z a a a a a M.%                                                   ",
"                                                  % #XK K K K Z a a a a a V 2                                                   ",
"                                                  > l.K K K K Z a a a a a a Z.%                                                 ",
"                                                % (.K K K K K Z a a a a a a r.%                                                 ",
"                                                % ,XK K K K K Z a a a a a a h ,.%                                               ",
"                                                i ( K K K K K Z a a a a a a a b.%                                               ",
"                                              %  XK K K K K K Z a a a a a a a b w %                                             ",
"                                              % H.K K K K K K Z a a a a a a a a S.%                                             ",
"                                            % 3.K K K K K K K F a a a a a a a a ! *                                             ",
"                                            % =XK K K K K K K F a a a a a a a a a 4.%                                           ",
"                                            6 f.K K K K K K K F a a a a a a a a a p.%                                           ",
"                                          % ].K K K K K K K K F a a a a a a a a a k X.%                                         ",
"                                          % Q.K K K K K K K K F a a a a a a a a a a D.%                                         ",
"                                          $.L K K K K K K K K F a a a a a a a a a a U ;                                         ",
"                                        % @XK K K K K K K K K F a a a a a a a a a a a 9.%                                       ",
"                                        = z.K K K K K K K K K F a a a a a a a a a a a y.%                                       ",
"                                      % /.K K K K K K K K K K F a a a a a a a a a a a h #.%                                     ",
"                                      % -XK K K K K K K K K K F a a a a a a a a a a a a M.%                                     ",
"                                      t ) K K K K K K K K K K F a a a a a a a a a a a a N 2                                     ",
"                                    % |.K K K K K K K K K K K F a a a a a a a a a a a a a V.%                                   ",
"                                    % P.K K K K K K K K K K K F a a a a a a a a a a a a a e.%                                   ",
"                                    1.K K K K K K K K K K K K F a a a a a a a a a a a a a d -.%                                 ",
"                                  % &XK K K K K K K K K K K K F a a a a a a a a a a a a a a b.%                                 ",
"                                  2 g.K K K K K K K K K K K K K a a a a a a a a a a a a a a b 9                                 ",
"                                % '.K K K K K K K K K K K K K K a a a a a a a a a a a a a a a C.%                               ",
"                                % E.K K K K K K K K K K K K K K a a a a a a a a a a a a a a a ! %                               ",
"                                +.P K K K K K K K K K K K K K K a a a a a a a a a a a a a a a a 2.%                             ",
"                              % oXK K K K K K K K K K K K K K K a a a a a a a a a a a a a a a a p.%                             ",
"                              * J.K K K K K K K K K K K K K K K a a a a a a a a a a a a a a a a k y                             ",
"                              ~.K K K K K K K K K K K K K K K K a a a a a a a a a a a a a a a a a c.%                           ",
"                            % >XK K K K K K K K K K K K K K K K a a a a a a a a a a a a a a a a a U =                           ",
"                            0 ` K K K K K K K K K K K K K K K K a a a a a a a a a a a a a a a a a a 5.%                         ",
"                          % }.K K K K K K K K K K K K K K K K K a a a a a a a a a a a a a a a a a a t.%                         ",
"                          % U.K K K K K K K K K K K K K K K K K a a a a a a a a a a a a a a a a a a h @.                        ",
"                          *.K K K K K K K K K K K K K K K K K K a a a a a a a a a a a a a a a a a a a v.%                       ",
"                        % #XK K K K K K K K K K K K K K K K K L.x a a a a a a a a a a a a a a a a a a N :                       ",
"                        , l.K K K K K K K K K K K K K K _ >X^.* o  .W a a a a a a a a a a a a a a a a a B.%                     ",
"                      % (.K K K K K K K K K K K K K L. Xe % %     % % 4 8.I a a a a a a a a a a a a a a e.%                     ",
"                      % E.K K K K K K K K K K f.=X6.% %                 % . ] q.x a a a a a a a a a a a a =.%                   ",
"                      o./ K K K K K K K K U.{.7 % %                           % + | E a a a a a a a a a a i.%                   ",
"                    %  XK K K K K K g.=X:.% % %                                   % % $ ..M a a a a a a a c 9                   ",
"                    % K.K K K K U.{.5 % %                                               % X ' 0.a a a a a a x.%                 ",
"                    6.K K l.#X*.% % %                                                       % % @ { R a a a Q %                 ",
"                  % =XT._., % %                                                                   % % # } m a ;.%               ",
"                  % u % % %                                                                             % O p [ %               ",
"                % % %                                                                                       % % %               ",
"                                                                                                                  %             "
};
