/* XPM */
static char *c6b3899588d34feba44590b60b740b44YPhNMdBAi4pJ4W87[] = {
/* columns rows colors chars-per-pixel */
"27 35 170 2 ",
"   c None",
".  c #030102",
"X  c #0A0504",
"o  c #0F0A07",
"O  c #120000",
"+  c #1A0202",
"@  c #130D0A",
"#  c #1D1612",
"$  c #240202",
"%  c #2A0102",
"&  c #2E0808",
"*  c #360102",
"=  c #221712",
"-  c #291E19",
";  c #3A2F08",
":  c #3C300C",
">  c #2C211B",
",  c #32241E",
"<  c #39281F",
"1  c #3A2B23",
"2  c #362821",
"3  c #3E3029",
"4  c #450101",
"5  c #4B0000",
"6  c #540201",
"7  c #5C0203",
"8  c #630000",
"9  c #6D0000",
"0  c #760000",
"q  c #7A0000",
"w  c #44360B",
"e  c #4C3D0D",
"r  c #4B251E",
"t  c #412F26",
"y  c #463027",
"u  c #443229",
"i  c #49362C",
"p  c #4D392E",
"a  c #4E3B30",
"s  c #543E33",
"d  c #53430E",
"f  c #5B4A0F",
"g  c #5C4B10",
"h  c #604E11",
"j  c #655312",
"k  c #695613",
"l  c #6D5A14",
"z  c #725E15",
"x  c #756216",
"c  c #796317",
"v  c #7E6A18",
"b  c #7B6818",
"n  c #5E4C2C",
"m  c #5A4236",
"M  c #5D4539",
"N  c #564034",
"B  c #634E25",
"V  c #67522C",
"C  c #6B532F",
"Z  c #644A3D",
"A  c #694D3F",
"S  c #655333",
"D  c #6B5432",
"F  c #6E533E",
"G  c #62543B",
"H  c #765C39",
"J  c #7F6A21",
"K  c #7D633E",
"L  c #654E42",
"P  c #6A4F41",
"I  c #6E5243",
"U  c #6D5D40",
"Y  c #725545",
"T  c #765748",
"R  c #775848",
"E  c #7B5C4B",
"W  c #785A45",
"Q  c #860000",
"!  c #8C0000",
"~  c #940000",
"^  c #9C0000",
"/  c #A40000",
"(  c #AC0000",
")  c #B30000",
"_  c #BB0000",
"`  c #C10000",
"'  c #CB0000",
"]  c #D90000",
"[  c #826D19",
"{  c #86701A",
"}  c #8D751C",
"|  c #8E781C",
" . c #947A1E",
".. c #987A1E",
"X. c #846D25",
"o. c #997C21",
"O. c #967D25",
"+. c #805F4D",
"@. c #826446",
"#. c #82614E",
"$. c #866849",
"%. c #866452",
"&. c #896553",
"*. c #8E6956",
"=. c #8A6D5D",
"-. c #916B57",
";. c #936E5A",
":. c #86745C",
">. c #96715D",
",. c #9A735D",
"<. c #987858",
"1. c #8E7467",
"2. c #9B7662",
"3. c #9F7A65",
"4. c #9D7C6B",
"5. c #957869",
"6. c #A07762",
"7. c #A27A65",
"8. c #A37D6A",
"9. c #9E8121",
"0. c #A28421",
"q. c #A98723",
"w. c #A98829",
"e. c #B58E24",
"r. c #B48E28",
"t. c #BC9225",
"y. c #BB922D",
"u. c #C1952C",
"i. c #C9992C",
"p. c #CC9B35",
"a. c #CD9E3D",
"s. c #C79A3B",
"d. c #97825F",
"f. c #9E8476",
"g. c #A6816D",
"h. c #A8826F",
"j. c #A68472",
"k. c #AA8672",
"l. c #AC8976",
"z. c #A48A7D",
"x. c #AE8B7A",
"c. c #B08F7D",
"v. c #B2907E",
"b. c #CFA148",
"n. c #CFA043",
"m. c #D0A34D",
"M. c #D2A553",
"N. c #DAB373",
"B. c #9D8A80",
"V. c #AC9184",
"C. c #B49483",
"Z. c #B79989",
"A. c #BA9C8C",
"S. c #BC9F91",
"D. c #BDA193",
"F. c #C0A597",
"G. c #C1A799",
"H. c #C0A699",
"J. c #C4AA9E",
"K. c #C3AA9C",
"L. c #C6AEA2",
"P. c #C5ADA1",
"I. c #C9B1A5",
"U. c #C9B3A7",
"Y. c #CAB4A8",
"T. c #CCB6AB",
"R. c #CDB7AC",
"E. c #CEB9AE",
"W. c #CFBBB0",
"Q. c #D0BCB1",
/* pixels */
"  w e.e.u.p.b.N.N.N.N.m.m.M.M.i.a.M.p.n.r.9.| { [ d   ",
"w g { | 0.y.a.i.m.p.a.u.e.0.9.q.9.0.9...9. .[ z l g w ",
"w d b [ | o.9.e.O.q.r.t.t.t.u.a.s.[ z [ c x z l k d w ",
"e e b c z l c [ [ c 0.....} o.w.w.j l l x j g j j e e ",
"d w j j B D H H l j { v x l z { v l j $.<.@.C g f w d ",
"d d f B F E *.&.H K k h j h h k k d.:.k.l.8.&.D g e d ",
"j z J @.%.*.6.,.8.k.n n V D S G U E.T.A.C.x.k.<.X.j j ",
"f v #.#.&.;.8.,.l.x.v.C.C.S.P.Q.W.U.Y.K.A.v.k.7.,.[ f ",
"z l W R #.;.7.>.l.c.Z.D.K.P.P.Y.T.Y.R.K.A.c.h.6.-.k [ ",
"w [ F E #.%.&.>.>.g.Z.F.P.U.P.A.U.P.D.D.v.h.7.;.#.l w ",
"g h E *.%.#.&.*.,.6.C.A.H.T.E.H.K.F.H.C.C.c.k.8.,.f g ",
"e f F %.;.;.;.>.7.>.C.c.A.P.U.K.K.P.S.Z.Z.C.k.2.#.f ; ",
"g ; Z I Y R &.*.6.j.k.l.C.D.G.H.F.D.K.C.v.g.2.*.I : d ",
"V o i i t p A A E =.&.4.j.x.C.V.f.5.B.1.=.E Y A i @ @.",
"A > X $ 4 6 5 6 4 5 - R #.*.;.&.p 6 7 7 7 6 5 4 X , 8.",
"N P = 6 ~ ) / ) ~ ^ & X . o @ . $ ( _ _ ` / / ~ = P 6.",
". x.3 8 ( ' ` ) ^ ^ ~ * . i s % q ] ] ) ~ ! ~ Q < 6.&.",
"o x.I r q / / Q ) ) ^ * I z.V.$ q ) ^ / ^ ~ Q 8 1 8.C.",
"# +.l.L 4 0 ^ / ( 8 . @ A z.S.2.. q 9 8 ! Q 7 # a 8.7.",
"> m M i , + % % % O p 1 A z.S.>.Z + + + $ $ y Y >.>.>.",
"  u 2 1 1 1 i M P &.i i P f.C.,.&.A &.%.#.E &.;.;.6.  ",
"  > - , 1 p I &.2.*.u i E V.H.g.>.E 7.l.k.8.>.;.2.>.  ",
"  # > > 1 m R >.k.%.1 u E V.D.8.-.>.h.A.C.j.>.;.8.*.  ",
"    , > i M I >.k.+.u 1 A >.8.*.E k.l.D.C.8.>.2.8.    ",
"    > 2 p M Z ,.;.Y Z M P E ;.g.h.l.k.x.c.8.7.7.7.    ",
"    - , u a Z ;.R Y R >.C.c.x.D.l.7.8.k.k.8.7.7.,.    ",
"    > > 1 i m &.Y m E &.j.x.x.x.g.k.6.k.l.g.7.,.;.    ",
"      - 1 p M %.I , M p s M Z M Z Z m x.k.h.7.,.      ",
"      > 1 i s R ;.A T R -.j.C.l.8.8.x.k.2.8.2.;.      ",
"        u i p Z R Y #.#.%.=.2.3.k.l.k.k.>.>.>.        ",
"          u u p I E *.2.4.4.j.C.C.c.k.8.;.;.          ",
"            u u Z E ;.k.C.C.Z.K.D.v.l.*.-.            ",
"              u a T ;.x.Z.A.D.K.A.x.k.E               ",
"                u m %.3.x.c.v.C.l.k.6.                ",
"                  u s R *.&.+.>.-.&.                  "
};
