/* XPM */
static char *b78dfc9764ed45beb21af9569bae58e5RPWgG66BVSEAfU41[] = {
/* columns rows colors chars-per-pixel */
"128 128 3 1 ",
"  c #002424",
". c #004824",
"X c #006C48",
/* pixels */
"                                                                     ..                                                         ",
"                                                                     ..  ..                                                     ",
"                                                                            ..                                                  ",
"        ..              ..              ..              ..                              ..              ..              ..      ",
"                                                                                                                                ",
"                                                                                                                                ",
"  .      ...      .      ...      .      ...      .      ...      .                      ...      .      ...      .      ...    ",
"                                                                                                                                ",
"    X..  .          X..  .          X..  .          X..  .          X                ..  .          X..  .          X..  .      ",
"     ..  .           ..  .           ..  .           ..  .                           ..  .           ..  .           ..  .      ",
"                                                                     ..  ..                                                     ",
"                                                                                                                                ",
"                                                                                                                                ",
"         ..  ..          ..  ..          ..  ..          ..  ..                          ..  ..          ..  ..          ..  .. ",
"                                                                                                                                ",
"  X               X               X               X               X                               X               X             ",
"                                                                     ..                              ..                         ",
"                                                                     ..  ..                          ..  ..                     ",
"                                                                            ..                              ..                  ",
"        ..              ..              ..              ..                              ..                              ..      ",
"                                                                                                                                ",
"                                                                                                                                ",
"  .      ...      .      ...      .      ...      .      ...      .                      ...      .                      ...    ",
"                                                                                                                                ",
"    X..  .          X..  .          X..  .          X..  .          X                ..  .          X                ..  .      ",
"     ..  .           ..  .           ..  .           ..  .                           ..  .                           ..  .      ",
"                                                                     ..  ..                          ..  ..                     ",
"                                                                                                                                ",
"                                                                                                                                ",
"         ..  ..          ..  ..          ..  ..          ..  ..                          ..  ..                          ..  .. ",
"                                                                                                                                ",
"  X               X               X               X               X                               X                             ",
"                                                                     ..                              ..                         ",
"                                                                     ..  ..                          ..  ..                     ",
"                                                                            ..                              ..                  ",
"        ..              ..              ..              ..                              ..                              ..      ",
"                                                                                                                                ",
"                                                                                                                                ",
"  .      ...      .      ...      .      ...      .      ...      .                      ...      .                      ...    ",
"                                                                                                                                ",
"    X..  .          X..  .          X..  .          X..  .          X                ..  .          X                ..  .      ",
"     ..  .           ..  .           ..  .           ..  .                           ..  .                           ..  .      ",
"                                                                     ..  ..                          ..  ..                     ",
"                                                                                                                                ",
"                                                                                                                                ",
"         ..  ..          ..  ..          ..  ..          ..  ..                          ..  ..                          ..  .. ",
"                                                                                                                                ",
"  X               X               X               X               X                               X                             ",
"                                                                                                                                ",
"                                                                                                                                ",
"                                                                                                                                ",
"        ..             ..               ..             ..               ..             ..               ..              ..      ",
"                                                                                                                                ",
"                                                                                                                                ",
"  .      ...      .    ..                ...      .    ..                ...      .    ..                ...      .      ...    ",
"                                                                                                                                ",
"    X..  .          X                ..  .          X                ..  .          X                ..  .          X..  .      ",
"     ..  .              ...          ..  .              ...          ..  .              ...          ..  .           ..  .      ",
"                         ..  ..                          ..  ..                          ..  ..                                 ",
"                                ..                              ..                              ..                              ",
"                                                                                                                                ",
"         ..  ..                          ..  ..                          ..  ..                          ..  ..          ..  .. ",
"                                                                                                                                ",
"  X               X                               X                               X                               X             ",
"                                                                                                                                ",
"                                                                                            ...                                 ",
"                                                                                                                                ",
"        ..             ..              ..              ..                                       ..  .   ..              ..      ",
"                                                                                                                                ",
"                                                                                                                                ",
"  .      ...      .    ..              ..              ..              ..                                ...      .      ...    ",
"                                                                                                                                ",
"    X..  .          X                                                                                ..  .          X..  .      ",
"     ..  .              ...             ...             ...                                        ....  .           ..  .      ",
"                         ..  ..          ..  ..          ..  ..                                  ...                            ",
"                                ..              ..              ..                                                              ",
"                                                                      ..                                                        ",
"         ..  ..                                                      ..            XX                    ..  ..          ..  .. ",
"                                                                                                                                ",
"  X               X                                                     ..  ..                                    X             ",
"                                          ..  ..                                                     X                          ",
"                        XX                                   ..                                                                 ",
"                                                      X  XXXX        XXX    XXX          X                ...                   ",
"        ..                                    .. XX   X   XXX        XXXX   XXX      ..  X   XX            ..  .        ..      ",
"                                          X      XX ..XX  ..XXX..  XX..X  XXX..         XX.. XX                                 ",
"                                                 XXX..XXX ..XXXX.  XX..X  XXX...        XX..XXX                                 ",
"  .      ...      .                            ....XX   X  .  XX  XX.    XXX. ..      ..   XX..                ...       ...    ",
"                          ..                    ...XX ..XX .  XXXX  .   XX  .           .. XX..X                                ",
"    X..  .          X X                         ...XXX..XX .  XXXX  .   XX  .           ..XXX..X                   ....  .      ",
"     ..  .                                      .. .XX  .XX.  XX                          XX. XX            ..       ..  .      ",
"                          XX..   X       XXX             X  .      .  X  X                          XXX     ..                  ",
"                          XX     X   XX  XXX    ..       X  .      .  X  X   XX               ..    XXX                         ",
"                          .XXX .XX...XX  ..XXX  ..       X            X XX.. XX..             ..  XXX..                         ",
"         ..  ..           .XXX  XX..XXX  ..XXX                          XX..XXX..     XX          XXX..                  ..  .. ",
"                           .XXX    XX..    .XXX                            XX..   X   X          XXX.                           ",
"  X               X        .  XX.. XX..X   .  XX                        .. XX..X  XX XX         XX  .               .           ",
"                           .  XX..XXX..X   .  XX                        ..XXX..X ..X XX         XX  .                           ",
"                                  XX. XX                     ..  ..       XX  XX ..XX                                           ",
"                              .. .  .   ..                                 .  X       ..                                        ",
"        ..                XXX .. .  .   ..                                 .  X       ..                ..              ..      ",
"                            X XX .                                            X                                                 ",
"                       ...  XXXX                                                                                                ",
"  .      ...      .                                      X                                          .    ...      .      ...    ",
"                           ..  ..                                                                                               ",
"    X..  .          X                                         .                         ...          ..  .          X..  .      ",
"     ..  .                                                                                           ..  .           ..  .      ",
"                                            ...                                             ..  ..                              ",
"                                                                                                                                ",
"                             ...                ..  ..                                                                          ",
"         ..  ..                                                ..  ..                                    ..  ..          ..  .. ",
"                                 ..  ..                                                                                         ",
"  X               X                                                                                               X             ",
"                                                                     ..                                                         ",
"                                                                     ..  ..                                                     ",
"                                                                            ..                                                  ",
"        ..              ..              ..              ..                              ..              ..              ..      ",
"                                                                                                                                ",
"                                                                                                                                ",
"  .      ...      .      ...      .      ...      .      ...      .                      ...      .      ...      .      ...    ",
"                                                                                                                                ",
"    X..  .          X..  .          X..  .          X..  .          X                ..  .          X..  .          X..  .      ",
"     ..  .           ..  .           ..  .           ..  .                           ..  .           ..  .           ..  .      ",
"                                                                     ..  ..                                                     ",
"                                                                                                                                ",
"                                                                                                                                ",
"         ..  ..          ..  ..          ..  ..          ..  ..                          ..  ..          ..  ..          ..  .. ",
"                                                                                                                                ",
"  X               X               X               X               X                               X               X             "
};
