/* XPM */
static char *_4181dffde8247538fddba85286f1033vAY9MLdSWx2a5ElX[] = {
/* columns rows colors chars-per-pixel */
"128 128 10 1 ",
"  c #000024",
". c #002424",
"X c gray14",
"o c #004800",
"O c #006C00",
"+ c #004824",
"@ c #240048",
"# c #482448",
"$ c #006C48",
"% c #6C486C",
/* pixels */
"@@@@@@++  oooo........##%%%$+$#XX@@@  ...+.....%%###XX@@@@@@@  @@ ............+oo..oooooooooooooo..oooooooooooo....ooo...%%###XX",
"@@@@@@$.  ooo+.........#%%%$#$#XX@@@  ...+.....%%###XX@@@@@@@ @@@ ............o.......ooooooo.o.......ooooooo.o....ooo...%%###XX",
"@@@@@@++  ..oo+....ooo..#%$+#$#XX@@@  .......oo%%###XX@@@@@@@ @@  ..ooo...............ooooooo.o.......ooooooo.o..ooOOO...%%###XX",
"@@@@@@@+  ooOo$.........#%$%#+#XX@@@  .........%%###XX@@@@@@@ @  ...............o.........ooo...o.........ooo........o...%%###XX",
"@@@@@$@+  oooo$..........#$%#+#XX@@@  ... .....%%###XX@@@@@@ @@ ..............o...........ooo.............ooo............%%###XX",
"@@@@@$@+  ....+..o........+%#+#XX@@@  ... .o ..%%###XX@@@@@@ @  ..o...................ooooOOO.........ooooOOO....OOo....o%%###XX",
"@@@@@$@+  ..++...o........%+$##+X@@@  ..  .o ..%%###XX@@@@@@    ..o.........oo.oo..............oo....................oooo%%###XX",
"@@@@@+@+  oo+o...o........%%$#+XX@@@  ..  .  ..%%###XX@@@@@@    ..o........oOOooo..............oo................ooo....o%%###XX",
"@@@@@@$   oo..............%%$#$XX@@@  .. ..  ..%%###XX@@@@@@@   ...................ooo.............ooo...................%%###XX",
"@@@@@@+ + oo..............%%$#+XX@@@  .  ..  ..%%###XX@@@@@@@   ......................................................oo.%%###XX",
"@@@@@ $ $ ................%++.+XX@@@  .  .  ...%%###XX@@@@@@@   .............................oo..............oo.........o%%###XX",
"@@@@@ + + ................%+.+#+$@@@  .     ...%%###XX@@@@@@@   ..............................o...............o.........o%%###XX",
"@@@@@ $.+ ....@...........%%.$#X+@@@  .    ....%%###XX@@@@@@@   .............oo..o............o..o............o......oooo%%###XX",
"@@@@@@$+   .@@ oo....oo...%%+$#XX@@@  .    ....%%###XX@@@@@@@   oo....oo...ooOOooO.ooo.........ooO.ooo...............oooo%%###XX",
"@@@@@@$$   @@  ..oo....o..%%++#XX@@@  .   .....%%###XX@@@@@@@   ..oo....o......oo..............oo........................%%###XX",
"@@@@@@$$       ..oo....o.o%%$.#XX@@@     ......%%###XX@@@@@@@   ..oo....o.o......o...............o.......................%%###XX",
"@@@@@ $+      .ooooOoooo..%$++#XX@@@     ..o...%%###XX@@@@@@@   ooooOoooo........o..........o....o..........o......ooo...%%###XX",
"@@@@@ $.     ..ooooo.ooo..%$#+#XX@@@     ooo...%%###XX@@@@@@@   ooooo.ooo..............oo.ooo..........oo.ooo......ooo...%%###XX",
"@@@@@ ++    ..+....o.oOO..++#+#XX@@@    oOOO...%%###XX@@@@@@@   ....o.oOO......o......ooooOOO..o......ooooOOO....ooOOO...%%###XX",
"@@@@@@@+   .++......ooOo..$%#$#XX@@@    .......%%###XX@@@@@     .....ooOo..o.ooo.......oo......o.......oo............o...%%###XX",
"@@@@@$@+   .........oooo..$%#$#XX@@@    oooooo.%%###XX@@@@@     .....oooo..ooOOO......oooooooo$O......oooooooo$..........%%###XX",
"@@@@@$@$   ....oooo.......+%#$#XX@@@   oOOoooo.%%###XX@@@@@     oooo.......o..........oooOOooo$.......oooOOooo$..OOo....o%%###XX",
"@@@@@$@$  .......oo.......%%#+#XX@@@   oOOoo.o.%%###XX@@@@@@@   ..oo.......ooooooo....oooOOoo.$ooo....oooOOoo.$......oooo%%###XX",
"@@@@@+@$  ................%%$$$XX@@@   ooooo.o.%%###XX@@@@@@@   .... ......oOOooo.....ooooooo.+oo.....ooooooo.+..ooo....o%%###XX",
"@@@@@@@+  .....oo.........%%$##++@@@  ...ooo...%%###XX@@@@@@@   oo.. ......oOOoo..........ooo..o..........ooo............%%###XX",
"@@@@@@+++ .ooo...oo.......%%$##XX@@@  ...ooo...%%###XX@@@@@@@   ..o @......ooooo.o........ooo..o.o........ooo.........oo.%%###XX",
"@@@@@@$  +oOOO...oo.......%%$##XX@@@  oooOOO...%%###XX@@@@@@    ..o@@.. @....ooo.o....ooooOOO..o.o....ooooOOO...........o%%###XX",
"@@@@@@$   .....oooo.......%%+##XX@@@  .....o...%%###XX@@@@@@    ooo@.. @@....ooo............o..o............o...........o%%###XX",
"@@@@@@$   ooooooooo.......%%+##XX@@@  oo.ooo...%%###XX@@@@@@    oo @.. @ ..ooOOO....oo.oo.ooo..O....oo.oo.ooo........oooo%%###XX",
"@@@@@@+   OOooo...........%%###XX@@@  oooOOO...%%###XX@@@@@@@   .. @. @ .......o...oOOooooOOO..o...oOOooooOOO........oooo%%###XX",
"@@@@@@+   OOoo............%%###XX@@@  oo.......%%###XX@@@@@@@   ..@  @@ ...............oo..............oo................%%###XX",
"@@@@@@@   oooo.........o..%%###XX@@@  oooooooo.%%###XX@@@@@@@   ..@  @ .o..OOo.....oooooooooooo....oooooooooooo..........%%###XX",
"@@@@@@@   .ooo.oooo....o..%%###XX@@@  oooooooo.%%###XX@@@@@@@   oo  @@ .o......oo..oooooooooooooo..oooooooooooo....ooo...%%###XX",
"@@@@@@@   .ooo...oo.......%%###XX@@@  oooooo.o.%%###XX@@@@@@@   .. @@ .....ooo........ooooooo.o.......ooooooo.o....ooo...%%###XX",
"@@@@@@@   oOOO............%%###XX@@@  oooooo.o.%%###XX@@@@@@@   .  @  ................ooooooo.o.......ooooooo.o..ooOOO...%%###XX",
"@@@@@@@   ...o.OO.........%%###XX@@@  ...ooo...%%###XX@@@@@@@   O @@ ...........o.........ooo...o.........ooo........o...%%###XX",
"@@@@@@@   .ooo...oo.......%%###XX@@@  ...ooo...%%###XX@@@@@@@   .@@  .....................ooo.............ooo............%%###XX",
"@@@@@@@   oOOO.ooooo......%%###XX@@@  oooOOO...%%###XX@@@@@@@    @@ o.................ooooOOO.........ooooOOO....OOo....o%%###XX",
"@@@@@@@   .....oooooo.oo..%%###XX@@@  .........%%###XX@@@@@@@   @@ ooo.oo......oo..............oo....................oooo%%###XX",
"@@@@@@@   ooooo....OOooo..%%###XX@@@  .........%%###XX@@@@@@@   @@ .OOooo......oo..............oo................ooo....o%%###XX",
"@@@@@@@   ooooo.......oo..%%###XX@@@  .........%%###XX@@@@@@@  @@ .....oo..........ooo.............ooo...................%%###XX",
"@@@@@     oooo.....ooooo..%%###XX@@@  .........%%###XX@@@@@@@ @@@ ..ooooo.............................................oo.%%###XX",
"@@@@@     oooo............%%###XX@@@  ......oo.%%###XX@@@@@@@ @@  ...........................oo..............oo.........o%%###XX",
"@@@@@     .ooo............%%###XX@@@  .......o.%%###XX@@@@@@@ @  .............................o...............o.........o%%###XX",
"@@@@@@@   .ooo............%%###XX@@@  .......o.%%###XX@@@@   @@ .................o............o..o............o......oooo%%###XX",
"@@@@@@@   oOOO............%%###XX@@@  .........%%###XX@@@@   @  ...............ooO.ooo.........ooO.ooo...............oooo%%###XX",
"@@@@@@@   ................%%###XX@@@  .........%%###XX@@@@      ...............oo..............oo........................%%###XX",
"@@@@@     ......oo........%%###XX@@@  .........%%###XX@@@@@@    .oo..............o...............o.......................%%###XX",
"@@@@@@++  ooooo.....ooo...%$++#XX@@@  ..+.+.+.o%####XX@@@@@@@   .....ooo.....+$..o..........o....o..........o......ooo...%%###XX",
"@@@@@ ..  ..o+o.....ooo...%$#+#XX@@@  ....$...o%%###XX@@@@@@@   .....ooo.....$$........oo.ooo..........oo.ooo......ooo...%%###XX",
"@@@@@ ++  ..oo+.ooooOOO...++#$#XX@@@  ...+$oooO%%###XX@@@@@     .ooooOO @....+.o......ooooOOO..o......ooooOOO....ooOOO...%%###XX",
"@@@@@  +  ooOO$...........+%#$#XX@@@  ...++.. .%%###XX@@@@@     ...... @@....+.o.......oo......o.......oo............o...%%###XX",
"@@@@@$@$  ....$...........+%#+#XX@@@  ...$..  .%%###XX@@@@@     ...... @ ..++o+O......oooooooo$O......oooooooo$..........%%###XX",
"@@@@@$@$  ....+o..........+%#+#XX@@@  .o$++.  .%%###XX@@@@@@@   o.... @ ...+..$.......oooOOooo$.......oooOOooo$..OOo....o%%###XX",
"@@@@@$@+  ..++$...%#......%+$##+X@@@  ..$.+.  .%%###XX@@@@@@@   .... @@ ......$ooo....oooOOoo.$ooo....oooOOoo.$......oooo%%###XX",
"@@@@@+@+  ..$.$...%%#..oo.%%$#+XX@@@  .++.+  ..%%###XX@@@@@@@   .... @ .oo....+oo.....ooooooo.+oo.....ooooooo.+..ooo....o%%###XX",
"@@@@@@$   ....$...#%#...o.%%$#$XX@@@  .+. $  ..%%###XX@@@@@@@   ... @@ ..o.....o..........ooo..o..........ooo............%%###XX",
"@@@@@@+ + .........#%#..o.%%$#$XX@@@  .+. $....%%###XX@@@@@@@   .. @@ ...o....+o.o........ooo..o.o........ooo.........oo.%%###XX",
"@@@@@@+ + .....o...#%%#...%++.$XX@@@  .+  $....%%###XX@@@@@@@   o. @  ........+o.o....ooooOOO..o.o....ooooOOO...........o%%###XX",
"@@@@@@+ $ ..........#%#...%+.+#++@@@      +....%%###XX@@@@@@@   . @@ .........$o............o..o............o...........o%%###XX",
"@@@@@@+.+ ..........#%%#..%%.+#X+@@@     +++...%%###XX@@@@@@@   .@@  .........$O....oo.oo.ooo..O....oo.oo.ooo........oooo%%###XX",
"@@@@@@.+  ...........#%%#.%%$+#XX@@@    .$..+..%%###XX@@@@@@@    @@ ..........$o...oOOooooOOO..o...oOOooooOOO........oooo%%###XX",
"@@@@@@.$  ...........##%#.%%$+#XX@@@    .$.....%%###XX@@@@@@@   @@ ...........$........oo..............oo................%%###XX",
"@@@@@@+$  OOoo........#%%#%%$.#XX@@@   ..$.....%%###XX@@@@@@@   @@ ...........$....oooooooooooo....oooooooooooo..........%%###XX",
"@@@@@@++  oooo........##%%%$+$#XX@@@  ...+.....%%###XX@@@@@@@  @@ ............+oo..oooooooooooooo..oooooooooooo....ooo...%%###XX",
"@@@@@@$.  ooo+.........#%%%$#$#XX@@@  ...+.....%%###XX@@@@@@@ @@@ ............o.......ooooooo.o.......ooooooo.o....ooo...%%###XX",
"@@@@@@++  ..oo+....ooo..#%$+#$#XX@@@  .......oo%%###XX@@@@@@@ @@  ..ooo...............ooooooo.o.......ooooooo.o..ooOOO...%%###XX",
"@@@@@@@+  ooOo$.........#%$%#+#XX@@@  .........%%###XX@@@@@@@ @  ...............o.........ooo...o.........ooo........o...%%###XX",
"@@@@@$@+  oooo$..........#$%#+#XX@@@  ... .....%%###XX@@@@@@ @@ ..............o...........ooo.............ooo............%%###XX",
"@@@@@$@+  ....+..o........+%#+#XX@@@  ... .o ..%%###XX@@@@@@ @  ..o...................ooooOOO.........ooooOOO....OOo....o%%###XX",
"@@@@@$@+  ..++...o........%+$##+X@@@  ..  .o ..%%###XX@@@@@@    ..o.........oo.oo..............oo....................oooo%%###XX",
"@@@@@+@+  oo+o...o........%%$#+XX@@@  ..  .  ..%%###XX@@@@@@    ..o........oOOooo..............oo................ooo....o%%###XX",
"@@@@@@$   oo..............%%$#$XX@@@  .. ..  ..%%###XX@@@@@@@   ...................ooo.............ooo...................%%###XX",
"@@@@@@+ + oo..............%%$#+XX@@@  .  ..  ..%%###XX@@@@@@@   ......................................................oo.%%###XX",
"@@@@@ $ $ ................%++.+XX@@@  .  .  ...%%###XX@@@@@@@   .............................oo..............oo.........o%%###XX",
"@@@@@ + + ................%+.+#+$@@@  .     ...%%###XX@@@@@@@   ..............................o...............o.........o%%###XX",
"@@@@@ $.+ ....@...........%%.$#X+@@@  .    ....%%###XX@@@@@@@   .............oo..o............o..o............o......oooo%%###XX",
"@@@@@@$+   .@@ oo....oo...%%+$#XX@@@  .    ....%%###XX@@@@@@@   oo....oo...ooOOooO.ooo.........ooO.ooo...............oooo%%###XX",
"@@@@@@$$   @@  ..oo....o..%%++#XX@@@  .   .....%%###XX@@@@@@@   ..oo....o......oo..............oo........................%%###XX",
"@@@@@@$$       ..oo....o.o%%$.#XX@@@     ......%%###XX@@@@@@@   ..oo....o.o......o...............o.......................%%###XX",
"@@@@@ $+      .ooooOoooo..%$++#XX@@@     ..o...%%###XX@@@@@@@   ooooOoooo........o..........o....o..........o......ooo...%%###XX",
"@@@@@ $.     ..ooooo.ooo..%$#+#XX@@@     ooo...%%###XX@@@@@@@   ooooo.ooo..............oo.ooo..........oo.ooo......ooo...%%###XX",
"@@@@@ ++    ..+....o.oOO..++#+#XX@@@    oOOO...%%###XX@@@@@@@   ....o.oOO......o......ooooOOO..o......ooooOOO....ooOOO...%%###XX",
"@@@@@@@+   .++......ooOo..$%#$#XX@@@    .......%%###XX@@@@@     .....ooOo..o.ooo.......oo......o.......oo............o...%%###XX",
"@@@@@$@+   .........oooo..$%#$#XX@@@    oooooo.%%###XX@@@@@     .....oooo..ooOOO......oooooooo$O......oooooooo$..........%%###XX",
"@@@@@$@$   ....oooo.......+%#$#XX@@@   oOOoooo.%%###XX@@@@@     oooo.......o..........oooOOooo$.......oooOOooo$..OOo....o%%###XX",
"@@@@@$@$  .......oo.......%%#+#XX@@@   oOOoo.o.%%###XX@@@@@@@   ..oo.......ooooooo....oooOOoo.$ooo....oooOOoo.$......oooo%%###XX",
"@@@@@+@$  ................%%$$$XX@@@   ooooo.o.%%###XX@@@@@@@   .... ......oOOooo.....ooooooo.+oo.....ooooooo.+..ooo....o%%###XX",
"@@@@@@@+  .....oo.........%%$##++@@@  ...ooo...%%###XX@@@@@@@   oo.. ......oOOoo..........ooo..o..........ooo............%%###XX",
"@@@@@@+++ .ooo...oo.......%%$##XX@@@  ...ooo...%%###XX@@@@@@@   ..o @......ooooo.o........ooo..o.o........ooo.........oo.%%###XX",
"@@@@@@$  +oOOO...oo.......%%$##XX@@@  oooOOO...%%###XX@@@@@@    ..o@@.. @....ooo.o....ooooOOO..o.o....ooooOOO...........o%%###XX",
"@@@@@@$   .....oooo.......%%+##XX@@@  .....o...%%###XX@@@@@@    ooo@.. @@....ooo............o..o............o...........o%%###XX",
"@@@@@@$   ooooooooo.......%%+##XX@@@  oo.ooo...%%###XX@@@@@@    oo @.. @ ..ooOOO....oo.oo.ooo..O....oo.oo.ooo........oooo%%###XX",
"@@@@@@+   OOooo...........%%###XX@@@  oooOOO...%%###XX@@@@@@@   .. @. @ .......o...oOOooooOOO..o...oOOooooOOO........oooo%%###XX",
"@@@@@@+   OOoo............%%###XX@@@  oo.......%%###XX@@@@@@@   ..@  @@ ...............oo..............oo................%%###XX",
"@@@@@@@   oooo.........o..%%###XX@@@  oooooooo.%%###XX@@@@@@@   ..@  @ .o..OOo.....oooooooooooo....oooooooooooo..........%%###XX",
"@@@@@@@   .ooo.oooo....o..%%###XX@@@  oooooooo.%%###XX@@@@@@@   oo  @@ .o......oo..oooooooooooooo..oooooooooooo....ooo...%%###XX",
"@@@@@@@   .ooo...oo.......%%###XX@@@  oooooo.o.%%###XX@@@@@@@   .. @@ .....ooo........ooooooo.o.......ooooooo.o....ooo...%%###XX",
"@@@@@@@   oOOO............%%###XX@@@  oooooo.o.%%###XX@@@@@@@   .  @  ................ooooooo.o.......ooooooo.o..ooOOO...%%###XX",
"@@@@@@@   ...o.OO.........%%###XX@@@  ...ooo...%%###XX@@@@@@@   O @@ ...........o.........ooo...o.........ooo........o...%%###XX",
"@@@@@@@   .ooo...oo.......%%###XX@@@  ...ooo...%%###XX@@@@@@@   .@@  .....................ooo.............ooo............%%###XX",
"@@@@@@@   oOOO.ooooo......%%###XX@@@  oooOOO...%%###XX@@@@@@@    @@ o.................ooooOOO.........ooooOOO....OOo....o%%###XX",
"@@@@@@@   .....oooooo.oo..%%###XX@@@  .........%%###XX@@@@@@@   @@ ooo.oo......oo..............oo....................oooo%%###XX",
"@@@@@@@   ooooo....OOooo..%%###XX@@@  .........%%###XX@@@@@@@   @@ .OOooo......oo..............oo................ooo....o%%###XX",
"@@@@@@@   ooooo.......oo..%%###XX@@@  .........%%###XX@@@@@@@  @@ .....oo..........ooo.............ooo...................%%###XX",
"@@@@@     oooo.....ooooo..%%###XX@@@  .........%%###XX@@@@@@@ @@@ ..ooooo.............................................oo.%%###XX",
"@@@@@     oooo............%%###XX@@@  ......oo.%%###XX@@@@@@@ @@  ...........................oo..............oo.........o%%###XX",
"@@@@@     .ooo............%%###XX@@@  .......o.%%###XX@@@@@@@ @  .............................o...............o.........o%%###XX",
"@@@@@@@   .ooo............%%###XX@@@  .......o.%%###XX@@@@   @@ .................o............o..o............o......oooo%%###XX",
"@@@@@@@   oOOO............%%###XX@@@  .........%%###XX@@@@   @  ...............ooO.ooo.........ooO.ooo...............oooo%%###XX",
"@@@@@@@   ................%%###XX@@@  .........%%###XX@@@@      ...............oo..............oo........................%%###XX",
"@@@@@     ......oo........%%###XX@@@  .........%%###XX@@@@@@    .oo..............o...............o.......................%%###XX",
"@@@@@@@   .ooo............%%###XX@@@  .........%%###XX@@@@@@@   .........................................................%%###XX",
"@@@@@@@   .ooo............%%###XX@@@  .........%%###XX@@@@@@@   .........................................................%%###XX",
"@@@@@@@   oOOO..........o.%%###XX@@@  .........%%###XX@@@@@@@   .........o......ooooo..............o......ooooo.........o%%###XX",
"@@@@@@@   ...o..........o.%%###XX@@@  .........%%###XX@@@@@@@   .........o.....o.oooo..............o.....o.oooo.........o%%###XX",
"@@@@@@@   .ooo.........oo.%%###XX@@@  .........%%###XX@@@@@@@   ........oo.........oo.............oo.........oo..........%%###XX",
"@@@@@@@   oOOO............%%###XX@@@  .........%%###XX@@@@@@@   .................oo........................oo........o.oo%%###XX",
"@@@@@@@   ................%%###XX@@@  .........%%###XX@@@@@@@   .................oo........................oo........OooO%%###XX",
"@@@@@@@   ooooo...........%%###XX@@@  ........ %%###XX@@@@@@@   ...........oOOo....oo.o..............oOOo....oo.oOOo.oooo%%###XX",
"@@@@@@@   ooooo...........%%###XX@@@  ......   %%###XX@@@@@@@   ...........oOOo...@@@  ..............oOOo....oo.oOOo.oooo%%###XX",
"@@@@@     oooo........o...%%###XX@@@  ....     %%###XX@@@@@@@   .......o......++@@    o..........o........ooooo.oooo..ooo%%###XX",
"@@@@@     oooo...oo.ooo..##%###XX@@@  ...    .o%%###XX@@@@@@@   ..oo.ooo...oo@++   oo....##%%%.ooo...oooo....oo....o..ooo%%###XX",
"@@@@@     .ooo..ooooOOO..##%###XX@@@  .     ooO%%###XX@@@@@     .ooooOOO...@@ ............####%%++......................o%%###XX",
"@@@@@@@   .ooo...oo...... #####XX@@@       oo..%%###XX@@@@@     ..oo.....@@   ++$oo.........o###++%........oo....oo...ooO%%###XX",
"@@@@@@@   oOOO..ooooooooo  ####XX@@@     .ooooo%%###XX@@@@@     .oooooo@@    .+.$..oo......ooooo..#%%........oo....o.....%%###XX",
"@@@@@@@   ......oooOOoooo. %###XX@@@    ..    O%%###XX@@@@@@@   .oooO@@    ...$.++.oo......oooO$++###%%......oo....o.o...%%###XX",
"@@@@@     ......oooOOoo.o.  %##XX@@@   .     OO%%###XX@@@@@@@   .ooo@@   o....$.o+oooOo....oooO$o+.####%%.oooooOoooo.....%%###XX"
};
