/* XPM */
static char *result[] = {
/* columns rows colors chars-per-pixel */
"128 128 66 1 ",
"  c #65AB55",
". c #68AD57",
"X c #67AC58",
"o c #68AC59",
"O c #6EB05F",
"+ c #6EAF60",
"@ c #70AF63",
"# c #6FB060",
"$ c #72B164",
"% c #76B26A",
"& c #7AB56D",
"* c #7DB672",
"= c #81B776",
"- c #82B976",
"; c #86BA7B",
": c #89BC7E",
"> c #8CBD83",
", c #90BF87",
"< c #92BE89",
"1 c #8EC084",
"2 c #90C187",
"3 c #95C28C",
"4 c #98C68F",
"5 c #97C190",
"6 c #9BC593",
"7 c #9EC896",
"8 c #9FC698",
"9 c #A1C79A",
"0 c #A4CA9C",
"q c #A7CBA0",
"w c #AACDA4",
"e c #AECEA9",
"r c #B1CFAC",
"t c #ADD0A6",
"y c #AFD0A9",
"u c #B3D3AC",
"i c #B6D3B1",
"p c #BAD5B5",
"a c #BCD9B6",
"s c #BED7B9",
"d c #BED9B9",
"f c #C0D7BC",
"g c #C2DBBD",
"h c #C6DDC1",
"j c #C9DEC5",
"k c #CBDFC8",
"l c #C7E0C1",
"z c #CAE1C6",
"x c #CDE2CA",
"c c #D2E4CE",
"v c #D4E5D1",
"b c #D9E7D6",
"n c #D7E8D3",
"m c #D9E9D6",
"M c #DBE7D9",
"N c #DDEADB",
"B c #E1EDDE",
"V c #E3EEE1",
"C c #E6F0E5",
"Z c #E9F2E6",
"A c #ECF4EB",
"S c #F0F6EF",
"D c #F1F7F1",
"F c #F4F9F3",
"G c #F8FBF7",
"H c #FEFEFE",
/* pixels */
"ooooooooooooooooooooooooXoooooooXoooooooooooooooooooooooooXooooooooooooooooooooooXoooooooooooooooooooooooooooooooooooooooooooooo",
"oooooooooXoooooooooXoooooooooooooooooooooooooooooXooooooooooooooooooooooooooooooooooooooooooooooXoooooooooXooooooooooooooooooooo",
"oooooooooooooooooooooooooooooXooooooooooooXoooooooooooooooooooooooooooooXoooooooooooooooooXooooooooooooooooooooooooooooooooooooo",
"oooooXoooooooooooooooooooooooooooooooooooooooooooooooooooooooooooooXoooooooooooooooooooooooooooooooooooooooooooooooXooooXooooooo",
"oXooooooooooooooooooooooooooooooooooooooooooooooooooXoooooooooooooooooooXoooooooooooooooooooooooooooXooooooooooooooooooooooooooo",
"ooooooooooooXoooooooXoooXooooooooooooooooooooooooooooooooooooooooooooooooooXXooooooooooooooooooooooooooooooooooooooooooooooooXoo",
"oooooooooooooooooooooooooooooooooooooXoooooooooooXoooooooooooooooooooXoooooooooooooooooooooooooooXooooooooooooooooooooXooooooooo",
"ooooooooooooooooooooooooooooooooooooooooooooXoooooooooooooooXoooooooooooXooooooooooooXoooooooXoooooooooooooXooooooooooooXooooooo",
"ooooooooooooooooooooooooooooooooooooXoooooooooooooooooooooooooooooooooooooooXooXoooooXoooooooooooooooooooooooooooooooooooooooooo",
"oooooooooooooooooooooooooooooooooooooooooooooXoooooooooooooooooooooooooooooooooooooooooooooooooooooooXooooooooooooooooXooooooooo",
"ooooooooooooooooooooooXoooooooXooooooooooooooooooooooXooooooooXoooooooooooooooooooooooooooooooooooooooooooooooXooooooooooooooXoo",
"ooooooXoooooooooooooooooooooooooooooooooooooooooooooooooooooooooooooXoooXooXoooooooooooooooooooooooooooooooooooooooooooooooooooo",
"oooooooooXooooXoXooooooooooXoooooooooooooooXooooooooooooooooooooooooooooooooooooooo.ooooooooooooooooooooooooooooooXoooooXooooooo",
"ooooooooooooooooooooooooooooooooooooooooooooooooooooooooooooooooooooooooooooooXooooooooooooooooooooooooooooooooooooooooooooooooo",
"oooooooooooooooooooooooooooooooooooooooooooooooooooooooooooooooooooooooooooooooooooooooooooooooooooXoooooooooooooooooooooooooooo",
"oXooooooooooooooooooooooooooooooooXooooooooooooooooXooooXoooooooooXoooXoooooooooooooooooooooooooooooooooXooooooooooooooooooooooo",
"oooooooooooooooooooooooooooooooooooooooooooooXoooooooooooooooooooooooooooooooooooooooooooooooooooooooooooooooooooooooooooXoooooo",
"oooooooooooooooooooooooooooooooooo$:+XoooooooooooooooooooooooooooooooooXoooooooooooooooooooooooooooXoooooooooooooooooooooooXoXXo",
"ooooXooooooooooooXooooooooXooooo *uz0% ooooooooooooooooooooooooooooooooooooooooooooooooooooooooooooooooooooooo.ooooooooooXoooXoo",
"ooooooooooooooooooooooooooooooo *iZHBw% oooooooooooooooooooooooooooooooooooooooooooooooooooooooooooooooooooooooooooooooooooooooo",
"ooooooooooooooooooooooooooooooo&iAHHHV0OooXoooooooooooooooooooooooooooooooooooooo.oooooooooooooooooooooooooooooooooooooXoooooooo",
"oooooooooooooooooooooooooooooo%pAHHHHGz;XooooooooooooooooooooooooooooooooooooooooooooooooooooooooooooooooooooooooXooooooXooooXoo",
"ooooooooooooooooooooooooooooo%sZHHHHHV0+ooooooooooooooooooooooooooXooooooooooooooooooooooooooooooooooXoooooooooooooooooooooooXXo",
"oooXooooXooooooooooooooXoooo%aZHHHHHBw&ooooooooooooooooooooooooooooooooooooooooooooooooooooooooooooooooooooooooooooooooooooooooo",
"ooooooooooooooooooooXooooo &pZHHHHHBe%.oooooooooooooooooooooooooooooooooooooooooooooooooooooooooo oooooooooooooooooooooooooooooo",
"ooooooXooooooooooooo$XXoo *iAHHHHHBt$ oooooooooooooooooooooooooooooooooooooooooooooooooooooooooooooooooooooooooooooooooooooooooo",
"oooooooooooooooooo+>u>+Xo*iAHHHHHBe$oooooooooooo ooooooooooooooooooXooo.ooooooooooooooooooooooooo oooooooooooooooooooooXooooooXo",
"ooooooooooooooooo#3cFv3+&iAHHHHHBe$ooooooooooooo$ooooo#ooooOooooooo@%oX.oo.oo$$o ooooo$$$ooooooo$@oooooo$@oooooooooooooooooooooo",
"ooooooooooooooooo2cGHGv7pAHHHHHVe$oooooooooooo&301$oo-1&oo$;>%ooo&;90<=+oo@*,09:%+oo&>003&Oooo%>96*ooo%303&oooooXoooooooooXooooo",
"oooXoooooooooooo-xGHHHGADHHHHHBw$oooooooooooo2xSDCe%#fCa$o-cN0oo;kADDSB9$o0mSSSAx3 >jASSSm9o $jADAv&o*jSDZf&Xooooooooooooooooooo",
"oooooooooooooooo$dFHHHHHHHHHHBw%ooooooooooooosDAvDg;OjFz$o;BZto=vFGVjMDi=0BGSczACw-fFGmnSGb-$2CANZV>@tZZnAM;XXoooooooooooooooooo",
"ooooooooooooooooo>jDHHHHHHHHBw% oooooooooooo.xHC0u7%OjFh$O;BAt$0DDh<;4r9&cHVe,:wu20AGg42aZSu%0AAgqw&+gDCreq%XXoooooooooooooooooo",
"oooooooooooooooooX,jSHHHHHGVe$ oooooooooooooopAFcr-o@jFj@o:BZt-hFx;   O%:VFd    @opHGxfszAGc*<VGNp4oowZFbi>oXooooooooooooooooooo",
"oooooooooooXoooooo :jDHHHHBe@oooooooooooooooo;fZFFg;+jFj$o;BZt:cFu$Xo..o4CCqXoooo pHHAAAAAZz%@aBDGn3$&sVFFx>oooooooooooooooooooo",
"oooooooooooooooooooo;kFHHBe@ooooooooooooooooo%*6cFH0#jGj$o:BZt;zFf*  oo$1BAuoX o+opHAitttpa6@@&,gSFc-$&4zDGu* oooooooooooooooooo",
"ooooooooooooooooooooo;xDBw$.ooooooooooooooXo$wt-4NGa&gHb-%0ZV9$wFCq%$&:1&nGv*%$*3-rGS7**;fB0$4r<*pHZ>7w,1lGc> ooXooooooooooXoooo",
"oXoooooXoooooooooooooo;r7$.ooooooooooooooooo:nSngFGrosGDguBHc-o>CGAxuzBa*iAGBduNBq3mGAkdmFZ0=vSMgNGN3vDbhAFl; oooooooooooooooooo",
"oooooooooooooooooooooXX&$.oooooooooooooooooo%gSGSGN2o>kGDSGV0Oo@9NGGSFFt&*pAHDDGN7@7vGFDGAa*@0ZGFFAw*uAGFGC6+ oooooooooXooooooXo",
"oooooooooooooooXoooooooXooooooooooooooooooooo:thjp6%oo>pjzf9&oo.o6uhzhu;o -0dhzf9* $2plzfw;oX@qhzdq%o*qhjp0% ooooooooooooooooooo",
"ooooooooooooooooooooooooooooooooooooooooooooo .%&  ooo  %&# .oooo  $*$ ooX  o%&o XX  X&&O  oXX %&o ooX %&  ooooooooooooooooooooo",
"oooooooooooooooooooooooooooooooooooooooooooooooooooooooooXoooooooooo.oooooooooooXooooooooooooooooooooooooooooooooooooooooooooooo",
"ooooooooooooooooXoooooooooooooooooooooooooooooooooooXoooooooooooooooooooooooooooXoooooooooooooXoooooooooooooooXooooooooooooooooo",
"ooooooooooooooooooooooooooooooXooooooXooooooooooooooooooooooXoooooooooooooooooooooooooooooXoooooooooooooooooooooooooXoooXooooooo",
"oooooXoooXoooooooooooooooXoooooooooooooooooooooooooooooooooooooooooooooXooooooXooooooooooooooooooooooo.ooooooooooooooooooooooooo",
"ooooooooooooooXooooooooooooooooooooooooooooooooooooooooooooooooooooooooooXooooooooooooooooooooXooooooooooooooooooooooooooooooooo",
"ooooooooooooooooooooXooooooooooooooooooooooooooooooooooooooooooooXooooooooooooooooooXoooooooooooooooooooooooooooooooooooooooXooo",
"oooooooXoooooooooooooooooooooooooooooooooooooooooXoooooooooooooooooooooooooooooooooooooooooooooooooooooooooooooooooXoooooooooooo",
"ooXoooooooooooooooooooooooooooooooXoooooooooooooooooooooooXooooooooooooooooooooooXoooooooooooooooooooooooooooo.oooooooooXooooooo",
"oooooooooooooooooooooooXooooooooooooooooooooooooooooooXoooooooXooooooooooooXoooooooooooooooooooooooooooooooooooooooooooooooooooo",
"oooooooooooooooooooooooooooooooooooooooooooooooooooooooooooooooooooooooooooooooooooooXoooooooooooooooooooooooXooooooooooooooXooo",
"oooooooXooooooXoooooooooooooooooooooooXooooooXoooooooooooooXooooooooooXoooooooooooooooooXooooooooooooooXoooooooooooooooooooooooo",
"oooooooooooooooooooooooooooooXoooooooooooooooooooooooooooooooooooooooooooooooooooooooooooooooooooooooooooooooooooooooXoooooooooo",
"ooXooooooXooooooXoooooooXooooooooooXooooXoooooooooooooooooooooooooooooooooooooooooooooooooooooooXooooooooooooooooooooooooooooooo",
"oooooooooooooooooooXoooooooooooooooooooooooooooooooooooooooooooXoooooooooooooooooooooooooooooooooooooooooooXoooooooooooooooooooo",
"oooooooooooooooooooooooXoooooooooooooooooooooooooooooooooooooooooooooooooooooXoooXooooooooooooooooooooooooooooooooooooooooooXooo",
"ooooooooooooooooXoooXoooooooooooooooooooooooooooooXoooooooooooooXooooooooooooooooooooooooooooooXoooooooooooooooooXoooooooooooooo",
"oooooooooooooooooooXoooooooooooooooooooooooooooooooooooooooooooooooooooooooooooooooooooooooooooooooooooooooooooooooooooooooooooo",
"ooooooooooooooXoooooooooooXooooXooooooooooooooooooooooooooooooooooooooooooooooooooooooooooXoooooooXooooooooooooooooooooooooXoooo",
"ooooooooooooooooooooooooooooooooooooooooo oooooooooooooooooXooooooXooooooooooooooooooooXooooooooooooXooooooooooXoooXoooooooooooo",
"oooooooooooooooooooXoooooooooooooooooooXooooooooXooooooooooooooooooooooooooXoooooooooooooooooooooooooooooooooooooooooooooooooooo",
"ooooooooooooXoooXooooooooooooooooooooooooooooooooooooooooooooooooooooooooooooooooooXooooooooooXoXoooooXooooooooooooooooooooooooo",
" oooooooooooooooooooooooooooXooooXoooooooooooooooooooooXooooooooooooooooooooooXooooooooooooooooooooXoooooooXoooooooooooooooooooo",
"oooooooooooooooooooooooXoooooooooooooooooooooooooooooooooooooXoooooooooooooooooooooooooXoooooooooooooooXooooooooooooXooooooooooX",
"ooooooooooooooooXoooooooooooooooooooooooooooooooooooooooooooooooXoooXoooooooooooooooooooooooooooooooXoooooooooXooooooooooooooooo",
" oooooooooooooooooo oooooooooooooooXooooooooooooooXXoooooooooooooooooooooooooooooooooo  OooooooXoooooooooooooooooooooooooXoooooo",
"oooooooooooooooooooOoooooooooooooooooooooooooooooooXooooooooooooooooooooooooooooo.ooooO. XooooooooooooooXooooooooooXoooooooooooo",
"oooooooooooooooooo-46444642&oooooooooo.X $3pkcvckd9& Xoooooooooooooooooo>44444644446644-#oooooooooooooooooooooooooooooooooooXooo",
"oooooooooooooooo 3gNNNNNNNcw$ooooooooo *wkNAGGHHFSVci> XooXoooooooooooo&kNNNNNNNNNNNNNNu- oooooooooooXoooooooooooooooooooooooooo",
"ooooooooooooooooOdFHHHHHHHFg% ooooooo <fVHHHHHHHHHHHDc8+oooooooooooooX@7SHHHHHHHHHHHHHHx1 oooooooXoooooooooooooooooooooooooooooo",
"oooooooooooooooo3MHHHHHHHHFg%oooooooo>vGHHHHHHHHHHHHHHV0+ooooooooooXo *hFHHHHHHHHHHHHHHx1 ooooooooooooooooooXoooooooXoooXooooooo",
"oooooooooooooooohDHGGHHHHHFg% oooooo%vGHHHHHGFDDFHHHHHHZ3+ooooooooooo ;VHHHHGGGHGHGGGHGj:Xoooooooooooooooooooooooooooooooooooooo",
"ooooooooooooooo+wnBBBVGHHHFg%Xooooo$eAHHHHHAcu67aNFHHHHGB; ooooooooooo<DHHHDmnccccnnccc9$ooooooooooooooooooooooooooooooooooooooo",
"oooooooooooooooo&:>>><NHHHFg%oooooo-VHHHHGn0;&+$&>uZHHHHFw$ooooooooo %uGHHHb>;;;;;>;;;>%oooXoooooooooooooooooooooooooooooooooooo",
"oooooooooooooooo     %vGHHFg% oooX%uFHHHFx5o oXXXo%wZHHHGm> oooooooo >vGHHFf   X        oooooooooooooooooooooooooooooooooooooooo",
"ooooooooooooooooooooo%vGHHFg%Xooo ;bGHHHV3ooooooooo$hFHHHF5 oooooooo 3SHHHV0ooooooooXooooooooooooooooooooooooooooooooooXooooooXo",
"ooooooooooooooooooooX%vGHHFg%.ooo >AHHHFhooooooooooo7NHHHH9 oooooooooqGHHHx*oooooooooooooooooooooooooXoooooooooooooooooooooooooo",
"ooooooooooooooooooooX%vGHHFg%oooo <FHHHV7ooooooooooo&xHHHHeOXXoooooo=fHHHHd XoooooXooooooooooooooooooooooXooooXoXoooooooooXooooo",
"ooooooooooooooooooooX%vGHHFg% oooX<DGHHv;ooooooooooo hHHHGu%Xoooooo 6VHHHDi%%$+oXooooooooooooXoooooooooooooooooooooooooooooooooo",
"ooooooooooooooooooooo&vGHHFg% oooX:cmmmu$XooooooooooohHHHHu%Xoooooo eFHHHDnaiq2*%+oooooooooooooooooooooooooooooooooooooooooooooo",
"oooooooooooooooooooo &vGHHFg%ooooo+;:::*oooooooooooo*xHHHG0oooooooooaHHHHHGFDDAZx7oooooooooooooooXoooooooooooooooooooooooooooooo",
"ooooooooooooooooooooo%vGGHDh%ooooXX    XXooooooooooo0VHHHG8 oooooo 2cHHHHHHHHHHHFZf:ooooXoooooooooooooooooXooooooooooooooooooooo",
"ooooooooooooooooooooo%vGHHDf% ooooooooXoooooooooooo$xGHHHA< oooooo eAHHHHHHHHHHHHHDx4oooooooooooooXoooooXooooooooooooooooooooooo",
"ooooooooooooooooooooo%vGHHFg%ooooooooXooooooooooooo0CHHHGx;Xoooooo.fHHHHGDDFHHHHHHHGc:OooooooooooooooooooooooooooXooooooooXooooo",
"ooo ooooooooooooooooo%vGHHFg% ooooooooooooooooXooo>NGHHHD6+Xoooooo&cHGZVchgkMVDHHHHHGf*ooooooooooooooooooooXoooooooooooooooooooo",
"ooooooooooooooooooooo%bGHHDg%oooooooooooooooooooo*gFHHHGn=Xooooooo2nDv7%@@++@=aZGHHHHG0oXooooooooooooXoooooooooooooooooooooooooX",
"ooooooooooooooooooooo%vGHHFg%.oooooooooooooooooo%wDHHHHZ<+oooooooo*0q*@ooooooo&2MHHHHGx> oooooooooooooooXooXoooooooooooooooooooo",
"ooooooooooooooooooooo%vGHHFg%oooooooooooooooooX+9AHHHHAu$ooooooXooo%$ooooooooooo4NHHHHD0  oooooooooooooXoooooooooooooooXoooooooo",
"ooooooooooooooo ooooo%vGHHFg% ooooXooooooooooo 6VHHHHFz=ooooooooooooooooooooooooouAHHHHi$ oooooooooooooooXoooooooooooooooooooooo",
"ooooooooooooooooooooX%vGHHFg%oooooooooooooooo <MHHHHHn2oooooooooooooooooooooooooo;xHHHHh-XooooooooooooooooooooooooooXooooooooooo",
"ooooooooooooooooooooo%vGHHFg% oooooooooooooo >cHHHHHV0 ooXooooooooooooooooooooooo pHHHHc2 ooooooXooooooooooooooooooooooooXoooooo",
"ooooooooooooooooooooo%vGHHDg% oooooooooooooo;jFHHHHZqooooooooooooooooooooooooooo  rGHHHN7 oooooooooooooooooooooooooooooooooooooo",
"ooooooooooooooooooooX%vGHHFg%oooooooooooooo&dAHHHHDw$XoooooooooooooooooooXooooooX wDHHHC0 ooooooooooXooooooooooooooooooooooooooo",
"oooo oooooooooooooXoX%nGHHFg%ooooooooooooo%eZHHHHFu*oooXoooooooooooooooXooooooooX eDHHHC0 ooooooooooooooooooooooooooooooooooXooo",
"ooooooooooooooooooooX&vGHHFg% oooooooooo $7ZHHHHDd-ooooooooooooooooooooooooooooo  iGHHHN7 ooooooooooooooooooooooooXooooooooooooo",
"ooooooooooooooooooooX%vGHHFg%oooooXooooXo6VHHHHFx:o ooooooooooooo oooooooooooooo osHHHHv, oooooooooooooooooooooooooooooooXoooooo",
"ooooooooooooooooooooX%vGHHFg% ooooooooo 3NHHHHGv2ooooooooooooo.o%u4OooooooooooXo <bHHHHf&oooooooX@&oX Xooo   ooo   Xoooooooooooo",
"ooooooooooooooooooooX%vGGGFg%Xoooooooo ,cHHHHGM6Xoooooooooooo $2gZv5 ooooooooooo$hFHHHHe.ooooooX*90%;4-..#-7;#.O-91# ooooooooooo",
"oooooooooooooooooooo %vGHHFg%Xoooooooo;kGHHHHVqXooooooooooooo@6vGHHc>. oooooooX#0VHHHHV5 oooooo.9ju&9c0.o:fzf4.;ilg4$ooooooooooo",
"oooooooooooooooooooo %vGHHFg%XXoooooo&hFHHHHZwooXXXoXoXX oooX;fGHHHGc>%oXXoX o*9VHHHHFr% oooooo%fc&+4Bf =iBuNg-uVunz< oooooooooo",
"oooooooooooooooooooo+%vGHHFf%Xoooooo%aAHHHHGi;************@ooo7SHHHHHCe;&%$%&>aAHHHHGv>XoXoooootzy+X%Np 4c0=tgaaz*1nq oooooooooo",
"oooooooooo oooooooooo%vGHHFg$oooooo$wCHHHHHHAZZCVZCZVCCCVVq$ o%wDHHHHHDVcduhNZFHHHHHZ3+Xoooooo%jj%oo@Mp 0B:+:zBzqO%Nu oooooooooo",
"ooooooooooooooooooooo%vGHHFg%ooooo@6VHHHHHHHHHHHHHHHHHHHHGu%ooo*pDHHHHHHFDAFGHHHHHHAu$Xooooooopz0Xoo@Ni 0B>o1zBjt$%Bu oooooooooo",
"ooooooooooooooooooooo%vGHHFg%Xoooo<MHHHHHHHHHHHHHHHHHHHHHHi%oooo*sAHHHHHHHHHHHHHHFme%oooooooo-cf&ooo+np 3ct%tlpaz%2nw  ooooooooo",
"ooooooo ooooooooooo o%vGHHFf$Xoo >cHHHHHHHHHHHHHHHHHHHHHHHe% oooX&rvAHHHHHHHHHHGVh3 XooooooX$ix9 o..@Bp -ungng;wNfcg, oooooooooo",
"ooooooooooooooooooooX%pvBNv0@ooo <vMMVMMMMVMVMMMNNNNMNNMVM<+oooooo -iNVZSDGDSZVv9$Xooooooooo>Mr$Xooo@fqoo,cbv9 ,knn7+ oooooooooo",
"ooooooooooooooooooooooo++++oXooooo+@+@++@++@+@@+@++@++@++++oooooooooo%:7ihxli0*#ooooooooooo%rk<XXoo.oooooo+%@oXo+%+ooooooooooooo",
"ooooooooooooooooooooooooooooooooXooooooooooo Xooooooooooooooooooooooooo#$%%%$Ooooooooooooo =h5@ooooooooooooooooooooooooooooooooo",
"ooooooooooo oooooooooXooooooooooooooooooooXooooXooooooooooooooooooooooooXX X OXXooooooooooo+=@oooooooooooooooooooooooooooooooooo",
"ooooooooooooooooooooooXooooooooooooooooooooooooooooooooooooooooooooooooooooooooooooooooooooooXooooooooooooooooooooooooooooooooXo",
"oooooooooooooooooooooooooooooooooooooooooooooooooooooooooooooooooooooooooooooooooooooooooooooooooooooooooooooooooooooooooooooooo",
"ooooooooooooooooooooooooooooXooooooooooooooooooooooooooooooooo oooooooooooooooXooooooooooooooooooooooooooooooooooooooooXoooooooo",
"ooooooooooooooooooXoooooooooooooooooooooooooooooooooooooooooooooooooooooooooooooooooooooooooooXooooooooooooooooooooooooooooooooo",
"oooooooooooooooXoooooooXoooooooooooooooooooooooooooooooooooooXoooooooooooooooooooooooooooooooooooooooooooooooooooooooooooooooooo",
"oXoooooooooooooooooooooooooooooooooooooooooooooooooooooXoooooooooooooooooooooXoooooXoooooooooooooooooXoooooooooooooooooXoooooooo",
"ooooooooooooooooooooooooooooooooooooooXooooooooooooooooooooooooooooooooooooooooooooooooooooXoooooooooooooooooooooooooooooooooooo",
"ooooooooooooooooooXoooooooooooXoooooooooooooooXooooooooooooooooooooooXoooooooooooooooooooooooooooooooooooooXoooooooooooooooooXoo",
"ooooooXoooooooooXoooooooooXooooooXoooooooooooooooooooooooooooooooooooooooooooooooooooooooooooooooXoooooooooooooooooooXoooXoooooo",
"ooooooooXoooooooooooXoooooooooooooooooooooooooooXooooooooooXoooooooooooooooooooooooooooooooooooooooooooooooooooooooooooooooooooo",
"oooooooooooooooooooXoooooooooooooooooooooooooooooooooooooooooooooXooooooooooooooooXooooooooooooooooooooooooooooooooooooooooooooo",
"oooooooooooooooooXooooooooooooooooooooooXoooooooooooooooooooooooooooooooooooXoooooooooooooooXooooooooooooXoooXoooooooooooooooooo",
"ooooooooooooooooooXoooooooooooooooooooXoooXoooooooXooooooooooooooooooooooooooooooooooooooooooooooooXoooooooooooooooooooXoooooooo",
"oooooooooooooooooooooooooooooXoooooooooooooooooooooooooooooooooXoooXoooooooXoooooooooooooooooooooooooooooXoooooooooooooooooXoXXo",
"XooooooooooooooooooooooooooooooooooooooooooooooooooooooooooooooooooooooooooooooooooooooooooXoooooooooooooooooooooooooooooooooXoo",
"ooooooooooooooXooooooooooooooooooooXoooooooooooooooooooooooooooooooooooooooooooooooooXoooooooooooooooooooooooooooooooooooooooooo",
"ooooXoooooooooooooooXooooooooooooooooooooooooooooooooooooooXooooooooooooooooooooXooooooooooooooooooooooooooooooooooooooooXoooooo",
"ooooooooooXoooooooooooooooooooooooooooooooooXoooooooooooooooooooooooooooooooooooooooooooooooooooooooooooooooooooXooooooooooooXoo",
"XoooooooooooooooooooooooooooXooooooooooXoooooooooooooooooooooooooooooXoooooooooXooooooooXooooXoooooooooooooooXoooooooooooooooooo",
"ooooooooooooooXoooooooooooooooooooooooooooooooooooooooXoooooooXoooooooooooooooooooooooooooooooooooooooXooooooooooooooooooooooooo"
};
