/* XPM */
static char *result[] = {
/* columns rows colors chars-per-pixel */
"128 128 66 1 ",
"  c #65AB55",
". c #68AD57",
"X c #67AC58",
"o c #68AC59",
"O c #6EB05F",
"+ c #6EAF60",
"@ c #70AF63",
"# c #6FB060",
"$ c #72B164",
"% c #76B26A",
"& c #7AB56D",
"* c #7DB672",
"= c #81B776",
"- c #82B976",
"; c #86BA7B",
": c #89BC7E",
"> c #8CBD83",
", c #90BF87",
"< c #92BE89",
"1 c #8EC084",
"2 c #90C187",
"3 c #95C28C",
"4 c #98C68F",
"5 c #97C190",
"6 c #9BC593",
"7 c #9EC896",
"8 c #9FC698",
"9 c #A1C79A",
"0 c #A4CA9C",
"q c #A7CBA0",
"w c #AACDA4",
"e c #AECEA9",
"r c #B1CFAC",
"t c #ADD0A6",
"y c #AFD0A9",
"u c #B3D3AC",
"i c #B6D3B1",
"p c #BAD5B5",
"a c #BCD9B6",
"s c #BED7B9",
"d c #BED9B9",
"f c #C0D7BC",
"g c #C2DBBD",
"h c #C6DDC1",
"j c #C9DEC5",
"k c #CBDFC8",
"l c #C7E0C1",
"z c #CAE1C6",
"x c #CDE2CA",
"c c #D2E4CE",
"v c #D4E5D1",
"b c #D9E7D6",
"n c #D7E8D3",
"m c #D9E9D6",
"M c #DBE7D9",
"N c #DDEADB",
"B c #E1EDDE",
"V c #E3EEE1",
"C c #E6F0E5",
"Z c #E9F2E6",
"A c #ECF4EB",
"S c #F0F6EF",
"D c #F1F7F1",
"F c #F4F9F3",
"G c #F8FBF7",
"H c #FEFEFE",
/* pixels */
"ooooooooooooooooooooooooXoooooooooooXooooooooooooooooooooooooooooooooooooooooooooooooooooooooooooooooXoooooooooooooooooooooooooX",
"oooooooooXoooooooooXoooooooooooooooooooooooooooooooooooooooooXoooooooooooooooooooooooooXooooooooooooooooooooooXooooooXoooooooooo",
"oooooooooooooooooooooooooooooXoooooooooooXooooooooXoooooooooooooooooooooooooooooooooooooooooXooooooooooooooooooooooooooooooooooo",
"oooooXoooooooooooooooooooooooooooooooooooooooooooooooooooooooooooooooooooooooooooooooooooooooooooooooooooooXoooooooooooooooooooo",
"oXoooooooooooooooooooooooooooooooooooooooooooooooooooooXoooooooooooooooooooooooooooooooooooooooooooooooooooooooooooooooooooooooo",
"ooooooooooooXoooooooXoooXooooooooooooooooooooooooooooooooooooooooooooo ooooooooooooXoooooooooooooooooooooooooooooooooooooooooooo",
"oooooooooooooooooooooooooooooooooooooooooooooooooooooooooooooooooooooooooooooooooooooooooooooooooooooooooooooooXoooXooooooXooooo",
"ooooooooooooooooooooooooooooooooooXooooooooooooXoooooooooXooooooooooooooooooooooooooooXoooXoooooooXooooooooooooooooooooooooooooo",
"oooooooooooooooooooooooooooooooooooooooooooooooooooooooooooooooooooooooooooooooooooooooooXooooooooooooooooooooooooooooooooooXooo",
"oooooooooooooooooooooooooooooooooooooooooooooooooXooooXooooooooooooooooooo ooooooooooooooooooooooooooooooooooooooooooooooooooooo",
"ooooooooooooooooooooooXoooooooXooooooooooooooXoooooooooooooooXooo ooooooooooooooooooooooooooooooXoooooooooXooooooooooooooooooooo",
"ooooooXoooooooooooooooooooooooooooooXooooooooooooooooooooooooooooooooooooooooooooXooooooooooooooooooooooooooooooooooooo oooooooo",
"oooooooooXooooXoXooooooooooXoooooooooooooooooooooooXooooooooooooooooooooooooooooooooooXoooooooXooooooooooooooooooooooooooooooooo",
"oooooooooooooooooooooooooooooooooXoooooooooooooooooooooooooooooooooooooooooooooooooooooooooooooooooooooooooooooooooooooooooooooo",
"oooooooooooooooooooooooooooooooooooooooooooooooooooooooooooooooooooooooooooooooooooooooooooooooooooooooXoooooooooooooooooooooooo",
"oXooooooooooooooooooooooooooooooooooooooooXooooXoooooooooooXoooooooooooooooooooooooooooooooooooooooooooooooooXoooooooooooooooooo",
"ooooooooooooooooooooooooooooooooooooooooooooooooooooooooooXooooooooooooooooooooooooXooooooooXooooooooooooooooooooooooooooooooooo",
"ooooooooooXooooooooooooooooooooooXoooooooooXoooooooooooooooooooooooooooooooooXooooooooooooX+:$oXoooooooooooooooooooooooooooooooo",
"ooXooooooooooooooXooooooooXoooooooooooooooooooooooooooooooooooooooooooooooooooooooooooooo %0xu* oooooooooooooooooooooooooooooooo",
"oooooooooooooooooooooooooooooooooooooooooooooooooooXoooooooooooooooooooooooooooooooooooo %wBGAi*ooooooooooooooooooooooo oooooooo",
"ooooooooooooXooooooooooooooooooXooooooooooooooooooooooooooooooooooooooooooooooooooooooooO0VHHHAi& Xooooooooooooooooooooooooooooo",
"ooooooooooooooooooooooooooooooooooooXoooooooXoooooooooooooooooooooooooooooooooooooooooo ;zGHHHHAp&oooooooooooooooooooooooooooooo",
"oooooooooooooooooooooooooooooooooooooooooooooooooXoooooooooooooooooooooooooooooooooooooo#qCHHHHHZa%ooooooooooooooooooooooooooooo",
"XoooXooooooooooooooooooXooooooooooooooooooooooooooooooXoooooooooooooooooooo.oooooooooooo %wBHHHHHAp&oooooooooooooooooooooooooooo",
"oooooooooooooooooooooooXoooooooooooooooooooooooooooooooooooooooooooooooooooooooooooooooooo%eVGHHHHZp* oooooXoooooooooooooooo ooo",
"ooooooooooXoooooooooXooXoXooooooooooooooooooooooooooooooooooooooooooooooooooooooooooooooooo$tVHHHHHAi* ooXX$oXoooooooooooooooooo",
"ooooooooooooooooooooooXXooooooooooooooooooooooooooXooooooo.o oooooooooooooooooo.oooooooooooo$eVGHHHHAi* X+>u2+Xooooooooooooooooo",
"oooooXoooooooooooooooo+$oooooo@@oXooooo$$$ooooooo$$oooooooO%$ooooooo+oooooooooO%ooooooooooooo$eVHHHHHAi&+3vGc3oooooooooooooooooo",
"Xoooooooooooooooooooo%403%ooo*691%ooX+*3w0:%ooo%>00,*#oo$&309:%ooo%>;ooo*2-oo$>03&oooooooooooo$wVHHHHHAp6vGHHc<o ooooooooooooooo",
"ooooooooooooooooooXX*dZDSj&o*cAAZj@oo7mDSSZx> 3cAADAbwo$9VASSZx;oo0mv;o$aZd$%wZDSx,ooooooooooo.%wBHHHHHDAGHHHGk=oooooooooooooooo",
"ooooooooooooooooooo ;mAnZZe+>VZBAZ2#-bGSnmGFg;qCZxvDGBw*iDmjNGGc=oeZB;o$hGjo;hDvADdoooooooooooo %wBHHHHHHHHHHDs@oooooooooooooooo",
"oooooooooooXoooooooX%qtuCFg+&wqgAA0&uAZa24gGAq1uq:2eVGc&6i4;6hAD0%eZN:O$lGjo%6u0VHxooooooooooooo &wBHHHHHHHHFh>ooooooooooooooooo",
"oooooooooooooooooooo+>rvFZwoo6iNGV<*cGAxddxFHpo$    dDN:$o X :xFl-tZB:o$hGj$o;rcDSpooooooooooooo  %wBGHHHHHDj> ooooooooooooooooo",
"ooooooooooooXooooooo>xGGVs%$3vGGBp+%zCAASASGHp XooooqZZ4OXooo%uFc:tZN>o$hFjo;gSGZf:oooooooooooooooo$wVHHHHDz:.oooooooooooooooooo",
"ooooooooooooooooooo&uGDz4&$;cGAg2&$@7aiwwtiSHpX+XXoouAV1$ooX *sGz;wZB>o%xFj+qGFc6*%ooooooooooooooooo$wBHHDx:ooooooooooooooooooXo",
"oooooXoooooooooooo >cGh21w9>ZHp*4t3%0Ng;**6SGu-3&$&*vGm%1>&$%0VF0%9CZ0$*bHh&aGB4-tq@oooooooooooooooo.$wBDz;ooooooooooooooooooooo",
"oooooooooooooooooo =hGZhmDv3NGmgmSv*9ZGbdjAGb3wNbpgBGAp=aVluxAGV>o-cGBugSGpouGSgvSn>oooooooooooooooooX$9u;oooooooooooooooooXoooo",
"ooooooooooooooooooo+6VGFGZu*wAGGGZ0$*aAGDGGc6$6NGSDGZp=%yDFDGGB9$ OwVGSDGx,.<NGDGDa&oooooooooooooooooo.$%ooooooooooooooooooooooo",
"oXooooooooooooooooo %0pjhw*o%qdzhq$oo;wgzhp<+ *0djhs0- o;uhzgu6ooo &9gxhi,o.$6ijhu: ooooooooooooooooooo  ooooooooooooooooooooooo",
"ooooooooooooXooooooXX X%%  X  o&%  oo  O*%XXXXX O&%  Xoo  $&$  ooooo.+&%XXooX  &$o ooooooooooo ooooooooooooooooooooooooooooooooo",
"ooooooooooooooooooooooooooooooooooooooooXXoooooooooooooooooooooooooooo.ooooooooooooooooooooooooooooooooooooooXooXooooooooooooooo",
"oooXoooooooXooooooooooooooooooooooooooXooooooooooooooooooooooooooooooooooXooooooooooooooooooooooooooooooXooooooooooooooooooooXoo",
"oooooooooooooooooooooooooooooooooooooooooooooXoooooooooooooooooooooooooooooooooooooooooooooooooooooooooooooooooooooooooooooooooo",
"ooooooooooooooooooooooooooooooooooooooooooooooooooooooXoooXooooooooooooooooooooooooooooooooooooooooooooooooooooooooooooooooooooo",
"oooooooooooooooooooooooooooooooooooXooooXooooooooXooooooooooooooooooooooooooooooooooooooooooooooooooooooooXooooooooooooooooooooo",
"ooooooooooooooooooooooooooooooooooooooooooooooooooooooooooooooooooooooooooooooooooooooooooooooooooooooooooooooooooooooXooooooooo",
"oooooXoooooooooXoooooooo oooooooooooooooooooooooooooooooXoooooooooooooooooooXooooooooooooooooooooooooooooooooooooooooooooooooooo",
"ooooooooooooooooooooooooooooooooooooooooooooooooooooooooooooooXoo.oooooooooooooooooooooooooooooooooooooooooooooooooooooooooXoooo",
"oXoooooooooooooooooooooooooooooooooooooooooooooooooooooooooooooooooooooooooXooooooooooooooooooooooooooXooooooooooooooooooooooooo",
"oooooooooooooooooooooooooooooooooooooXoooooooooXooooooooooooooooooooooooooooooooooooooooooooooooooooooooooooooooooXooooooXoooooo",
"ooooXooooooooooooooo ooooooooooooooooooooooooooooooooooXXoooooooooooooXoooooooooooooooooooooooooooooooooooooXooooooooooooooooooo",
"ooooooooooooooooooooooooooooooooooooooooooooooooooooooooooooooooooooooooooooooooooooooooooooooooooooooooooooooooooooooooooooXooo",
"oooooooooooooooooooooooooooooooooooooooooooXoooooooooooooooooXoooooooooooooooooooooooooooooooooooXoooooooooooooooooooooooooooooo",
"ooooooooooooooooooooooooooo ooooooooooooooooooooooXooooooooooooooooooooooooooooooooooooooooo ooooooooooooooooooooooooooooooooooo",
"XoooooooooooooooooooooooooooooooooooooooooooooXoooooooooooooooooXoooooooooooooooooooooo oooooooooooooooooooXooooooooooooXooooooo",
"ooooooooooooooooooooooooooooooooooooXooooooooooooooooooooooooooooooooooooooooXooooooooooooooooooooooooooooooooooooooXooooooooooo",
"ooooooooooooooooooooooooooooooooooooooooooooooooooooooooooooooooooooooooooooooooooooooooooooooooooooooooooooooXooooooooooooooooo",
"ooooooooooooooooooooooo ooooooooooooooooooXooooooooooooooooooooooooooooooooooooooooooooooXooooooooooXooooooooooooooooooXoooooooo",
"ooooXooooooooooXoooooooooooooooooXoooooooooooooooooooooXXooooooooooooooooooooooooooooooooooooooooooooooooooooooooooooooooooooooo",
"ooooooooooooooooooooooooooooooooooooooooooooooooooooooooooooooooooXoooooooXoooooooXooooooooooooooooooooooooooooooooooooooooooooX",
"ooooooooooooooooooooooooooooooooooooooooooooooooooooooooooooooooooooooooooooooooooooooXooooooXoooooooooooooooooooooooooooooooooo",
"ooooooooXooooooooooooooooooooooooooooooooooooooooooooooooooooooXooooooooooooooXooooooooooooooooooooooooooooooooo oooooooooXooooo",
"ooooooooooooooooooooooooooooooooooooooooooooXoooXoooooooooooooooooooooooooooooooooooooooooooooooooooXooooooooooooooooooooooooooo",
"ooXooooooooooooooooooooooooooooooooooooXooooooooooooooooooooooooXooooXoooooooooooooooooooooooooooooooooooooooooooooooooooooooooo",
"oooooooooooooooooXooooooooooooXooooooooooo  oooooooooooooooooooooooooooooooooooooooooooooooooooooooooooooooooooooooooooooooooooo",
"ooooooooooooooooooooooooooooooooooooooo oooOooooooooooooXooooooooooooooooooooooooooo+oooooooooooooooooooo.ooooooooXooooooooooooo",
"ooo ooooXoooooooooooooooooooooooooooooo$-44464444444444>oooooooooooooooooo  &9fjcvchp3@ XXoooooooooo&26444466-OooooooooooXoooooo",
"oooooooooooooooXoooooooooooooooooooooo -iNNNNNNNNNNNNNNk*oooooooooooooooX >icVSGHHGGANkw* ooooooooo$wcBNNNNNNg2 oooooooooooooooo",
"oooooooooooooooooooooooooooooooooooooo 1cHHHHHHHHHHHHHHA6$ ooooooooooooo$8cDHHHHHHHHHHHZf, ooooooo %gFHHHHHHHFp+oooooooooooooooX",
"ooooooooooooooooooooooXoXooooooooooooo 1xHHHHHHHHHHHHHHGl* ooooXoooXooo@0VHHHHHHHHHHHHHHGv>oooooooo%gFHHHHHHHHN<oooooooooooooooo",
"oooooXoooooooooooooooooooooooooooooooo :zGGHGGGGGGGHHHHHV: ooooooooooo+<VHHHHHHGFDGGHHHHHGv%ooooooX%gFHHHHGHHGShoooooooooooooooo",
"oooooooooooooooooooooooooooooooooooooo %0cccvvvvnvcnDHHHD<ooooooooooo ;BGHHHHGNi66ucAHHHHHAe$ooooo.%gFHHHGVBNVvwOooooooXoooooooo",
"oooooooooooooooooooooooooooooooooooooooo%::=::;;:::>vHHHGu% XoooooooX$wGHHHHZy>*$o&:8vGHHHHV=ooXoo %gFHHGN6>>,>&ooooXooooooooooo",
"ooooooooooooooooooooooooooooooooooooooooXX     X    fFHHGv> oooooooo >bGHHHZe%X XXo o3xGHHHFu%XXooo%gFHHGv@     oooooooooXoooooo",
"ooooooooooooXooooooooooooooooooooXooooooooooXXXo oXo9BHHHS6 ooooooXo 6GHHHGh$oXXoooooo4VHHHGb:XXooX%gFHHGv%ooooooooooooooooooooo",
"ooooooooooooooooXooooooooooooooXooooooooooooXXXooooo*cHHHGqoooooooXX 8GHHHN7ooooooooooohDHHHA> Xoo %gFHHGv%oooooooooooooooooXooo",
"ooooooooooooooooooooooooooooooooooooooooooooooXXoo . dHHHHg- ooooooXOtGHHHx&ooooooooooo7VHHHF< Xooo%gFHHGv%ooooooooooooooooooooo",
"oooooooooXooooooooooXooooooXooooooooooooooooooXXoO$&&iDHHHN6 ooooooX%iHHHHh oooooXooooo;vHHGD< Xoo %gDHHGv%XooooooXooooooooooooo",
"ooooooooooooooooXoooooooooooooXooooooooooooooo#%*2qiavDHHHGr  oooooX%uHHHHhXooooooooooo$immmc:XoooX%gFHHGv%XooooooooooooXooooooo",
"oooooooooooooooooooooooooooooooooooooooooooXX+6xZASDFGHHHHHsooooooooo0GHHHx*oooooooooooo*::::+ooooX%gFHHGv&ooooooooooooooooooooo",
"o oooooooooooooooooooooooooooooooooooXoooooo:gZGHHHHHHHHHHHc> ooXooo 8GHHHC0oooooooooooo     Xoooo %gFHHGv%XoooooooooooooooXoooo",
"oooooooooooooooooooooooooooooooooooooooooX+2xDHHHHHHHHHHHHHAe oooooo <AHHHGj$ooooooooooooooooXooooo%gFHHGv%Xoooooooooooooooooooo",
"oooooooooooooooooooooooooooooooooooooooooO:xGHHHHHHHGSDGHHHHg ooooooX:kGHHHZ0ooooooooooooooooooooo.%gFHHGv%ooooooooooooXoooooooo",
"ooooooooooooooooooooooooooXooooooooooooo *gGHHHHHDVbxggvVZGHc&ooooooX#6DHHHHN:ooooooooooooooooooooo%gDHHGv%XoXoooooooooooooooooo",
"ooooooooooooo oooooooooooooooooooooooooX+0GHHHHGZp-@+++@%6bDv2ooooooXX=bGHHHFg*ooooooooooooooooooo %gFHHGv%+oooooooooooooooooooo",
"ooooooooooooooooooooooooooooooooooXooo  >xGHHHHN<%ooooooo$%w0*XoooooXXo<ZHHHHAe%ooooooooooooooooooo%gDHHGv% oooooooooooooooooooo",
"ooooooooooooooooooooooooooooooooooooooo 9DHHHHb4+Xooooooooo$&OXoooooooo%uAHHHHA9$XooooooooXooooooo %hDHHGv% oooXXooooooooooooooo",
"oooooooooooooooooooooooooooooXoooooooo $uHHHHAiooooooooooooX ooooooooooo*zGHHHHV6 ooooooooooooooooo%fDHHGv@+oooooooooooooooooXoo",
"oooooo oooooooooooooooooooooooooooooooo-hHHHHx; ooooXooooooooXooooooooXoX2bHHHHHm6  ooooooooooooooo%gFHHGv&Xoooooooooooooooooooo",
"oooooooooooooooooooooooooooooooooooooo 2cHHHHp oooooooooooooooooXoooooooo 0NHHHHGv> oooooooooooooo %gFHHGv&Xoooooooooooooooooooo",
"oooooooooooooooooooooooooooooooooooooo 6NHHHGr  ooooooooooooooooooooooooooowZHHHHGj=oooooooooooooo %gFHHGv%Xoooooooooooooooooooo",
"oooooooooooooooooooooooooooooooooooooo 0ZHHHDq XooooooooooooooooooooooooooX$wDHHHHAd&oooooooooooooo%gFHHGv%XooooooXoooooooXooooo",
"oooooooooooooooooooooooooooooooooooooo 0ZHHHDe XoooooooooooooooooooXoooooooo*uDHHHHAt%oooooooooooo.%gFHHGv%Xoooooooooooooooooooo",
"oooooooooooooooooooooooooooooooooooooo 6NHHHGi ooooooooooooXooooooooooooooooo=dFHHHHZ9$oooooooooooX%gFHHGv&ooooooooooooooooooooX",
"oooooooooooooooooooooooooooooooooooooo.2cHHHHs XoooooooooooooX XooooooooooooXo:zGHHHHV3ooooooooooo %gFHHGv%XooooXooooooooooooooo",
"ooooooooooooo   ooo   oooo oo&oXooooooo&gHHHHb3 ooXooooooooo+3u&oXooooooooooXoo<vGHHHHN3 oooooooooo%gFHHGv%XoooooooooXoooooooooo",
"ooooooooooo @>7*O O:7-Ooo-4-$w9&ooooooo eGHHHGg$ooooooooooo 4vAg3@ ooooooooooooo6MHHHHHv, ooooooooX%gDHHGv&XoooXooooXooooooooooo",
"ooooooooXoX$6gzi;O3dza:O wc9&ux9 oooooX 6VHHHHV0$ooooooooX >vGHGc6@oooooooooooooX0VHHHHGk;oooooooo %gFHHGv&XooooooooooooooooooXo",
"oooooooooo <lvuCu;gmuNu* aV6#%na%ooooooX%uGHHHHV6*ooXooXo%>vGHHHHg; ooo   oo oo XXqZHHHHDh*oooooooX%gFHHGv%Xoooooooooooooooooooo",
"ooooooooo  em2*hpalt*tc4 pN$oOtxuooooooo >vGHHHHAd>%%$%%;yVHHHHHS6ooo@***=*****=**:iGHHHHAp%ooooooX%gFHHGv%Xoooooooooooooooooooo",
"oo ooooooo rN%@0zBx:O;Bq ab@oo%xj%ooooooXo5ZHHHHHGZNhidcVFHHHHHDw%oo$0VZCCCCCCCCVZCAHHHHHHZw@ooooo %gFHHGv&ooooooooooooooooooooo",
"oooooooooo rB%@elNx1O1N0 sb@oo.0zioooooooo$yAHHHHHHGDADGHHHHHHDi&oo %uGHHHHHHHHHHHHHHHHHHHHV8@ooooo%gFHHGv%ooooooooXoooooooXoooo",
"oooooooooo eb2%jaalt&tx4 ib@ooo%gv*oooooooo&emGHHHHHHHHHHHHHHAd*oooo%uHHHHHHHHHHHHHHHHHHHHHGM<+ ooo%gFHHGv%Xoooooooooooooooooooo",
"ooooooooo  2gxfBt;amgnu* pN@oo. 6xi$ooooooooX3gVHHHHHHHHHHHAvr&ooooX@rHHHHHHHHHHHHHHHHHHHHHHGk> oo %dFHHGv%Xoooooooooooooooooooo",
"oooooooooo +6bbj, 9vvc>o.0f+oooo%eN:ooooooooXX@9vBZADGFAACmi; ooooooO6bBMNNMNMMMNBMNNNNNMMMMMM< ooo$qvNBbp@ooooooooooooooooXoooX",
"ooooooooooooo+%+ooo@%+oooo+oooooo<xy%oooooooXooo+*9phzli7;$ooooooooooo++++@@@@@@++++@+@@++@@+@+oooo oo+++oooooXooooooooooooooooo",
"ooooooooooooooooooooooooooooooooX@6h= oooooooooooo#$%%%$$ooooooooooooooooooooooooooooooo ooooooooooooooooooooooooooooooooooooooo",
"oooooooooooooooooooooooooooooooooo@*+oooooooooooooooXXXooooooooooooooooooooooXoooooooooooooooooooooooooooooooooooXooooXooooooooX",
"ooooooooooooooooooooooooooooooooooXoooooooooooooooooooooooooooooooooooooooooooooooooooooooooooooooooooooooooXoooooooooooXXXXXooX",
"oooooooooooooooooooooooooooooooooooooooooooooooooooooooooooooooooXooooooooooooooooooooooooooooooooooooooooooooooooooooooXX+Xoooo",
"ooooooooooooooooooooooooooooooooXooooooooooXooooooooooooooooooooooooooooooooooooooooooooooooooooooooooooooooooooooooXoXXXX Xoooo",
"oooooooooooooooooooooooooXoooooooooooooooooo oooooooooooooooooooooooooooooooooooooooooooooooooooooooooooooooooooooooXXX+XX+XooXo",
"oooooooooXooooooooooooooooooooooooooooooooooooooooooooooooooooooooooooooooooXooooooooooooooooooooooooooooooooooooooooooooooooooo",
"ooooooooooooooooooooooooooooooooooooooooooooooooooooooooooooooXooooooooooooooooooooooooooooooooooooooooooooooooooooooooooooooooo",
"ooooooooooooooooooooooooooooooooooooooooooooooooooooooooooooooooooooooXooooooooooooooooooooooooooooooooooooooooooooooooooooooooo",
"ooooooooooooooooooooooooXooooooo oooooooooooooooooooooooooooooooooooooooooooooooooooooooooooooooooooooooooooooooooXooooooXoooooo",
"ooooooooooooooXoooooooooooooooooooooooooooooooooooooooooooXoooooooooooooooooooooooooooooooooooooooooo oooooooooooooooooooooooXoo",
"oooooooooooooooooooooooooooooXoooooooooooooooooooooooooooooooooooooooooooooooooooooooooooooooooooooooooooooooooooooooooooooooooo",
"oooooooooooooooooooooXoooooooooooooooooooooooooooooooooooooooooooooooooooooooXoooooo ooooooooooooooooooooooooooooooooooooooooooo",
"ooooooooooooooooooooooooXoooooooooooooooooooooooooooooooooooooooXooooooooooooooooooooooooo oooooooooooooooooooooooooooXooooooooo",
"ooooo oooooXooooooooooooooooooooooooooooooooooooooooooooooooooooooooooooooooooooooooooooooooooooooooooooo oooooooooooooooooooooo",
"ooooooooooooooooooooooXooooooooooooooooooooooooooooooooooooooooooooooooooooooooooooooooooooooooooooooooooooooooooooooooooooooooo",
"ooooooooooooooooooooooooooooooooooooooooooooooooooooooooooooooooooXooooooooooooooooooooooooooooooooooooooooooooooooooooooooooooo",
"oooooooooooooooooooooooooooooXoooooooooooooooooooooooooooooooooXoooooooooooXoooooooooooooooooooooooooooooooooooooooooooooooooooo",
"ooooooooooooooooooXoooooXoooooooooooooo ooooooooooooooo oooooooooooooooooooooooooooooooooooooooooooooooooooooooooooooooooooooooo",
"ooooooooooooooooooooooooooooooooooooooooooooooooooooooooooXooooooooooooooooooooooooooooooooooooooooooooooooooooooooooooooooooooo",
"oooooooooooXooooooooooooooooooooooooooooooooooooooooooooooooooooooooooooooooooXooooooooooooooooooooooooooooooooooooooooooooooooo",
"ooooooooooooooooooooooooooooooooooooooooooooooooooooooooooooooooXoooXooooooooooooooooooo ooooooooooooo ooooooooooooooooooooooooo"
};
