/* XPM */
static char *cc4d9e90b2aa4440db70813b70a2f17a7W7KdW9KphbcHkBg[] = {
/* columns rows colors chars-per-pixel */
"129 128 85 1 ",
"  c #5CB85D",
". c #60BA60",
"X c #63BB62",
"o c #65BB65",
"O c #67BD67",
"+ c #69BE69",
"@ c #6CBF6B",
"# c #6FBF6D",
"$ c #70BF6E",
"% c #73C071",
"& c #74C173",
"* c #75C174",
"= c #79C377",
"- c #7AC378",
"; c #7BC479",
": c #7CC57A",
"> c #7EC67D",
", c #83C782",
"< c #84C883",
"1 c #86C884",
"2 c #89CA87",
"3 c #8BCB8A",
"4 c #8DCB8B",
"5 c #8ECC8C",
"6 c #91CD8F",
"7 c #91CE90",
"8 c #94CE92",
"9 c #95CF94",
"0 c #98D095",
"q c #9BD199",
"w c #9CD29B",
"e c #9ED39D",
"r c #9FD49E",
"t c #A1D49E",
"y c #A1D4A0",
"u c #A4D5A2",
"i c #A7D7A6",
"p c #A8D7A6",
"a c #ABD9AA",
"s c #ACD9AB",
"d c #AEDAAD",
"f c #B0DBAF",
"g c #B2DBB1",
"h c #B4DCB3",
"j c #B7DEB5",
"k c #B9DFB7",
"l c #BADFB8",
"z c #BDE0BB",
"x c #BEE1BD",
"c c #C0E2BF",
"v c #C3E3C2",
"b c #C4E4C3",
"n c #C7E4C6",
"m c #C9E6C7",
"M c #CAE6C8",
"N c #CCE7CB",
"B c #CCE8CB",
"V c #CEE9CD",
"C c #D0EACF",
"Z c #D1EAD0",
"A c #D4EBD3",
"S c #D5EBD4",
"D c #D5ECD4",
"F c #D8EDD7",
"G c #DBEEDA",
"H c #DCEFDB",
"J c #DEEFDE",
"K c #DFF0DF",
"L c #E1F1DF",
"P c #E1F1E0",
"I c #E4F2E3",
"U c #E5F3E5",
"Y c #E8F4E7",
"T c #E9F5E9",
"R c #ECF6EB",
"E c #EEF7ED",
"W c #EFF8EE",
"Q c #F0F8EF",
"! c #F1F8F0",
"~ c #F4F9F3",
"^ c #F6FBF6",
"/ c #F8FBF7",
"( c #F7FCF8",
") c #FBFDFB",
"_ c white",
/* pixels */
"                                                                                                                                 ",
"                                                                                                                                 ",
"                                                                                                                                 ",
"                                                                                                                                 ",
"                                                                                                                                 ",
"                                                                                                                                 ",
"                                                                                                                                 ",
"                                                                                                                                 ",
"                                                                                                                                 ",
"                                                                                                                                 ",
"                                                                                                                                 ",
"                                                                                                                                 ",
"                                                                                                                                 ",
"                                                                                                                                 ",
"                                                                                                                                 ",
"                                                                                                                                 ",
"                                                                                                                                 ",
"                                    X                                                                                            ",
"                                   nE*                                                                                           ",
"                                  n__W=                                                                                          ",
"                                 n____Q=                                                                                         ",
"                                n______M                                                                                         ",
"                               n______P+                                                                                         ",
"                              n______P+                                                                                          ",
"                             n______K+                                                                                           ",
"                            n______K+                                                                                            ",
"                    *G,    n______KO                                                                                             ",
"                   *E_^,  n______KO                                                                                              ",
"                  *E___^<n______KO             >mx$  +a6   3a*    8cZj#    oymBaX    qnBp     XaVq    >mx$                       ",
"                  P____________JO             C___)# 2_E   G_a  ;W_____,  0)____)  &Q____);  *____n  C___)#                      ",
"                  7)__________JO              __sT)5 2_E   G_a  ^_^drA_6 -__UuaY_  T_)bz^_!  n_Uh_F  __sT)5                      ",
"                   7)________JO               __4    2_E   G_a j_/X   9& P_G    p 3__;  #__1 Z_PXX   __4                         ",
"                    7)______JO                P__T3  2_E   G_a K_j       )_*      h__^^^^__g 3___vX  P__T3                       ",
"                     8)____JO                  c)__g 2_E   G_a E_w       __       M__))))))h  <T__^o  c)__g                      ",
"                      8___JO                    XD_) <_Q   J_p V_v       !_3      j_P    **     4)_j   XD_)                      ",
"                       9_JO                  u~e ;__ +__o  )_6 0__*   n8 B_!X  +P >__2  X^_0OHT  I_xu~e ;__                      ",
"                        1O                   g__K(_T  E_^Z!_)   H__GZ^_y @^_)AG)_  F__GJ__~  )_^P__3g__K(_T                      ",
"                                              D___E:  *E___^1    C)___W;  +Y____K   l____U%  3)__)v  D___E:                      ",
"                                               %t#      ;y,        >e-       50#     X6q#      76     %t#                        ",
"                                                                                                                                 ",
"                                                                                                                                 ",
"                                                                                                                                 ",
"                                                                                                                                 ",
"                                                                                                                                 ",
"                                                                                                                                 ",
"                                                                                                                                 ",
"                                                                                                                                 ",
"                                                                                                                                 ",
"                                                                                                                                 ",
"                                                                                                                                 ",
"                                                                                                                                 ",
"                                                                                                                                 ",
"                                                                                                                                 ",
"                                                                                                                                 ",
"                                                                                                                                 ",
"                                                                                                                                 ",
"                                                                                                                                 ",
"                                                                                                                                 ",
"                                                                                                                                 ",
"                                                                                                                                 ",
"                                                                                                                                 ",
"                                                                                                                                 ",
"                                                                                                                                 ",
"                                                                                                                                 ",
"                                                                                                                                 ",
"                                                                                                                                 ",
"                                           *tkVVj0%                                                                              ",
"                   !_______!X            k!________Ei                   Q______________t                                         ",
"                  h_________+          2^____________^:                *_______________l                                         ",
"                 X)_________+         q________________y               x_______________l                                         ",
"                 m__________+        >__________________,              E_______________l                                         ",
"                 6FFFFF_____+        E_____)x@  2z______)o            O____/nnnnnnnnnnv&                                         ",
"                       L____+       a_____(*      @P_____z            a____v                                                     ",
"                       L____+       (____~@         R____^            P____:                                                     ",
"                       L____+      ;_____$          *_____1           ____(                                                      ",
"                       L____+      h____J            J____a          7____A                                                      ",
"                       L____+      V____s            z____n          Z____9                                                      ",
"                       L____+      G____2            w____D          (____                                                       ",
"                       L____+      #hhhhX            d____Z         ;_____FKZvtX                                                 ",
"                       L____+                        C____v         v___________U-                                               ",
"                       L____+                        )____7         W_____________n                                              ",
"                       L____+                       d_____         O_______________!X                                            ",
"                       L____+                      +_____Z         s_____))_________P                                            ",
"                       L____+                      U_____&         P__Eao  X6v_______n                                           ",
"                       L____+                     x_____b          )!5        #P______#                                          ",
"                       L____+                    0_____^           &            z_____m                                          ",
"                       L____+                   >______>                         E____)                                          ",
"                       L____+                  +)_____u                          ;_____6                                         ",
"                       L____+                  E_____V                            L____f                                         ",
"                       L____+                 J_____Y                             v____M                                         ",
"                       L____+                n_____^X                             0____K                                         ",
"                       L____+               d_____)%                              ,____U                                         ",
"                       L____+              0______,                               i____H                                         ",
"                       L____+             ,______9                                V____N                                         ",
"                       L____+            #)_____a                                 E____h                                         ",
"                       L____+           X!_____x                OJV              q_____%         e                               ",
"                       L____+           U_____Z                7)__0            X)____!         q(  gc   *nj   Xzn$              ",
"                       L____+          Z_____I                a_____7           F_____g         ^y oS_X $)FEI  ETJ)O             ",
"                       L____+         k_____!X                9______b        *Q_____^         gW    _X jP  )+*)  Ti             ",
"                       L____+        r______jddddddddddddd1    B______(p$   2v_______6        X)3    _X Uh  TalL  vG             ",
"                       L____+       2_____________________V     U_________/_________a         nL     _X ^0  GmDV  aE             ",
"                       L____+      *)_____________________V      U_________________d         #)*     _X Dn  ~7uE  ZM             ",
"                       L____+     O^______________________V       z______________^1          GC      _X e^X<_ o_;O)4             ",
"                       G____+     n_______________________x        ;F__________!u           ,)O      _   K)_d  l__D              ",
"                                                                      1dNITJCd+             Tl            $X    O#               ",
"                                                                                           3(                                    ",
"                                                                                            #                                    ",
"                                                                                                                                 ",
"                                                                                                                                 ",
"                                                                                                                                 ",
"                                                                                                                                 ",
"                                                                                                                                 ",
"                                                                                                                                 ",
"                                                                                                                                 ",
"                                                                                                                                 ",
"                                                                                                                                 ",
"                                                                                                                                 ",
"                                                                                                                                 ",
"                                                                                                                                 ",
"                                                                                                                                 ",
"                                                                                                                                 ",
"                                                                                                                                 ",
"                                                                                                                                 ",
"                                                                                                                                 ",
"                                                                                                                                 ",
"                                                                                                                                 ",
"                                                                                                                                 ",
"                                                                                                                                 "
};
