/* XPM */
static char *result[] = {
/* columns rows colors chars-per-pixel */
"128 128 22 1 ",
"  c #30301C",
". c #3C3824",
"X c #444028",
"o c #4C4C2C",
"O c #545434",
"+ c #605C38",
"@ c #5C4C44",
"# c #64544C",
"$ c #6C5C50",
"% c #686440",
"& c #706C44",
"* c #787448",
"= c #786458",
"- c #806C60",
"; c #8C7468",
": c #947C70",
"> c #848050",
", c #8C8854",
"< c #949454",
"1 c #9C8478",
"2 c #A88C7C",
"3 c #AC9484",
/* pixels */
"=--==--;-=$@=-;-;;-;>$;;;;--;----;;;---;;;-;;;--=$#$$#$$-------==$=----;;;;-----=$$$o==$=---;---;--=$=,--==#@#$===O-;--,------=-",
"----=----$#$$;--;-;-+#;;;;---;-;;--;----;;--;--==$$$##$==--;;---==&=--;;;;------=%=$=$=$=---,&------=-----=$##==&+----;---;&-=-;",
"--==-----=$$-;---;;->@-;;--;-------;;;--;;----;-=$+$#$=$=---;----==--%-;;;-------$===-==$=-,&%---;--==-;;-==$$=--+-=;=;---------",
"--===-;+-=$=>-;;---;;o-;;--;---;---;;---;;;---;-=+$=$=%===--;;----=-=;-;;->&;$=--===---==--,$O=----=-=>&;&-=$&=---;=;;-;---&--;;",
"---=--;>&=&-+&--;;;;-;-;;;-;;-;;--;--;;-;-;;-;;-==-=$==-;--;;;--===-;-;;;-+$;$---=-=-------&$%----;---->---===>------;;;;---=---",
"--==---;&-&--+;-------;;--;-;;;;;;-;&;;;--;------==$=$--;;;;;;--;-=--;;;;--+-----=------;->-==-;--;-=-;-+&--=-----;;;;--;----;--",
"--=------;--;-------;;-;;;;;;;;;-;--;%;-;;;;---<&--===-;&-;;;--------;;;;;-$----------------=--;-;;;-;;------;----;=;=;;;;--;;;;",
"--------;-;----;-;--&;--;;;;;;-;---;;;;;;;-;-;;;;-==$=-=;;;;;--;----;;;;;;-----;-;------------;;;;;;;;----=----;;--;-;;;;;;;-;-;",
"--------;--;;;;;:;;;;:;::::::::;;:;;:;&;;::::::;;;-=-;::::;:;;;;;;;;;;:::;-;;;;:;:::;;;;;;;;;::;::::;:;::;:;:;:;::;;:;--;;;-$%--",
"--------;;;1211111111111221:211211111*22222122121::::1,21122212111122222211111112212211111122111222121222222122222133:--;;--=+;;",
"---------;;2:=$$$$$$$=$=========$$$$$===$======$$$$$$$$=====$$=$$$$$===$=$$$$$==$===$$$$===&$$===$===O$$=$$$====$$=13:-;-----$--",
"-;-------;;1;$==================*================$$=$=======*======================$=$=====&++=======+============$:2;----;=---;",
"------;;+%;,;$=;;-;--;----;;&---+&;;---;----;;;;-==--;;;-;;;-O;--;;---;;;---=;;;;;;;=---;;-%&---;;;;;;--;--;-;;;-=$;2;;;---=---;",
"------;+&O;1;$=;:;;;;;;:;;;:;;;:,&;;;;:;:;;;:::;;;-;:::;-::;,O*;;;;*;;;:;;--*;:::=:-;:;;::<+:&;;:::::;::;;;::::;-=$;1:;--;-;----",
";--;-;-$%-:1:$=-;+-------;-;;&--$%--;--;;;;;--;--=&-;;;=;;;;>&%;---$---;;--------;#;;;;;-;,&%;--;;;;;-;;>O--;--:-=$;1;;;-;-;---;",
";;;;-;-$&;:1;$=;;$---&-;;;-;;-$-$&-;--;;;;----;;----;-;;;;;;,$#----$--;;;=,%--;-;;;;;---;;;&--;-;-;;;---&$;;;-;:&=$;1;;-,-&;----",
";>+;;;-;--;1;$=-;--&&-----;;;-#-%-----;-;;-;;;;;-$---;;;;;;---#---;+---;-=$O=;-;;;;---&&;,-&-&&-;-;-----=>&--;-:==$;1:--&--;----",
"--O=;-&-&-;1;$=;;----;----;;;-$%;--;-----;-;;;;;-+&;;-;----;;-;---;;-----;-o-;-;;;;-;---;,+$;+--;-;--;-;=+%-;-&*$+$;2:;----;----",
"--$$--&---;1;$=;;-------;;;;-;+$&--------;;;;;;--++;--;-;-;;;----,---$&;;--$-;-;;-;-;---;;+#%%-;;;-;---;=+%-;-&*$+$:1:;-;&$;----",
"---$------;2:$=:;---------;;;;-;;--;-&;--;;---;;;--;;-;-;-;;;;;--,+&-+-;;---=-;-;-;;;;;;;--+$&--;--;-=--=$&;--&;-=$;2;;;-;=;----",
"---+-;-;--;1:$=:--;;--;----;-;-;-----&;-;---;;;;--;-;;---;;;;;--;-+&----;---;;;;;;-;;;--;;-&--;-;-;;-$-;=$-;---;-=$:1:;;--+;----",
"--->$>;--;;1:$=;-----------;-;-;-------------------;;;;;;;;;;;-;-;>%;-;;----;-;-;------;;;-=----;-;--=;-,%-----;-=$;1;----=;----",
"--->$;;---;1:$#;----;;----;-;--;---------;-----;-;;-;-;;;;-;-;--;;--;-;----;;;;;;;->---;;;;-&;-;;;;-;----%;;---;-=$;1:-;--&;----",
"---=O;;--;;2:$##===============#===+================================$=$==========$=*=========#+=======*=O+==+==*=$o;1;-;--;;;---",
"----o-----:2;##X$$$$$$$$$$$$$$$oo$$$$$$$$$$$$$$$&$$$$$$$$$$$$$$$$$$$$$$$$$$$$$$$$$$$X$$$$$$$o#O$$$$$$$$$#$$$$$$$$#o;1;-;;%-;----",
"---------;;2;$+$-;----;-;-;----+#&;$&&---;-;;;;->&-&---;--;;;;;;;;-;;;;-;%;-;;-;;;--$-;;;--;-&&;-----;----;;-----=$:1;--,--;----",
"--+$;;-;--:1;$=:;:;;;;;;--;;:;;:-=;>*;;;:::;:;:;;*;;:;:;;:::::::;:::;;;::;;:::;;:;;;*;:;::;:;;;:;;;;;:;;:;;;;;:::=O:2;--;---;;--",
"--=o------:1:#=*;;------>o--;-+--$=@%----;;;-;;;-;---;-;-;;;;;;;;;;-;;;;;----;-;;;;--;-;-;;->%---------;-$-;-;-;:=O;1;---;--;;--",
"---$&-----:2;#=;--------;$-----;-;-+--=--;;-;;-;-;;;;;;;--;;;;;;;;;;-;;-;;;;;;;;;;---;;;;--+&+---------;+--;;--;;=$:1;----------",
"---$%;---;:1:$=;;;-----;-;;----+-----+oO-;--;--;;;;;--;-;-;-;-;;;;-;;;;-;-;-;---;;=;;;-;;;->&+-;;------;-=;;--;;;=$:1;-------;--",
";--O+;;--;;*;$=:-;------>$-;---;$----+X@%--+$&;;-;-;--;-;---;;;;;;;--;;;-;;;-;;;;;-;;;;;;;-+++;--;-=-----;;;----;=$;1;----------",
";-;=@-&&-;-*;$=:---------$=--$;------$%@%---$&-;;--;---;;;--;;-;;;-;-;;;-;;-;-;;-;-;;;;;;----&;---------;-;-----:=$;1;------&&--",
";-,;++$%=;-;&$=:--------;=$->o--;--;-$#@&--+$&-;-;-;;--;;;;-;;---;;;;---;-;--;;-;;;;;;;---&=&;---;;-;;-;;-------;=$;1:------%&--",
"-;;-;--&---;=$=;-----------;-+&-%-----$X-;;+$---;---;;-;--;;;;--;--;;-;--;;-;;;;-;-;-;-----$--;-&---;;;-;--;;---;=$;2;--;---$-;-",
"$;;;------;:*$=;---------;;;;$--+--;---$-=------------;;---;;--;-&-;;-------;;;;;-;;;-;------;------;;;;---;;;--;+$;2:-;;---&-;-",
"O-,;--;-;;;*&$=:---------;-;;--+$--;;;------=-=-;-;;-;;;;--;;---+-&;;;;;-;;;;;;+;;;;---;;;--;-;;---;;;;;-;;--;--;+$*2;-;-----&--",
"O+,;----;-;**$=;-----------;;-;$$&--;---+&--&--;--;--;;;;--;;;--$O+-;;;;;;;;;;-#-;;;;--;;;;;-;------;;-;;-;-----;+$;2;----------",
"$o;;-;--;-;:;$=;-----------;;-;-$$-;;;==%---=;------;;;;--;;;---$oO--;--;;;;;;+X-;;;;-;;;;=;--;-----;--;;;;;-;--;=O:2;-------=-;",
"-&;;--;---;,:$=;----------;;-;;==------&--;--;;-----;;;---;;;;--=$$-;;;;;;;;;-+X&;-;--;;;;;;;;--------;-;;;;;;--;=$:2;----------",
"-%---;----;1;$=;-----------;;-;----;-;--&-;----;-;;;;;;-=-;;;------&-;;-;;;;;;-$--;--;;;;;;-;;;---;;---;---;;-;-;=$;2;----------",
"-------;;-;1;$=;------------$----;;---;-;;-;;--------;;-+-;;;;------;;;;;;-;;;-------;;--;;;;;--;;;;;;;--;$-----;=O*1;----------",
";---------;2;$=;------------&&;-;------;;;;;;-;------;;=$&-;;;;;;;;;;;;;;;;;;;-$&&---;;---;;;;;-=--;-;--;-O---&-;+$*2;----------",
"--;----$;-;2;$=;;--------;--O&;----------;;;;---------;+-+;;;;;-;;;;--;;-;;;;;+@%---;;----;;;;;-&+-;-;----+--;;-:=$;1:-----;----",
"-;------;-;2;$=;-------$%;--+---------;;--;;;;;-------;--%;--;;;;;;;;;;;--;-;+$%%--;;;;---;--;;;;-&-;-;;;;;;;---;=$-1;------;--;",
"---;;----;;2#$=;-;-----$+>--%--------;---;;;;;;---------$$-;;;--;;;;;;-;;-;--$oO%--;;;;------;;;;-;-;;;;;;;-----;=$-1:------+---",
"--%;;--;;-:2;$=;-;----;$$>-----------;--;;;;;;;-;-----;=-&-;;;-;;;;;;;;;-;-=$#+O-&-;-;-------;;;;------;;;;-----;=$;1;---;,=----",
";%--;---;-;1;$=;-----;;;#;-;-;-;;;-------;--;;;-------;---;----;;;;;;;;;---==+++-&---;------;;;;;;;-;;;;;;-;;---;=$;2:---,=%;--;",
"-;--;;--;-:2;$=;----;-;-&--;----------;---$----;;-----;;-;;;;;;;;;;;;;;;;;;--+o$-&-;-;;-------;;;----;;;;;;;;;--;=$:1;--;&-$---&",
"-;;-;;--;-;1;$=;--;-;-;--;;;---;-;-------+$=---;-------;--;;;;;;;;-;;;;;;;;;--+=&&-;;;;;-----;;----;;;;--;;;-;--:=$;,*-=--=--;-,",
";;;-;-;-;-;2:$=:--;--+-;-;-;----;-------->$=-----------;--;;;;;;;;;;;;;;;;;;;%>&--;;;;;;----;-=$=-;---;;-----;--;=$;1;-=--=-----",
"--;;;;;-;-;2;$=;--;;;--;;;;;;--;----------$=---;-------;-;;;-;-;--;;;;;;;;;;;;;-;-;-;;;;;--;-$$+--=--;;;;-------;=$;1:----------",
";;;;;;--;-;1;$=;-;---;;-;;;-;-------------++&-;--------;;;;;;-;;;;;;;;;-;;---;;;;-;;;;;;;---*o%==---;-;;;--;----;=$;2;----------",
";-;--;---;;1;$=;;-----;-;;;;;-----------;-==----;------;;;;;;-;;;;;;;;;;-------;;;;;;;;;;;--*O+---;---;;;;;-----;=$;1;---;------",
"--;;;;;---;2:$=;;;;---;;--;;;-;;---------;+------;-----;;;;;;;;;;;;;;;;;-------;;;;;;;;;;;-;*+,+=--;--;-;;---;;-:=$;1;--;-;-----",
"---;------;2;$=;---;--;;--;;;;-;---------;---;-;-;;;---;;;;-;;;;;--;;;;;--------;;;;;;;;;---;$*+&;;-----;;--;;--;=$:1;;--;-;----",
"-;-;;-----;1;$=:--;;-;--;;;----;--------;-;;--%-;;;;-;;--=;;;;;;;-;;-;;;;--------;;;-;;-;;--;,%-;----;-;;--;;;-;:=$;2;;---------",
";-;-;----;:1:$=;------=---;;-;;;------;-=$;--+#=-;;;;;;-=&-;;;;;;;;---=-;;-----;;-;;--;-;;---,o--,+=;;;;---;;;;;;$O;2:-;$-;;----",
";;--,---;;;1;$$;--;-;=-;;--;;;;--;-;-;-;=$--->$=-;;;;;;-=%-;;;;;;;;==-=--;;;---;;;;--;;;;;--;->;====-;;--&-;;;;;:=O;1;-+$&;;;---",
";---;;--;-:::#=;;--%;;----;-;;;;;-;-;;;-+$----&---;;-;;--&-;;;;;;;-==--;-;;;;;;;;;--;;;-;;;--;;;-=-+%;-=-&;-;;;;:=$;>:-OO&;-;---",
";-=-;;---;:::$=:--;=--;;;--;;;;;-;;-;;--++----;-;;;-;;;----;;;;;;;-----;-;;;;;;;;;--;;--;;;;---;=-O$&--;--;;;;;;:=$;1;-$+-;;;---",
"----;;--;-:1;$=:----=-----;;;;;;;---;;----;--==$-;-;-;---=-;;;;;;;----;;;;;;;;;;;;-----;;;-------+@+-;;;;-;;;;-;;=O-,;-+-;;;;---",
"-;-=;;-;--:1;$=;-----;----;;;;;----;-;-;;;---=+=-;-;-;--==-;;;;;;;-;--;;;;;;;;;;;;;=--;;;;;;--;=-+&%%--;;;;-;;-;;=$-1;;--;-;;-;-",
"-----;--;-;:;#=:-;--;;;-;-;;;;;-=-;-;;;-;-;-;==&=&---;--===;;;;--;---;;-;;;;;;;;;;-==-;;;;;;;-;=-+&X%-;;;;--;;;-;=$=1;;;;-;;;--;",
"--=-----;--2;$=;;-;;-=-;;-;-;-;---;;;----;---+=-o=---;--+=&--;;----;;;---;;;;;;;;-----;;;;;;;;;--=+O%-;;;;;--;;;:=$;1*-;-;-;;-+-",
";-----;--;%1:$=;;;;-$%---;;--;;;--;-;-;;-;;-=$O=o&-;--;-$&&--;-----;;;;--;;--;;;;--;;;;;;;;;;;;;;-+&&-;;;;;;;;;;:=$:1;-;-----;+-",
"---;-;;;-;;1:$=;;;--=+&;;;;-;;;;;;-;;;;;--;;=o%%%-----;-$&&;-;---==--;;;;-;;;;;;-==-;;;-;;;;;;;;;>@%=-;;--;---;;:=$:1;;;-----$+-",
";;--;;;;=-:1:$=;;-=-$$=;;;;--;---=-;-;;--;;;>Oo&-;----;-+=;-;-;-+$$--;;;-;--;;;;-==-;;;----;;;;;->#o&-;;;---;;;;:=$;2;;;;-------",
"---;;-;;=;:1:$=;--===-&;---;;;;--+-;-;;-;--;==&-------;-=-;;;--=$#$-;;;---==--;;;=--;;;---=;;;;;->oO%-;;;-----;-;=$:2;;;;;---=--",
";-;;;;;;--;2:$=:;--==$O;--;-;;--;-;--;;;;---=#%;---------;;;----=$$--;;---===-;;;=-;;;;;;==-;;-;=++%%-;;;------;:=$:1;--;--;=---",
";--;-;;--=;1:$=:;;-=$@+;-;;;;-;---;;;--;;=--+%O;-----;;-=;;;-----=---;;--;=+$-;;;=-;;-;;-==-;;;--+XO%-;----;---;:=$:2:;;-;--=-;-",
"-;-;;;;;-%;2:$=:-;-=#+=---;;;---;--;;;--;=--+$+---;-;;;=-;;;---====-;----;=$+-;;;--;-;---+--;;--=++&--;----;;--;:=$;2:;;--------",
"--;;;;;;=$;2;$=:---$@%----;;--;-;-------;=--=$%----;;;---;;;;--=$==-;----;->$-;;;-;;;---=$-;;;---------;--;;;---:=$;2;;;;-------",
"=---;;-;==;2;$=;-;=@@%&---;;--;--;-----;-;;;-@%;---;;---;;;;--===-=-------;---;;;-;;----=+-;;----=--;--;--;;;;--;=$;1:;;;-------",
"=-#&;-----:2;$=;--=@@+*------;-;-;-=---;-;--=@&;-;-;;--;--;;-=$-----;;----;===-;---;;--+==--;----===;-=;--;;;;;-:=$;2;-;;-------",
"=$@-;---;;;1;$=;;;$$X------;-;-;;-=+-;;-;;;=+ &--;-------$;;-=$==;;;;;----;+=%;;--;-;-==-;;;-----=$=;+&;;-;;---;:=$;1;-;;;------",
"=$$-;----;;1;$=:;;=$--;----;;-;-;--+-;--;;-=+O%;--;;;;;-+#;;-=%%=;;;;-----;-==----;;;;=--;;------=#=;-&=--;--;-;:=$;1:-;;-------",
"=$--;;----;1;$=:-;+$-;----;--;;-;-;-;;-;;;===OO-;;;---;=$X-;-=+%&-;;----;-;;---;-;--;;-;;;;------=%&;-;;-;;;-;--:=$;1;;;;----;--",
"+$%&-;---;;1;$=:--=+-;----=$--;;--;;;;;;;;--+oO---;---->$+--==$%&;;;--;-;;-;-;;;----;;;;;;;-----;=&=---;-=;;--;-:=$;2:;;;------;",
"=#$%-;----;1;$=:----;----=$@&--;;-;;;;;-;;--=OO----;-;->&&;-==$=&-;;-;---;;;--;-;--;;;;;;;----;-;-+-;----;;;--;-:=$:2:;;;-----;;",
"-#$$&;----;1;$=:--;;;----=$@&---;-;;;-;-;;;-=$%----;-;;-=----=+=&--;;--;-;;;---;;;;;;;;;;;------;;;;--;;;;;=----:=$;2;;;;-----;;",
"=$%&-;;---;1:$=:;;-;=---;=# &---;;---;-;;;;-+#+---;;;;;---=--+=----;;----;-;;-;;;-;;;;;-;;------;;-;-;--;;;;----:=$:1:;------;;;",
"-$--;---;-;1:$=;--;=--;-;$%%----;;;=--;;;;;-+oO&--;;;-----=-=+&-;-;-;;-;;;-;;;--;-;-----;---==--;;-;-;;;;;;----;:=$:2:;;----;;;;",
"$$;;;-;-;-:2:$=:;;;------=oO--;;;;==-;-;;;;==#%=--------;=====--;;;;-;-;;;;;;;--;;;-==;----=+$--;;;;;;-;;;;;-+-;:=$:2:;-----;;;;",
"O@-;-;-;;-:2:$=:;;;--;---$@%--;--;+=-;--;;-=$$&&;;;----;;===-----;;;;;;;;;;;;;--;-;-==----=$==-;;;;;---;;;;-=%-;;=$:2:-;---;;;;;",
"oO&--;-;;;;2:$=;;;-=---;-$@%-;;-;;=-&--;;;;=$=&--;;--;-;-==----=-;;;;;;;;;;;;;;;;;--==---=$$=--;;;;;;--;;;;-$=-;:=$;1;--;;--;;;;",
"#=&;--;;-;;2:$=--;------=#$%-;-;--;-=--;;;;=+---;;;-;;;;-==-;;-==;;;;;;;;;==;;;;;-====---$@==-;;;;;;;;-;;;;-$-;;:=$:2:--;;;;;;;-",
"$&$--;;;-;;2:$$-;;-;;&-;=#=&-;-;-;;;;--;;;;-------;;;;;;;=--;--=-;;;;;;;;-$+-;;;-=@==---=$#&--;;;;;;;;-;;;--$--;:=$:2;;-;;;;;;;;",
"$$@---;-;;;2;#$;;;;--%-;>$----;-;-;;---;;;;------;;--;;;;-;------;;;;;;;;=$+;;;;-=%%=--;=&O&---;;;;;;;;;;;;-$---:=$:2:;;;;;;;;;-",
"$oO-;---=-;1-#=:--;-=--;-=---;;;==;;;-;;;;;-;-;;;-;;;;;------==-=-;--;;;-=$+-;;;-=$+=-;--+$----;;;;;;;;;;;;-=&--;=$:2:;;;;;=----",
"$O%;---$&-;:-$=:-;;----;--------$-;;;;;;;;;-;--;;--;;;;--=====---;--;;;;===+-----=-==-;-;-&----;;;;;;;;;;;---=--;=$;2:;;;;-=-===",
"$$O;-;=#&&%;;#$================$$========================$OO$$==========$$$+======O#+=======================$O===$#:2:;---==-===",
"OOO;--+$O%-1;##$$$$$$$#$$$$$##$#$$$$$$$$$$$$$$$$$$$$$$$$#o$##$$#$$$$$$$##$$$$$$$$##$#$$$$$$$$$$$$$$#$$$$$$$$##$$$##:2:--====-$=+",
"++O--;-$$%*1:$=;-;-;;-$;;;--=$-----;;-;;;-;-;--;;;;=-;-==----;-$=--;---=+-;;-----=-;;------;;;--;;-=-;;;;;;--$-;-=$:2:-=#$===$==",
"--=--;-$$-*,;$=;;:::;;=;;::;-;;:;;:::::::::::;;:::;;;:;;;;:;;;-=-;:::;:;;:::;;;;&=;::;:;;;;:;;;:::;;;::::::;;;;;;=$:2;==$$;-----",
";----;-+--;>;$=;-;-;-=#--;-===----;;-;;;-;;;;==----=-;--=-;----$=;;---;--;-;----=@+------=-;--;;;;--;;;;;;;-->---=$:2;=-+%;;;;;-",
"---;--;=---:;$=:;;;;-+--;;;=----;;;;-;;-;;;;-==--+-;;;;--;-;;;-$--;--;-;;;;-=-==$$&-;----=---;;;;;--;;;;;;------;=$:2:;=--;--;--",
";;--;;;;---1;$=:;;;;-+-;;;;---=-;;-;----;;;-=$-;=$=-;;;--;-;;;-$=-;;;;;;;;---=$##=&--;-------;;;;;-;;;;;;----;;;-=$:2:;;--;;=;;;",
";----;;----1;$=;;-;;-=;-;;;-==%-;;;-;--;;;;==$-;=$==;-;-;-;;;;-$--;;;;;;;----=$@#%-;;---------;;;;-;;;;-;----;--;=$:2:;--;;;;;;;",
";--;;;;-;-;:*$=:;;;;+=-;;;;-+==-;;-;---;;--=+=;-+%=--;-;-;;---=$=;;;;;;;---;==$@$%;;;---------;;;;;;;-;--------;;=$:2:;--;;;;-;;",
";-;-=;--;--:*$$:;;;-==---;;-=----;;-------====--===--;;;;;;-;-=$=;--;-;;;=---=$$&--;-;---------;;-;;;-------==-;;=$:2:--;;;-----",
"-=-------=-:*$=:;;--+=--;-;-=--;;;;----;--=====-----;;;--;----=$=--;;;;---;=-==--;;;---------;;;;;;;----==--=+-;;=$:1:---;-===-;",
"---====-=$#:*$=;;;-==;------===;;;;--=-;---====-;-=-;;--;----==$=---;;;-=;-===$;-;;;----=+=--;;;-;---=-==--==$=-;=$;2;-=---$$$=-",
"$========$=:;$=;;-=$$--;----=$%-;;-====;---=+=%-;==---;------$=$=;;-;;-=-;=$==$=;;------$#$---;;;;--====+=-=$#=-;=$;2;===-=$$$$-",
"$&===%=$$=;:;$=;--=$$%------=$&-;-==##-----=+===---------=--=$=$=;---;=$--=$$$$%;;-;---=$@$---;-;--=======-=+$%-;=$:1;=+=-=$$=$-",
"=-==$%=$$-;1;$=-=-=$%%----;--+-=-=$=$$--;-------;---=--==$==+==$=----;==;-===$=#-;-----=$$==--;;-;-==;--==---=&-;=$;1;----=$-;--",
"---==--$$-;1;$=-$-=$$=--=-;;---=-+===&------;-;---===--$##=====#=---;-=-;--;===@&-;----=$$===-;-;-=$---=--=-;-=&-=$;2;=---=$----",
"&&--=-=+$-;2-$=----=&-;=$=;-;--$-=--;---$--------=+===-+#$$=@==$=---;;-;---;-+$+&;-----=$===---;-;=$----------=--=$:1;--;==$-;;-",
"&&-=-=-=$--1;#=;;--=--;$$&;---==-;--;--=@=--------======$$%#@%=$=---;-;----;=====-----===--=--;-;-==----=----=-;-=$;1;-;--==;-;-",
"&-=----+$&-*-$=-;--+---$=-;-;-=--;-----$@&---=--------+=#$=#@$+$=----;---==-==--;---==-=------;---===---+---==-;-=$:1;----=;;---",
"&&==&--$@&*1;$=;---=-;=#%--;;--;-;+=---=$$======----=-==$$%##+=$---------$=-=;;;;-=-=---------;---==$=-=#---=$=--=$:2;=---------",
"%=-=&--OO%-2;$$:---=--$@&-;--;;;=-$$---==$$$$=$=----+--==$$$$%+$=-=-----=$=---;--==----=--------;-==#$-=#=--=$$--=$;1-=-==;;-=--",
"-&-=%-->&%*1;$$;-----+$$&-;---=-=-+$-;--==@$$$===--=$-;-=$==&&+$=+=-----==-;-;;--==----=----------=$@$=$=---$==--=$:1-+-$=;--=-=",
"---=-===&$*1;$=;-;---$#$&---=--=--+%-;-;-+@#$%-==--$=---=$===%=$+=$-----=;;-;-;--=----=-----;---;-=$%O===-;=#===-=$:1-==$-----==",
"---==-==$O*1;$=;-;---@@%$&-=---=-==----;=$@@%%-==--=%--==---=$=#$#$=---=--;---;----==-=---;-;-----$$+%@$=--=$-#$==$;1-===-------",
"-=-=%--=>%*1;$=---+-$@@%&&-----+=--;----=+@@$%===--=$-------===o$$%======--;-;-;--===------;---;--$$X@o%&--===$%==$;:=$=-;----=-",
"--&=%---=-*:;$=;-===$oO&-----==$=--;----->OOO%$$=--=$-------+==#$$====#==---;;-;--=+=+=-------;--=$@.%%-;---;+--==$;:=$=;;----=-",
"&--$$&--#;&:&#===$$$@@O=====$$$$$=======$*&&++$$+$=$=$=========#$#$$$$@$$=========$$$$$==========$$@@%+======$==$=$;:==$--------",
"=-=$&&+=#&=1-#$=$$O#+#O$$=$$$$$$$$$$==$$$$#$$$##O$$$$$$$$$$$$=$#####$##O$$$$$===$$$$##$$$==$$$=$$$##%OO$$$$$$$$O$$$;:-+#=-----;-",
"%++=-=$+-%-;-*,221:&=&*:121111121112121111:211:1>:1:1:11122111:1::;;:;->:11111211:1::;:1112211211:;%<,>111111:;:1:1:;-+$&-------",
"=$$=++$=;%==#&-;::;=%o%*;::;;:;:;;;:::;;;;---;:;-*;--$-;;;::;;;;;;%=-====-;-;;:;----=--;;;;::::;-==-:;;;;;;---=;:;-=$===&-------",
"&+$##==&==$@o=&-;--+#+O&-;;---;---;;;-----=-------==#$&---;--=--===%=+#%@$+==-;-===$#===--;;;--=$#=-;--=---===#=--=#$&-----===-=",
"-=$@#&--=+@@X-----=++$+--;--;;----;;;;-----=------==$%---;;;---=-=-==+$=$%##=---===$$%===--;;--=$$-;-========$@=--=#$&--=-==$$==",
"=+#$%=--=#@$O%--;;-==-&--;;;----;;;;;-----------=-==$=----;;;--==---====-=$@%--=====-$$==--;;;-=$$--==-==-=$=$@=--=$$--==+$@@@==",
"===&=&-=+@@O%&&-;--=-=----;;---;;;-----;--==--=-===$+==--;;----==-----=---+$&--=-====$$==---;;-=$$==$=====$$+$@+-=$$%-===$$@@@++",
"%---=-==$o$$%&-;---+=-=-;;;;-;---;;----;-----==-====$$=-;;-;--=====------;-----=-==-+=$===-;;;-$$O-=$=---=$$$$#$&=$o%+====$$##O$",
"%+==--===$O$=--;;--==-----;--;-;;;--------=---======$#=------=$===---;;----;----=====+===--;;--==--=+=--=$$#$$@%==$$===-====+$=$",
"$$=--==--+@@%--*;-====---;;---;;-;;-----;--;--====$$$@$=-;-=--==$=-=--;--------==$=$+===-=-;;---;;-==$-==$$#@#@%======----===+-=",
"$=----=-=+@@+&-;;;-=#%--;;---;;;-;;-;--;--;----===$$#@%=---==--=$$==---;;--;---=$@$#======-;------==$o--=+$@@@$%==--$=---==-=$-="
};
