/* XPM */
static char *result[] = {
/* columns rows colors chars-per-pixel */
"128 128 37 1 ",
"  c black",
". c #040404",
"X c #18140C",
"o c #100C10",
"O c #181818",
"+ c #202010",
"@ c #282818",
"# c #30301C",
"$ c #242020",
"% c #2C282C",
"& c #3C3824",
"* c #383434",
"= c #403C3C",
"- c #444028",
"; c #4C4C2C",
": c #4C4038",
"> c #545434",
", c #605C38",
"< c #4C4848",
"1 c #544440",
"2 c #585050",
"3 c #60585C",
"4 c #686440",
"5 c #706C44",
"6 c #787448",
"7 c #6C6064",
"8 c #746C70",
"9 c #807478",
"0 c #848050",
"q c #8C8854",
"w c #887C80",
"e c #94888C",
"r c #988C90",
"t c #A09498",
"y c #A89CA0",
"u c #ACA4A8",
"i c #D4CCD0",
/* pixels */
"::::::::::::::::<<<<::<:<<<2222<<2<<2<2<2<2222222222322=398889889788878:*<3333232<2222<2<222<222<2<2<2<2<<:<<<:<::<::<::::::::::",
"::::::::::::::<<::<:::<<:2<<2<222<2<2<2222<232232232223=3988787w7977389=%232333232<<22<22<<22<2<2<2<:<2:<<<<2<::<:::::::<:::::::",
":::::::::::<<<<:<<<<::<2<<:2<22<22<<2<22<<2222323323232*39788783873738w:%223333222232<23<22<222222<2<2<<<2<::<<:<::<::::::::1:::",
":::::::<:::<:::<<<::::<2::<<22<2<22<222<3<<223222322322=3w8877783733779=*<3333232322222222<2<222<<2<<:2<2<<<<:<<<<<::::1::<:::::",
":::::::<:::<:::<<:<<2<<<<<2<2<2222222<22223232332223232*398878737332338:%<7222332223233232223232<2<2<<2<<<2:<:<<2<<:::::::::::::",
"::::::::::::<<<:<<<<<<2<:<<2<2<<22<222<2232233323222323%3w8737773223377:*2322222223272<22222222<2<<<<2<<<2<<<<:<<:<::<:::1::::<:",
":::<:::::<:<:<:<<<<2<<<<2<2<<<<2<22222222<<322322232322*388887289233837:*23722232337223<32<2322222<2<<2<2<<<<2<<<:<2::::::::::::",
":::::<<:<<<<<<:<:<:<<2<2<222<2<222222<22<32233222222222*3787739iy7<7377==273222332323222222322<23<2<2<<2<<2<<<<::::::<<::<::::::",
"::::<::<<::2::<<:2<2<<2<22<<2<2<2223322323223232323323<=38778;282*#2778=*<373323337222<32<22322<2<<2<<2<<2<2<<2:2:<<<<<:::::<:::",
"::::::<:::<<<<<2<<2:<2<<<22222<<22<<2323233222223232322*37877-O%$+*3878:*<7332223233322232222<32222<222<2<22:2:2:2<::<::2:<:<:::",
"::<::<<<<:<::<2<2:<<<<<2<<2222<2<3<2222<223322333333332=38778=%o.X=3787==23722223232333233232322<22322<2<2<<2<<<:<:<<2<<:::::<::",
":<::<<:<::<<:<:2<2<2<<2<<<<2<<2222232222232333333372332*387872&@+@<7888=*<333323237223223223<2322<22322<2<22<<2<<2<::::::<::<:::",
"<:::<<:::<<<:2<<<<<2<<<<<22<<22232<33222222322333333372*388783-&@&27878=*222323733332223323<232322232<2222<<<2<2<<<2:<::<<::::::",
":<:<:<<:<<<<<:<<<<22<2<2<<<22<22<2<23233222323232337332*397777;=&-38789=*23773233732332333223232232<2<2<2<3<2<2<<:<<::2:<:<<::<:",
":::<<:<:<<:<<<:<22<<2<2<2<2<222<32232322233333333733372*3973783;-;78w88:=<33727323232323273323222232<232<2<2<2<<2<<<:<<<<:<:::<:",
":::<:::<2<<<<:2<2<2<<2<2<22<22<222323233323232272323732=3w38787>;278778=*23333373232333323233<32322222<22<222<<2<<2<<2<::<<2<:<:",
":<<<:<<<:<<22<<<<2<22<222<222<3222232233222332337333372=3r878732-278887:*<73737373332323372332232233322<22<<222<<2<<2::::<<::::<",
":<:2::<:<:<<22<2<<<<22<2<22<2<2332323322333232332337332*39798773;377778==23327273733333333322332323<23<2<2<2<<2<<<2<<<2:<2::<2<:",
"::::<:<:<<<2<<2<2<<22<2<2<<222<223222332222323737373732=389988832777888=*2733333732733223223233332323<23222<22<222<<2<<2<<2<::<:",
":<<<<<<:<2<<<2<2<2<<<222322<232222332223373232373737372=39889877>788989=%277737332333323323333332322<2222322<2<<2<<2<:2<<<<<<2:<",
"<:<2:2<:2<2<2<2222222<<22232222323232332323733737337732=39988888,88989w**2777773332332322232323232222232323<2<<<2<222<<<2:<:2:::",
"2:<<<<<:<2<<2<<2<2<222222233222232323333333333377777772=398989897999wwe*%273377337732333323323332223232322722<22<22<<2<2<2<<<<2<",
"<:<::<<<2:2<<22<2222<<222232232323233232333327737737732=3w999ww959www9w=%27333333332333373322223232222322322<22223<2<<<<2<<2<2<2",
"<:2<<<2<<<<2<2<2<2<22<3<3233323223222323337233373777772=3ewewwrw9w9w998*%277733373373723337233233223222232222<<22<2<<22<:<:<<<2:",
":2<<2<<<2<<2222<<22222222333222332232333773733777773772=3urewew9www9989=*233737737737333373732333233232322322322<2<222<<<2<<:<<<",
":<2<<2<2<<<<2<<<2232<2323233323233323233273773738777332=3teeewww9w99898=*2333333337377733373322233233332322322<22<22<<2<2<2<2::<",
":<2<2<2<<<<<2<222222<22<2223232333233373337733777737772=3eeww9w9w998887=%237773737333333333373233333232322322<232<2<22<2<2<2<:2<",
"<2<2<2222<<<2<<22<<322223233333222333337373777777378382=3teww9999988788:*27733773333337323333333233233332323<23222<2<22<3<2<<2<:",
"2:22<2<2<2<2222<2<2232232323232323333333737373778777832=3eww9w989897874:=27773737737733337333733323333232222232<22222<<2<2<2<<<2",
"<2<<2<<22<<22223232322223332333323237373333738777787782=3eww98e87888748==2777777377373332337332332322332323232232<32<22<32<222<<",
":2<22<2<2<2<<222223223222333322232333337337383737878772*3ww9w98w8878873:*27733737737333733373233232232272323<322222<<<22<23<2<2<",
"222<22<2<2<22222322222232322333332337373373778777787782=3e9w9988w887878:=2777737733777733723233333332232323332<3222<222<2222<2<2",
"<2<2<22<222<2<32223232333323233733333737737787738738772*3ww999888988747:*3878777777773773737373323323323223322322<3222<<<<232322",
"<<2<22<22<22<23<222323232233233337333377373777777777882*3w9988978897874:*278737787777733333733333323373723322322322222<2<32<22<<",
"<2<2<<2<22<22223222223333222322273373737737777837878873=3w9879488788773=*287788777777377733333732733732333223323<23<<<2<2<<2<<<<",
"<<2<<2<2<2222232<22333223232233337337773733777787787782*3w8784877788787:%277777783737773333373337373333232333222223<<3<32<22<2<<",
"<222<22<22<32222322232233333323373733737777378377877873=399877887878374=*37877787773737373733373373322322233223233223232<22222<<",
"<2<<22222<222322222222333323332333337377773877878787883*2989888787838,4=*37778777883373777377337223323232223232332322332222<2222",
"<<<<2<<22<222223223223333327333733733737377737777878873=399897878877778=%28788787877377733733733337373733233222332333<22<22<<<22",
"<<2<<2<322223222322332233333333337337773737378787787783=398878787874837=%3787778777773777337373737373333332323323333322<<<<<<<<2",
"2<<22<<232322233232332233233733373373737778738878878873*298987877487472=%378778773878777737373337373372732333322222232<323<<<<2<",
"<222<3232<332233223232272237373737737773787877787888783*399888883778387=%387788778773773377333337777337373322322322223<22232<222",
"22<22<3232222323332223233337733733773777778787878887873*298787874383878=*378777778737373377373737373333733232323332222222<222<22",
"<222222333322233223323772377773337377777877378788788783=297877878778888=%38787787877777773377737373337333732332222332222332222<2",
"22323<2223333332332333337333373777777787787787878878873*29878778785899w**3787787777777377773777773733723337332322222223332232222",
"3<22222222233223333333323233333777877878777878888888873*<98878875889788*%3888787787377773737737777373373732233323333233232<<2222",
"<232222223223223333377373777373377777387878777878878783*298989898753877*%38878787777777377377377733373337337372323223222232<222<",
"2222232323233332333733773737733737787737787878788787873=2w9w98587837333%%3888777777373777773777777737373337383233333333323222223",
"22<2223223223333323333733377337737377877878788878878883*<9e98787877,72<*$38888787877777333377333773333337332323222323332322<2222",
"2223322233332322233333333333733737778778777878788888873*2ew8987477332<<%%3787887877787773377337773337733373333323323233223223322",
"3<22322223232323323333773773377777777877787787877887883=<w987873437,3<<*%3878877877877877777377333333373337233232223332332323222",
"2323223233222222223373373373377873877777878778887788883*<98987873232>2<*$378878773878777737373337373372332333232322232<3232<<<2<",
"2233232333322333237333377377773777787787787787888878783*2w787873,3>32<<=%388887878773777377333337777337323322322223223<22232<222",
"3<22222322233223333333333773333777877333777878888788873*29979728923>2<3*$388788787838373377373737373333223232323233322222<222<22",
"<232222223223223333337373777373377787387878777878878783*2ww9739iy7<3237=$38888787878877873377737373377333732332232322222332222<2",
"2222232323233332333733773737733737777738787878788887883=29w782&82&#2339*%3888787777878777783777773733733233332322222223332232222",
"22<2223223223333323333733377337737877787878788778888883*2w887<X@@X*2327=%3878878788787773738737777373373732233323333233232<<2222",
"2223322233332322333337333333733737778778777878888878883*2r877=%  +=3332=%38878888777778777377377733373337333332323223222232<222<",
"3<22322223232323223333773773377777777877778787877888873=2w7872-#+*<3273=*3888878878777788783777777737373333333233333333323222223",
"2323223233222233333373373373377873878778877788887788883*298783<&#<27,32=%3878877887877887878733377333333733232322332333232222222",
"2233232332322333237333377377778787787787787878888888883*3988772<-23737,=*3888888887787778777337773337777773333323333233223223322",
"2232323322333233333373773377877877877777878787888788873=29878732<373473*=3888887878887878878377877773373337333237333332332323222",
"2332223232233337333777773777777777778778788878888888883=2w987873237773,=*3788788787788887877773777737733377737333233322333222323",
"3223233322332333377373377777787778787877887888878878883=3w9887289233232=*3887878887878777787877787337373773733323333333232323232",
"2222332233333373773773777378377837878778788887888888783=2w99836iy7;,3>2*%3788888778777887788787777377737777333733373232322222222",
"3233322323223337773333333737777777777787878888788888873=3ew972-82&#3>3,=*3878888788787888878877778777737737373373333332332223222",
"3223233332333233737377337777737778787878887887888888783=3tew8;O%+X-22>2*%3788787877788877788787787778778777777737337333322232222",
"3323233322373223333333773777337387878787888888788788883=2ere92+..%=233>=%3887878787887887877877878787877737777373373223733233222",
"3222332222233232333737377377777777777878788788788888883*29ww9,&+X&<33>3*%3788887878878788778777787773737777777737737373223322332",
"2233233232323323337773373733373778787777887888888788783=308885-&@<23233**3787888777877877787787737337877373773777777737333333322",
"3223323233322332337333333337777733377878788788887888883=367378;<#237222=%3888887878787777777878777377377737737373777773732322332",
"2222233232232323373337373773337773738788787888888888883=395737>7-3737<7=*3788888787778778787737733777773773337737373737373372332",
"2222323223323333373777377737737377777877878787887878783*2w7573,3;777373**3788888877877778877773737377777333377773233233332233322",
"2233232322322223333773733773737337787778788878888787883*3q878737<378787==3887878787787787778777773377333373737733723333233222332",
"3223222232323223773333337773377737377787878788887888883=3w9858,72379898=*3888887888878787877777777373733773773723333333223222322",
"2222222233233233333373777377377777778778788887888788883*268988332778ww9:*3888787778787877783777377733733373337333322323233222223",
"3233322332222333333333333737777777877877878878787878783%30888737323789w==3788877877877787377733737373737337322333332223322332223",
"3223233223323233337377337777737783778778887887888788873*389978737,32378=*3887888778777873778777337733773332332332233232222322232",
"3323233322333223333333773777337378377888788888787888883%26798487,72323,&#3878787877878778777373373377373323337732232222233322222",
"3222332222233232333337377377777777778788778787878888783%29w8877773,2>23=*3888888787877733777777733773733237333332332223322223332",
"2233233232323323333773373333373777777777877878788887873*28897787,33323,&#3888787878787333377337373333737333233233323333223222232",
"3223323233322332333333333737777733377878778788878788783%26788873737,323=&3888878787778777337773733737333732332322223232232222222",
"2<22233232232322233337373733337773738787787887887887873*288887877733737&#3787887778787787373373373337733333333332233322233222322",
"2222323223323332333273333737737378777877378778788878783*25858587843>348&#3888787787737777373373777777333332333332232323222222322",
"222<232322322222232333733333737337777778777877878788873%28878775777>279&@3787878778787877783777377733733373337333322323233222223",
"3222222232322222333223237333377737377787738787887878883*397877878433>38##3878777877887787377733737373737337322333332223322332223",
"2223332232332333323333333337373333777377877878788887873%2e97773473732>3&#3887878778778773778777777737773732332332233232222322232",
"<22<<22332222222332333733777777373737878783777877878783%297877877437,2>#%3888788787777877377837373333373323337732232222233322222",
"<2<2222232223322232223233723373373777777877787778788873%29877877437,3>2&@3787787777877737873773733733733237333332332223322223332",
"22<<2222<2333222333333323337733737337783738737878878783*387887877737732*@3878777878777373738337373333737333233233323333223222232",
"<222222<<2222223323233332222733773373778378777387787873*288888777377,73&#37877877878777773837737337373338333323222232322322<2222",
"22<2<<2222322232323222323337233333377777787787737878783%288877877773773**387877777773737373737337333333733732333223232333<22<322",
"222<22<2<2223232223332333233337337373378377377787787883*288877878777333*#37778787787777373737337733327232323322322233232<332222<",
"222222222<223223223223322332333373737773773387878778773%278888787773737&@38787878773737777373737737333227233232223332<223222<2<2",
"2<<22<2222<32<22222323333327333333377737877777387877783%278878778877373*@3877778777773373733733727337327333232322323222<2<2<<<<2",
"<<2<2<2<2<223223322232222232333737333777373777877787773*278787888887878#$3787873737373773337337373233332323223222332222222<2<<<2",
"2<<<<2<2<2322222223233323233333333737373737337783777873%<87877789988787*+28737378787377777337337337323737323232233223222332<22<<",
"2222<<2<<223<<22322323222322233377333737387778777787782%2777878789w9898#$287878737377773733333733733323232322222222222<2<<2<22<2",
"2<2<<2<222222222223222322322233272377373877837378778773*28787878889w987%$288337738773737373737323333232323232332<22222<2<2222<<2",
"<2<<<<<2<2<22<23<<2222222323232333273337773777787783782%288888778789e98*+28787337777737333772337273732223232323<2<<22<2222222<<2",
"2<<2<<2<22222222223222322233333232337373737383778737772*<77777787878we9%$27873373773773373233372723333223222222<222<2<<2<2<<<<<<",
"<<2<2<<2<<2<22<2222223222332333333233337373877777377872%2888788887878ww%+287373377333373337272372333222222322322<<222222<2<2<2<:",
"<2<2<2<<22<22<2223<<23232223233332373733337377377773782%277877887778889*@277737737372777323733337232322322223222<222222<2<2<2<2<",
"<<2<2<222<2<22222<232<222322332323233273733773373777872*<87777888788788%+287733373233737333337232723223232322<2<<2222<2<2<<<<<<<",
"2<<2:2<2<2<22<2<223232323233323332323737237373737377772%277787877777878*@277373337733733373323323232322323222<<322<<<<<<<<2<<<<2",
"<<<<<2:2<<<<<2<2<22322232323232323237333373737373777332*<97873787877787%%2737337337733337323333323332322323222<2<2<22<<2<<2<<:<:",
"<<2<2<:<2<2<2<2<2222<232<222323233333373337333733377772*<e7737373887777*@2373777332337323732323333233223232232222<<222<<<2<<<:::",
"<<<<<<<2<2<2<222<2222322<<3<232332373333732333373773372%=97373778787778*%277337332727337323723233232323232232222<2<22222<<2<<<<<",
"<:<<<2<<2<2<2<2<22<2<2223222322222333733333732737337772*<83333738888777=*2337337332233232372723223232323222<2<222222<<<22<<:<<:<",
":<<:<<2<<2<<<2<2<<222<222323223233233332327373373733732==73337377887787=%2323333322327337323232322<232232322222<<<<<222<<<2<:<::",
"<::<:<<:2<<2<<2<2<2<22<22<<2322322323323222323737337372*=83333737878777**27373727332332722323322323<22322<23<2<<2<2<<2<<<<<<<::<",
":<::<<<<:<2:2<<2<<<2<2<22222223232333232232333373373732=<83737387887888*%237332232333233232323222322232<22222<22<2<2<2<<<<<::<:<",
"::<<::::2:<:<2<<22<<2<222223232322322332323337337237372*=77373878787787*%2733733233232322322232322232<222<<2<22<2<<<<<:22:<<<:<:",
":<::<<<<<<<<<<<<2<<<<2<<2<22222<<3333233333233332373332*<73777787888888%%2337333323323223232322<<222322<22<<2222<2<:<<<::<<<<<<:",
":::::<<<2<<2<<2<<<<2<22222<2232222323233232333332337372==77738777888777*$<2737332323323323232232<22<2<22<2<22<2<2<2<2<::<::::<::",
":::<::<<<<2<2<:2<:<<<<<22<<<2222<3232322323332373333722*<77737289278788%%<3373323233333232223<32<22<222<2<<<<2<<<2<<<<<::::<::::",
"<<::<<<<:2<2<<<<2<2<<<2<2<22<2<222223223232323333273332*<873339iy7<3788*%222333332323323232<2323232223222<<<<2<2<<<:<<:<<:<<:<::",
":::<:<<::<<<<:<<:<<<<<<2<2222<22<2232322222232323333722%<77372-82#&2788*$2323323232222322232<<32222<2<2<<222<<<<<<:<<:<<:::<:<::",
"::<<:<<:::<:::<:<<2<<22<<2<2<2<223223222322323233323332*=7737<X@$X*2378=%233323232232223<2222<22<22<22<2<2<:<<::::<<::<::::<::::",
":<::::<:::<:<<:<<<2:<<2<2<<<2<2322232<23232232223233232%<7333=% .+=3278*$232333323223322232<<2<<2<<2222<2<<222<<<:<<<:::<::::<:<",
"::::<:<:::<:<<<:<<<<<<<<<<2<22222322232<223323322323322%=87732*#X*<7387=$23223323223232<322<23<22<22<222<<:<:<<<::<<:<<:::::<:<:",
":::::::<<:<<<<<<:<<<2<2<<<<2<2<22<2222<2233323323233232%<77333<=@<23788*%233223332222222<22<2<2<<<2<2<<<<:<:<<<<:<<<:::<<:::<:::",
"::::::::<:::<:<<:<<<<2<2<2<<<22<22<23223232232322233332*=8877322&237389=%2322323233<222<22<2<3<22<<<<<<2<<<<<<:<:<:::<:<<:::::::",
":::::::<<::<::::<::<<<2<<<2<<222<<2<2322323223223222322*<8797332;33378e=%<23323232222<<<<<<22<2<<<2<2<<<<<2<<:<<<<<:::::<<<::<::",
":::::<<<<::::::<:<<<:<<<<2<<<<<<<222222323232223233233<%<9e78333<378779=*<233223232<32<222<2<22<<2<2<<:<<<<<<<::<:<<<::<::::::::",
"::::<<::::::<:::<::<<::<<2:<<2<<2<2<22322<2222323233322=2e9877732737887:%<22232232<222232<2<22<<<<<:<:<:::<:<<<:<:<:<:<:::::::::",
"::::::<:::::::<<:::<::<<<<<<<22<<<<<2<2<<<2322222223222*<98987372778889=*<232<322222<232<2<2<<<<<:<<<<<<:<:<::::<<<:<<:::<<:::::",
"::::::::::<::::::<<<::<<<<<<<<22<2<<<2222<2223222222223*2w9887733878789:=33232<223<<2322222222<2:<<:<<:<<:<:<::<<:<<<:::::::::::"
};
