/* XPM */
static char *result[] = {
/* columns rows colors chars-per-pixel */
"64 64 16 1 ",
"  c #2E3698",
". c #2F3698",
"X c #2E3798",
"o c #2F3798",
"O c #2E3699",
"+ c #2F3699",
"@ c #2E3799",
"# c #2F3799",
"$ c #2A98BA",
"% c #2B98BA",
"& c #2A99BA",
"* c #2B99BA",
"= c #2A98BB",
"- c #2B98BB",
"; c #2A99BB",
": c #2B99BB",
/* pixels */
"**%**%***:*$**&***%&***;**&:*%*******-%**&***&******:**%***&*&*:",
"**********&****-***$*:***-*%**%*:*&******:*:***;***:*-%*********",
"****%*******:**:*****%:&*******%***:**%%**&****&**%*****%:*%*&**",
"*:***************:&****************%%&*****:*&*%***:*;****%*****",
"***:**:&*******&*****%*%*%****:%*&:*&**********&&**************:",
"**;***:*****:$***************&********&*********:*********:***:*",
":**********%****&***&%**-*******:***********&*************%*****",
"*****************&****:*********&*****:***-:**&******&******%***",
"*****:*%***&&***&&:***********%********:******&*************$:&*",
"**:**:**%*****%************:***&**************:****-*%**%*&****%",
"*****%******************&***&***%*%*&%**********&$****%***&**&%*",
"***&***&*:**:%***********%&*****%%***%*******-***********&***:**",
"%-**&*$**;&**********************&*:*****&*&****;*******&&**&***",
";*&*%*:*****%&**********        OO@OOOOO**************&&*****&**",
"***********:***:********@  .    OOOOOOOO**:*&***%**%********&*%*",
"*****:*:*&&**:****:&&:*;    X   OOOOOOO *******&******%&****&***",
"::$*:****;&***&:*******;X       @OO OOO@************************",
"*****:****%*%**%*******&      XXOOOOO.+ %***************&&******",
"%***&*&*%********:******    o   O@OOOOOO*:**=********:**********",
"******%*********&*******        OOOOOO.O**%******:**;********%*:",
"%****&**%*:%*****&*:**** .O   . OOOO+OOO****%&:*%****:***$******",
"****%&%:*&******OX  X   *:*******&*%:::%oo#ooooo**%**:*****%*&**",
"%*:****&****:**&OX    O -****%****&****&#oXooooo****&****%**&***",
";*****:******%**O     O ***************&ooooo.oo**&%&:***:*:%***",
"&**:****:****$**    .X  *******&*%******oXoooo#o%***:**&********",
"*******&********  O     %:******$%******o.oooooo*&:***%*****&***",
"**%***********&*     O  :**%**%:***%****oooooooo***%&*****%*****",
"*****&**********        ************%***ooooo.#X&:******&*******",
"*%*&*%********%*        **&**%:***:***&*ooo.oooo&******&********",
"*&*%&***********OOOOO OO%*******&*-***&**;*&****&*******%***$&**",
"*%************&%OOOOO@OO**&****&*****-*&:&***:***********&******",
":************:*%O  OOOO@******%*&****%*******&%*********%*:****%",
"*****&*%*%***:**OO OOOOO**:****%%%*************&****&**%**&*****",
"****:**%**&:***;O O+OOO+**********%********************%&:***%**",
"*;*&%***********OOO@OOOO$*******:&***&***********************&**",
"********%*:::*&:  OOOOOO*****&*****************&*****%**-**&****",
"&*****:*%***-***.OOOOOOO******%&*&*:***&******&*:********&*&****",
"****************  .     $&***:*&&*******       O:***********&&**",
"*%*&%**&*&******        *******:%:*&**%*.       ***:**%******&**",
"*********&**:%**     .  &&*********-**** X      ***%*******&***%",
"************:***    .   ********%****%**       .**%****&**%&****",
"****&***%*****:*      O.%***&***&*******    O   **********:***&*",
"****%***********     XX **:******:*%****  X     **&******%******",
"******$*%**::**%   . O  ********:****&** X  X   *********::***%*",
"%:************%*        **********&*****  O  O  **:&:*%****&**:*",
"*****%*******&*&*%***%**oo#oooooooooo.oo**********%*************",
"*******&******&*:&***&**oooXoooo#Xo#oooo***:*****&***%**%*******",
"&**********&**********:*oooXXooooooooo##***:***********&*:******",
"*:***%**********&*:*%***o.#oooooooooooo.****************&*******",
"**%*****%&******&*%%****oXooo#oooooooXoo*******&*********&*:*%&*",
":*&******&*:***&*******%ooooooooooooXooo**&********:***********&",
"&$%*****%******%****%***ooooooooooo#.ooo****&*****:*****%*******",
"*:%******%***%****;****&o.oooooooooooooo***;&***:***&*&*****%**%",
"*&%***&******&***&****%*****:***********%%***********&**********",
"&*******&&***********&%*:&***********&*******&****&*************",
"********:*****:*&******%:**&&**&%**:*%**********%****:*****&****",
"%*%**%**********************************:*****************%**::*",
"-******&***:********-******%***&-******:**%****&***********&**%*",
"*%****&**%**:*&*&&***&**********&%***:%*:****%&*****:***:*******",
"%**********&******&%*************&**:***%*********&******:***%**",
"********************;****&*****%%************&*****%*%****%**%**",
"**********&*****:**&:*****&**%&**********&**%******%&:*&*******&",
"***%&**%**************%**&***-&***&******%**&*******&******&***$",
"*&***;*%******************:*******%:**:****:*****-******:***:***"
};
