/* XPM */
static char *b9c5ca97a6ca4eccbcad49ce320c7188BfthT9fUjMRJuuVH[] = {
/* columns rows colors chars-per-pixel */
"50 50 85 1 ",
"  c #2F3445",
". c #2F3545",
"X c #333743",
"o c #343743",
"O c #303444",
"+ c #303544",
"@ c #313544",
"# c #303445",
"$ c #303545",
"% c #313545",
"& c #323544",
"* c #323545",
"= c #303644",
"- c #313644",
"; c #313645",
": c #323644",
"> c #333644",
", c #323744",
"< c #333744",
"1 c #323645",
"2 c #333645",
"3 c #323745",
"4 c #333745",
"5 c #343744",
"6 c #353744",
"7 c #343843",
"8 c #353843",
"9 c #353943",
"0 c #363843",
"q c #373843",
"w c #363943",
"e c #373943",
"r c #373A42",
"t c #363A43",
"y c #373A43",
"u c #333844",
"i c #343844",
"p c #353844",
"a c #353944",
"s c #363844",
"d c #363944",
"f c #373944",
"g c #363A44",
"h c #373A44",
"j c #383A42",
"k c #393A42",
"l c #383B42",
"z c #393B42",
"x c #383A43",
"c c #393A43",
"v c #383B43",
"b c #393B43",
"n c #3A3B42",
"m c #3A3B43",
"M c #3B3C41",
"N c #3B3D41",
"B c #393C42",
"V c #393C43",
"C c #3A3C42",
"Z c #3B3C42",
"A c #3A3D42",
"S c #3B3D42",
"D c #3A3C43",
"F c #3B3C43",
"G c #3C3D41",
"H c #3D3D41",
"J c #3C3E41",
"K c #3D3E41",
"L c #3D3F41",
"P c #3F3F40",
"I c #3E3E41",
"U c #3E3F41",
"Y c #3F3F41",
"T c #3C3D42",
"R c #3D3D42",
"E c #3C3E42",
"W c #3D3E42",
"Q c #3E3E42",
"! c #3E3F42",
"~ c #3F4040",
"^ c #3F4041",
"/ c gray25",
"( c #414140",
") c #404041",
"_ c #404141",
/* pixels */
"#######################################.##########",
"##################################################",
"##################################################",
"##################################################",
"########5#####5##5####ii####uuuu#########5########",
"#####iii5555#555iu5i##ii####uiii55555#55ii#5######",
"####iii9ii595ii5iiii5i5i59555i9iiii5oiioiiii######",
"####uiii9i99ii99i9i9iiii9i9iii9i999ii9iii99i######",
"#####5ii999ii99999i99i99ii9i99i9i9ii9999iii5i5####",
"######5i9ii99999i99i9999999i999i9999999x9995i5####",
"#####5iii9x99999xx9x99x9xxxi999x999x9x9x9ii5i5####",
"#####5i9ii99xx9xx99x9xxxxxxx9xxxxxxxxxxi9995#u5###",
"####ui5i99xxxxxxxxxxxxxxxxxxxxxxxxxxxxxi9995#i####",
"####uu59999xxxxxxxxxxxxxxxxxxxxxxxxxxxx99iii5#####",
"####5ii999xxxxBxxxxxBxxxBBxBBxBBBxxxxxx999io5#####",
"####i9i9i9xxxxBBBBBBBBBBBBBBBBBBBBBxxx99999i5#####",
"######5i999xxxxBBBBBBTTBBBBBBBBBBBBBxxx9999ii5####",
"#####5iii999xxxBBTTTTTTTTTTTTTTTTBBBxxx99995ii####",
"#####5oi9999xxxBTTTTTTTTTTTTTTTTBBBBxxxx9999i5####",
"######oii9xxxxxBTTTTTTTTTTTTTTTTTBBBxxxxi9iiiu####",
"####55i9iixxxxxBTTTTTTTTTTTTTTTTTTBxxxx999ii######",
"#####55999xxxxBBBTTTTTTTTTTTTTTTTBBBxx9999955#####",
"######i999xxxxxBBTTTTT^Y^^^^^TTTBTBxxxx9ii9i5#####",
"######i99i9xxxBBBTTTTT//////^TTTTTBxxxx99iii5#####",
"#####ii9ii9xxxBBBTTTTTY^///TTTTTTTBBxx99999iii####",
"####uiii9999xxxBBTTTTT^////TTTTTBBBxxx999999i5####",
"######9i99xxxxxBBTTT^^^////^/TTTTTBxxxx999iiii####",
"#####i9i99hxxxxTBTTTTY/T//^T/^TTTBBxxxx9i9i9iu####",
"######5ii999xxxBBBTT^TTTTTTT^TTTTBBBxx99i999#u####",
"######59999xxxxBBTTT^TTTTTTTTTTTTBBxxx999iiiu#####",
"####5ii9999xxxBBTBTTTTTTTTTTTTTTTBBxxxx999io5#####",
"####iiii9i9xxxBBTTTTTTTTTTTTTTTTBTBxxxx99i9o######",
"#####X5i99xxxxBBBTTTTTTBBTTTBTTTTTBBxxxx9i9i######",
"######iii99xxxBBBBTTBBBBTBTTBBBTTTTBxxx9999i######",
"#####55iiixxxxxBBBBBBBBBBBBBBBBBBBBxxxx9999ii#####",
"#####55iiixxxxxxBBxxxxxxBBBxxxxBxxxxxxx99ii5i#####",
"#####i5i999xxxxxxxxxxxxxxxxxxxxxxxxxxxx9hi9ii55###",
"####5i5i9ix9xxxxxxxxxxxxxxxxxxxxxxxxxx9999iiii####",
"####5i99ii9999x9x999xx9x9xxx9xxxx9xx99x99i9i######",
"####iiii999999999999x999999x999999xx99999i9i5#####",
"#####59i999ii99i99i99999999i9x99i9i9999999i5######",
"######ii999999i9i9ii99ii9ii9i99i999ii99i99i55#####",
"######i999iiii999999i9iii9i9iiii99iiiiii9i9i55####",
"######ii5i9io5ii5iiiooi5i595i5iii555ooiiii5ii#####",
"####iiiiiiii5###5iiiiiii5555#5ii#55ooiiiiiiii5####",
"######ii5555######55i5ii######u##5####iuiiii5u####",
"##################################################",
"##################################################",
"##################################################",
"###############.##########.#######################"
};
