/* XPM */
static char *result[] = {
/* columns rows colors chars-per-pixel */
"64 64 16 1 ",
"  c #162A42",
". c #172A42",
"X c #162B42",
"o c #172B42",
"O c #162A43",
"+ c #172A43",
"@ c #162B43",
"# c #172B43",
"$ c #546C8E",
"% c #556C8E",
"& c #546D8E",
"* c #556D8E",
"= c #546C8F",
"- c #556C8F",
"; c #546D8F",
": c #556D8F",
/* pixels */
"&*;$&&&&=&*&&&&*&;&&;&&&&;*&&&%*&&&:&&&&&$$;&&&&*&;;&&&&&&*&&&&&",
"&&*&&&:*&&&;&&&&*&&*-&*&&&&&&*&$&%&&*&&-&&&&&*$&&;&&&%&&&$;;**$&",
"&&&*&&$&=$;&&&;*&&;&&&;&&&&&&&&$$$&&&&&&*%&&&=;$&&$$&&&&&&&&=;&&",
"&$$$&&;&&$;&*&&-&;&*&&&&&&;&$;&&&&&&&&&*&&=*&&&&;;;;&&;&&&&$&%&&",
"&&&&&&*&;&&*$;&&$;&&&&$&&$&&;&$&&&&&&&&&&&&&&&&&&$&;&&&&&&&&&&&&",
":&=&*&&&&&&&&&&*$&;*&&&&&&&:;&&=;&&;$&&&&&&$&&&&$&&$&&;;&&&;&&&$",
";&$$;*&&&&*&&&&&&&;&&$&&*$&$&&;$*&;&&&&*&;&&&&&&&&&&&&&&*&&&&&&&",
"&&&&&&;&&&&&&&&&&&&&*&&*&&;&&&&$*&&&&&&&&&&;*&&&&&=&&**$&=*=&&&$",
"*&&&$&&&*&$&&&;$;&&&&&;&*&*&&&&;&&;&*&&*&;*&&**&&&&*&&&&&&&;$&*&",
"&;;$&;&;*&*;&$&&&&$*$&&&&&&&&&&$&&&&&&;&&&&&&&$&&*;&*&;&&&&&&*;&",
"=*&&*&*&&&&&*&-&&&&;&*$&&&&&&;&*&&&$&&&*&;&&$&&$&&&$&&&&&&&:&&&;",
";&&&&&&$&;&&&&;&&&;&&&;&;*&&&&&*&=&&&&%&&&&&*&&$&&$&&&&&&&&**&*&",
"&$&&$&&&;&&;$&;@@@@@@@#@@@@@@O@+...+o..      X &&&&$;&&$&&&;;;*$",
"%*&&:&&&*$;&&&&+@@@@@@@@@@@@@@@..++.... XO X   &&&&$;$*&&&&&&&&&",
"&*&&&*&&&&*&$&&@@@@@@O@@@@@@O@@..+..o+.   OO  X&&;&&**&&$;&&&&&&",
";*&&&*&$&&&&**&@O@@@@@@@@@@@O@@.....o .     OXO&$&&==$*=&&&&&;&$",
"&$&&&&&&$&&&&&&@@#@@#@@@@@@@X@@... ....        %&*$*;&&&&&&&&&&$",
"&:*;&&&&$&&&&&&@@@#@@@@O@@@@@@@......    X     &$&&&&%;&*&&&;&*&",
"&&$&&$&;&&&:&&&@@@@@@@@@@@@@@@@........ . X    $*&&&&&&&;&&&&&&&",
"&*&&&&*&&&&&&&&@@@@O@@@@#@@@@@@....o.+.   X   O&$&&*$&&*&$&$&:&;",
"&;&&&;*;;&$&&&&        &%-&&$&&&;&*&&&&$*&$$&&&&&&&&&;&&&***$&&&",
"&&*&&&%&&&*&&:&  X OO .;&&;&&;*&&&&;&&$&&;&&**&&=$&%&%&&&&&&&&&;",
"&&&&$&&&*&&&&&&O       &&&&&&&*&&&&&*&&$&$&&&&&&*&&&&&$&&&&$&;&*",
"&*&*&*&&&&&&;$&.       &%&&&&&*&&&&&;$&&&&&&&&&&&&**&&*&&*&&*&:&",
"&&&*&&&:*&&;&;;  XO    &$;&&&&&*&;;;&&&&;&&&&&&&&&;&&&&&;&&&&&&$",
"&&;&&$&&*$&&&&&        &&&&&&;&&*;&&&&$&&&&&&$:&*&*&&&&&;&*;;&*&",
"*&=&&$$;=&&&&&& X O  . $&*&*&&&*&&&&&=&*&;&$&&&&&$&&&&&&&&&&&&&&",
"&*&&&&&&$&&&&&*        ;&&&&&&&**;&$&&*&&&&&&&&$*&&$&=&&&&&&;*&*",
";&&=&;&&&&*&&&&OOO+OO@O@X@XXXXX@@@@@@#@&&&*$&&&&&$&*&&&&&&&&&*&&",
"&$*&&&*$&&&;$&$@O+OOO@+XoXXXXXX@@@@X#@@&;&&&;$&;*&&&&&&&&&$&&&&;",
";;&$&&&&&&&&&*&OOOOOO+OXXXXXXXX@@@@@O@@$;&&;&&&&&;&&;&&&&*$*&&;&",
"*&&&&&&&&*&&**&OOOOOOOOX@X XX@X@@#@@@@@*&$&*&&&&&&;&&*&&&&$=&&;$",
"*&&*;&$&&&&&*&&OO OOOOOXXXXXXXX#@@@@@@@&$&-&&&&&&&&*&&&;&$&;=&&&",
"&$&&;*&&&&&&&&&OOOOO OOXOX@@XXX@@@@@@@@*$$&&&&&&*&&&&$&&*&&&&*-&",
"&&&&;&;&**&&&&*OOOO@OOOX@XXXXXX@@@@@@O@;&&;&&&&&&&&&&**&&&&$&&&&",
";&:*&;&&&&&&=*&OOO@OOOOXXXXXXXX@@@@#@@@&&&$&&*&*$$&&&&&&$&$&&=&&",
"$$&&$*&&&&&*&&&OOOOOOOO%&&&&&&&&$&;&$;&&&&*&&&&&&&&*&&&&*&&=&$&;",
"&&&&&;&&&;&&&&&O@+OOOO@$&&&&&$&;&&&&&&&;&*&&*&&*&&&&&&&&&&&&&&;&",
"&&&&;&&&*&&$*&&OO  +OOO&&&&=&;&&&&*&&&&&&$&&&&&&$&&&&&&&*&*%&&&&",
"$&&&&;&;;$&&;;&OOOO@O+O&=&$&%&*&;&&*&&&&&;&&&*:&&&$%&&*&$&*&&&=;",
";&&&&;&&&&&&&&&OOOOOOOO*&$;&&&&&%&$&&;*;&;&&&&&&%&$%&$&&*&%&&&&&",
"&%$&&&&&$&&&;&&OOOOOO O$&&;&;&&&&&&&&;$&&&*&&;&*&&&;$&&;&&$&;*$&",
"&&;&;&&&*&&&$&*O OOOOOO$*&;=$*&&&&&*&&$$&&$$&&;&&;;&$&;*&&*&&&&&",
"&&=&&&&;&&&&&*& OOOOOOO&$&&*&$;&*&&&&&*&$$$&%;&&&&&&&&$&&&&&&;&;",
"*;&%&&&&&:&&&&&O+++++O+OOOOO OO++O+++++OOOOOOOO&&&&&&&**%$&&&&&&",
"&&&$$&&&&$&&*$&++++++++OO#OOO O++++O+++OOOOOOOO$$&&&&&&;&&*&&&&&",
"&&&$&;&$&;&&&&;+++#++++OOOOOOOO++++.++++OO+@@@O&&;&&*&*$&&&*&&&&",
"&$&&&&&&&&$&&&&++++#+ +OOOOOOOO+++++.++OOOOOOOO**&$&;$&&$*&&*&&&",
"&&**&&&%&&$&*&&O+++++++@OOOOOOO++++++++@OO++  O&$;&;&&&&&&*&$&&&",
"&&*&&&&$&&&&$&&++++++++OOO@OOOO+++++++.@OOOOOOO;*&&&&$&&&*&&=&:$",
";&&&&=&&&&;&&&&+++.++.+OOOO+++O++++++++OOO.+OO.&&&&$&&&&&&&;&&&&",
"&*$;;%&&&&&&&*;+O++++++OOOOOOOO+++.+.++OOOOOOOO&;&&&&&&;&%&&&$&&",
"&:&&&&&&&&&*;&&&*&&&$&&&&&*&&&&&*&&&&*&*&&&&&&&&&&*&*&&&&;$&&&&&",
"&&&&*&$&$&&&&&$&&&&&&$-&&&$*&=&&&&&&&*&*&;&&&&&&&&&&&&;&&&&&&&&&",
"$&;;;&&&$&=&&&&&*&&$&&&&&&&&$&&&=&&&&&&&&*&&&&&&&&&;&*&&*&&&*&&&",
"&&&;&&&&;&&&&&&&&&&&&&$&&&;&&$&;;*&&&&&&&&&;&&&&&&&*;&&*$$&$&&$&",
"&;&&*&;&&&&&&&;*&;&&&=;$&&&&&;&&&&&&&&&&&&&&&&&*&&&;&$*&$&&&*&:&",
"&&*&&&&&&&&&&&$$&&&&&&&;&&&&&&&&&;%;&&&&%&&&&&$&&**&&$&&&&&$*&&:",
"&&&$&$&&&&&&&&*&;&&&&;&&&;;&$&&&&&$::&&&&&*;&;&&&*&&&&*&&&;&&&&=",
"*&*&&**-&*&&&&&&*$&$&$&&&&&&&&&&&*&&&&*&&&&&&&&&&&&$&&&&&$&&*;&&",
"&$*&&&&;$&&;&&;&&&&&&;&&&&&=&&;$;&&&&&**&&%;&&&&&;&&*&&&&;*&&&&*",
"&&&&&&&&;;&&-&&;&=&&&&;$&$&;&&&=&&&$&&&**&&$&$&&&&*$&$$$&*&&&;;&",
"&&&&*&&&&&&&&&&&&&&$&;&&&&;&&;&:&&&&;&$&$&&;&&&&&&&&$*&&*&&&&*;;",
"&&;;&&&$&*&&&&&&&&$&*;=&&$&*&;&$&&&;*&&;&;;=&&&$&&&&&:&&&&&&&&;&"
};
