/* XPM */
static char *_8cfd1478e6a4dbedb139d44514630c2JjsPk0NbcDKu4IJh[] = {
/* columns rows colors chars-per-pixel */
"50 50 45 1 ",
"  c #092652",
". c #0C2752",
"X c #0E2852",
"o c #102852",
"O c #142A53",
"+ c #192D54",
"@ c #1D2F55",
"# c #203055",
"$ c #253356",
"% c #273456",
"& c #283656",
"* c #2B3857",
"= c #2D3958",
"- c #303B58",
"; c #323C59",
": c #343E59",
"> c #38415B",
", c #3D445C",
"< c #40475D",
"1 c #41485E",
"2 c #454B5F",
"3 c #464C5F",
"4 c #474D60",
"5 c #494E60",
"6 c #4B5061",
"7 c #4D5262",
"8 c #505563",
"9 c #515564",
"0 c #565A66",
"q c #585B67",
"w c #585C67",
"e c #5B5E68",
"r c #5C5F68",
"t c #5E6069",
"y c #61636A",
"u c #62646B",
"i c #63656C",
"p c #65676D",
"a c #67686D",
"s c #696A6F",
"d c #6D6E70",
"f c #6F7072",
"g c #727273",
"h c #737374",
"j c gray46",
/* pixels */
"                                                  ",
"                                                  ",
"                                                  ",
"                                                  ",
"                                                  ",
"                                                  ",
"                                                  ",
"                                                  ",
"                                                  ",
"                                                  ",
"            ajjjjjjjjjjjjjjhjjjhjjjj%             ",
"             :i7    :dd5&X  @:9s0O8j:             ",
"              Xyw  1gd@        X8a3j<             ",
"               &h. uj7           2sj6             ",
"                d+ pj>            0j9             ",
"                a@ pj=            Ofe             ",
"                a@ pj=             8y             ",
"                p@ pj=             $a             ",
"                p@ pj=        6&    *             ",
"                p@ pj=        s=                  ",
"                p@ pj=       ,j=                  ",
"                p@ pj=      %dj=                  ",
"                p@ pj=  o$,0drj=                  ",
"                p@ pjjjjjjjs%5j=                  ",
"                p@ pj=  +$>0sqj=                  ",
"                p@ pj=      *dj=                  ",
"                p@ pj=       4j=                  ",
"                p@ pj=       Xd=                  ",
"                p@ pj=        t=                  ",
"                p@ pj=        @o                  ",
"                p@ pj=                =*          ",
"                p@ pj=               %d-          ",
"                p@ pj=              @sd           ",
"                s@ pj-             +ajw           ",
"                d+ pj>            #ppj<           ",
"               +hO pj6           ;s,sgO           ",
"               8s  9jp         O9s-$ji            ",
"             +9y#   9hy,#.  #>0d9O 6j6            ",
"            egjjjjjjjjjjjjjjjjjjjjjjj%            ",
"                                                  ",
"                                                  ",
"                                                  ",
"                                                  ",
"                                                  ",
"                                                  ",
"                                                  ",
"                                                  ",
"                                                  ",
"                                                  ",
"                                                  "
};
