/* XPM */
static char *_cf5e3ffc40f4207cad02aca0f59819czS2BiD7krNxLZ1b1[] = {
/* columns rows colors chars-per-pixel */
"50 50 166 2 ",
"   c #484747",
".  c #474847",
"X  c #484847",
"o  c #484748",
"O  c #474848",
"+  c #484848",
"@  c #504F4F",
"#  c #50504F",
"$  c #504F50",
"%  c #4F5050",
"&  c #505050",
"*  c gray34",
"=  c #585757",
"-  c #575857",
";  c #585857",
":  c #575758",
">  c #585758",
",  c #575858",
"<  c #585858",
"1  c gray37",
"2  c #5F5E5E",
"3  c #5E5F5E",
"4  c #5F5F5E",
"5  c #5E5E5F",
"6  c #5F5E5F",
"7  c #5E5F5F",
"8  c #5F5F5F",
"9  c #676666",
"0  c #666766",
"q  c #676766",
"w  c #666667",
"e  c #676667",
"r  c #666767",
"t  c #676767",
"y  c gray43",
"u  c #6F6E6E",
"i  c #6E6F6E",
"p  c #6F6F6E",
"a  c #6E6E6F",
"s  c #6F6E6F",
"d  c #6E6F6F",
"f  c #6F6F6F",
"g  c gray46",
"h  c #767575",
"j  c #757675",
"k  c #767675",
"l  c #757576",
"z  c #767576",
"x  c #757676",
"c  c #767676",
"v  c gray49",
"b  c #7E7D7D",
"n  c #7D7E7D",
"m  c #7E7E7D",
"M  c #7D7D7E",
"N  c #7E7D7E",
"B  c #7D7E7E",
"V  c #7E7E7E",
"C  c gray52",
"Z  c #868585",
"A  c #858685",
"S  c #858586",
"D  c #868586",
"F  c #858686",
"G  c #868686",
"H  c gray55",
"J  c #8D8C8C",
"K  c #8C8D8C",
"L  c #8D8D8C",
"P  c #8C8C8D",
"I  c #8D8C8D",
"U  c #8C8D8D",
"Y  c #8D8D8D",
"T  c gray58",
"R  c #959494",
"E  c #949594",
"W  c #959594",
"Q  c #949495",
"!  c #959495",
"~  c #949595",
"^  c #959595",
"/  c gray61",
"(  c #9D9C9C",
")  c #9C9D9C",
"_  c gray64",
"`  c #A4A3A3",
"'  c #A3A4A3",
"]  c #A4A4A3",
"[  c #A3A3A4",
"{  c #A4A3A4",
"}  c #A3A4A4",
"|  c #A4A4A4",
" . c #ABAAAA",
".. c #AAABAA",
"X. c #ABABAA",
"o. c #AAAAAB",
"O. c #ABAAAB",
"+. c #AAABAB",
"@. c gray67",
"#. c #B3B3B2",
"$. c #B3B2B3",
"%. c #B2B3B3",
"&. c gray70",
"*. c gray73",
"=. c #BBBABA",
"-. c #BABBBA",
";. c #BBBBBA",
":. c #BABABB",
">. c #BBBABB",
",. c #BABBBB",
"<. c #C1C1C1",
"1. c #C2C1C1",
"2. c #C1C2C1",
"3. c #C2C2C1",
"4. c #C1C1C2",
"5. c #C2C1C2",
"6. c #C1C2C2",
"7. c gray76",
"8. c gray79",
"9. c #CAC9C9",
"0. c #C9CAC9",
"q. c #CACAC9",
"w. c #C9C9CA",
"e. c #CAC9CA",
"r. c #C9CACA",
"t. c #CACACA",
"y. c gray82",
"u. c #D2D1D1",
"i. c #D1D2D1",
"p. c #D2D2D1",
"a. c #D1D1D2",
"s. c #D2D1D2",
"d. c #D1D2D2",
"f. c #D2D2D2",
"g. c #D8D8D8",
"h. c #D9D8D8",
"j. c #D8D9D8",
"k. c #D9D9D8",
"l. c #D8D8D9",
"z. c #D9D8D9",
"x. c #D8D9D9",
"c. c gray85",
"v. c #E1E0E0",
"b. c #E0E1E0",
"n. c #E1E1E0",
"m. c #E1E0E1",
"M. c #E0E1E1",
"N. c #E1E1E1",
"B. c gray91",
"V. c #E9E8E8",
"C. c #E8E9E8",
"Z. c #EFEFEF",
"A. c #F0EFEF",
"S. c #EFF0EF",
"D. c #F0F0EF",
"F. c #EFEFF0",
"G. c #F0EFF0",
"H. c #EFF0F0",
"J. c #F8F7F7",
"K. c #F7F8F7",
"L. c #F8F8F7",
"P. c #F7F7F8",
"I. c #F8F7F8",
"U. c #F7F8F8",
"Y. c #F8F8F8",
"T. c white",
/* pixels */
"+ O + + + X + + + + + +   o o + + X + + + + + o + X + O + + + + + o + + + o + O + + o + + X o + + + ",
"X % & & % & % & & & & & & # & & & & & & & & & & & % & & $ & & & & & & & & & & & & & & & & & & % & + ",
"+ # > : * * * * , = - * - - > * > - = - = ; = - = - = , : * , = : : ; : * < > = - : - = ; , = ; & + ",
"O $ = 8 8 8 8 8 8 8 8 8 8 8 8 8 8 8 8 8 8 8 8 8 8 8 8 8 8 8 8 8 8 8 8 8 8 8 8 8 8 8 8 8 8 8 8 : & + ",
"+ & : 8 t t t t t t t t t t t t t t t t t t t t t t t t t t t t t t t t t t t t t t t t t t 8 * & + ",
"O & * 8 t y y y y y y y y y y y y y y y y y y y y y y y y y y y y y y y y y y y y y y y y t 8 - & X ",
"+ & * 8 t y j j j j j j j j j j j j j j j j j j j j j j j j j j j j j j j j j j j j j j y t 8 > & X ",
"+ & = 8 t y j V V V V V V V V V V V V V V V V V V V V V V V V V V V V V V V V V V V V j y t 8 * & + ",
"o & : 8 t y j V S S S S S S S S S S S S S S S S S S S S S S S S S S S S S S S S S S V j y t 8 > # + ",
"+ $ * 8 t y j V S L L L L L L L L L L L L L L L L L L L L L L L L L L L L L L L L S V j y t 8 > # + ",
"o & * 8 t y j V S L ^ ^ ^ ^ ^ ^ ^ ^ ^ ^ ^ ^ ^ ^ ^ ^ ^ ^ ^ ^ ^ ^ ^ ^ ^ ^ ^ ^ ^ ^ L S V j y t 8 = & + ",
"+ & * 8 t y j V S L ^ / / / / / / / / / / / / / / / / / / / / / / / / / / / / ^ L S V j y t 8 = & X ",
". & - 8 t y j V S L ^ / ` ` [ ` [ } ` ] | _ ] _ } ` ' ` ' ] ' } [ { _ } [ _ / ^ L S V j y t 8 - & + ",
"o & : 8 t y j V S L ^ / ` @.@.@.@.@.@.@.@.@.@.@.@.@.@.@.@.@.@.@.@.@.@.@.@.} / ^ L S V j y t 8 > & O ",
"X @ , 8 t y j V S L ^ / } @.$.$.$.$.$.$.$.$.$.$.$.$.$.$.$.$.$.$.$.$.$.$.@.` / ^ L S V j y t 8 * & o ",
"+ & - 8 t y j V S L ^ / [ @.$.-.-.-.-.-.-.-.-.-.-.-.-.-.-.-.-.-.-.-.-.$.@.] / ^ L S V j y t 8 = & + ",
"+ & = 8 t y j V S L ^ / ` @.$.-.7.7.7.7.7.7.7.7.7.7.7.7.7.7.7.7.7.7.-.$.@.` / ^ L S V j y t 8 * & + ",
"X & = 8 t y j V S L ^ / _ @.$.-.7.0.0.0.0.0.0.0.0.0.0.0.0.0.0.0.0.7.-.$.@.{ / ^ L S V j y t 8 * & + ",
"+ & - 8 t y j V S L ^ / } @.$.-.7.0.y.y.y.y.y.y.y.y.y.y.y.y.y.y.0.7.-.$.@.` / ^ L S V j y t 8 , & X ",
"+ & , 8 t y j V S L ^ / | @.$.-.7.0.y.k.k.k.k.k.k.k.k.k.k.k.k.y.0.7.-.$.@.| / ^ L S V j y t 8 * & X ",
"+ & * 8 t y j V S L ^ / ] @.$.-.7.0.y.k.n.n.n.n.n.n.n.n.n.n.k.y.0.7.-.$.@.' / ^ L S V j y t 8 ; & + ",
"+ & = 8 t y j V S L ^ / { @.$.-.7.0.y.k.n.B.B.B.B.B.B.B.B.n.k.y.0.7.-.$.@.' / ^ L S V j y t 8 * # + ",
"+ & , 8 t y j V S L ^ / ] @.$.-.7.0.y.k.n.B.H.F.F.Z.H.D.B.n.k.y.0.7.-.$.@._ / ^ L S V j y t 8 * & + ",
"+ & * 8 t y j V S L ^ / [ @.$.-.7.0.y.k.n.B.G.K.L.U.L.D.B.n.k.y.0.7.-.$.@._ / ^ L S V j y t 8 ; % O ",
"+ % * 8 t y j V S L ^ / [ @.$.-.7.0.y.k.n.B.D.U.T.T.P.Z.B.n.k.y.0.7.-.$.@.` / ^ L S V j y t 8 : & + ",
"+ & * 8 t y j V S L ^ / [ @.$.-.7.0.y.k.n.B.S.I.T.T.I.G.B.n.k.y.0.7.-.$.@.` / ^ L S V j y t 8 * & + ",
"+ & * 8 t y j V S L ^ / _ @.$.-.7.0.y.k.n.B.Z.P.J.U.Y.F.B.n.k.y.0.7.-.$.@.[ / ^ L S V j y t 8 = & + ",
"+ & < 8 t y j V S L ^ / _ @.$.-.7.0.y.k.n.B.S.A.S.G.H.S.B.n.k.y.0.7.-.$.@.` / ^ L S V j y t 8 , & + ",
"+ & * 8 t y j V S L ^ / ' @.$.-.7.0.y.k.n.B.B.B.B.B.B.B.B.n.k.y.0.7.-.$.@.} / ^ L S V j y t 8 * & + ",
"+ & > 8 t y j V S L ^ / { @.$.-.7.0.y.k.n.n.n.n.n.n.n.n.n.n.k.y.0.7.-.$.@.` / ^ L S V j y t 8 * & O ",
"+ & = 8 t y j V S L ^ / } @.$.-.7.0.y.k.k.k.k.k.k.k.k.k.k.k.k.y.0.7.-.$.@.' / ^ L S V j y t 8 , & . ",
"+ # = 8 t y j V S L ^ / ` @.$.-.7.0.y.y.y.y.y.y.y.y.y.y.y.y.y.y.0.7.-.$.@.[ / ^ L S V j y t 8 : & + ",
"+ & , 8 t y j V S L ^ / _ @.$.-.7.0.0.0.0.0.0.0.0.0.0.0.0.0.0.0.0.7.-.$.@.| / ^ L S V j y t 8 - & + ",
"+ & : 8 t y j V S L ^ / | @.$.-.7.7.7.7.7.7.7.7.7.7.7.7.7.7.7.7.7.7.-.$.@.` / ^ L S V j y t 8 < & + ",
"+ & - 8 t y j V S L ^ / _ @.$.-.-.-.-.-.-.-.-.-.-.-.-.-.-.-.-.-.-.-.-.$.@.} / ^ L S V j y t 8 - & + ",
"+ & > 8 t y j V S L ^ / [ @.$.$.$.$.$.$.$.$.$.$.$.$.$.$.$.$.$.$.$.$.$.$.@.[ / ^ L S V j y t 8 * & + ",
"X & * 8 t y j V S L ^ / _ @.@.@.@.@.@.@.@.@.@.@.@.@.@.@.@.@.@.@.@.@.@.@.@.} / ^ L S V j y t 8 < & + ",
"+ & : 8 t y j V S L ^ / ' _ [ { ' _ [ ] | | _ ' ' _ _ _ _ } [ } ` _ _ | | | / ^ L S V j y t 8 = & + ",
"X % : 8 t y j V S L ^ / / / / / / / / / / / / / / / / / / / / / / / / / / / / ^ L S V j y t 8 - & X ",
"+ & : 8 t y j V S L ^ ^ ^ ^ ^ ^ ^ ^ ^ ^ ^ ^ ^ ^ ^ ^ ^ ^ ^ ^ ^ ^ ^ ^ ^ ^ ^ ^ ^ ^ L S V j y t 8 - & + ",
"+ & - 8 t y j V S L L L L L L L L L L L L L L L L L L L L L L L L L L L L L L L L S V j y t 8 : & o ",
"+ & = 8 t y j V S S S S S S S S S S S S S S S S S S S S S S S S S S S S S S S S S S V j y t 8 = & + ",
"+ & * 8 t y j V V V V V V V V V V V V V V V V V V V V V V V V V V V V V V V V V V V V j y t 8 = & + ",
"o & - 8 t y j j j j j j j j j j j j j j j j j j j j j j j j j j j j j j j j j j j j j j y t 8 , % O ",
"+ & = 8 t y y y y y y y y y y y y y y y y y y y y y y y y y y y y y y y y y y y y y y y y t 8 = & + ",
"+ & ; 8 t t t t t t t t t t t t t t t t t t t t t t t t t t t t t t t t t t t t t t t t t t 8 - & + ",
"+ & : 8 8 8 8 8 8 8 8 8 8 8 8 8 8 8 8 8 8 8 8 8 8 8 8 8 8 8 8 8 8 8 8 8 8 8 8 8 8 8 8 8 8 8 8 = & + ",
"+ & > - : * > : - - - = - , - < * * , * = - * - * > = , , - : - - * * ; , = = - = * * = > : > > & O ",
"+ & & $ & & & & & & & % & & & & & & & & & & & & & & & & & & & & & & & & # & & & & & & & & & & & & + ",
"o o + X + + o + o + + + + +   + + O + + o o X + + o + + + + + + + + + + + + O o X + + + o X + + X + "
};
