/* XPM */
static char *result[] = {
/* columns rows colors chars-per-pixel */
"64 64 16 1 ",
"  c #2E7C44",
". c #2F7C44",
"X c #2E7D44",
"o c #2F7D44",
"O c #2E7C45",
"+ c #2F7C45",
"@ c #2E7D45",
"# c #2F7D45",
"$ c gray61",
"% c #9D9C9C",
"& c #9C9D9C",
"* c #9D9D9C",
"= c #9C9C9D",
"- c #9D9C9D",
"; c #9C9D9D",
": c #9D9D9D",
/* pixels */
"o#.O##XOOOO#O@@O##@@O@@X#X@+X@@@OOX@@o@X##@@#XX@O@O#O#@@@@O@XO@O",
"XXO@#X@o@+@@@@X@@@O@##+@@@OX@@#@@X@@@@OX#@@@@@O@X#OOX#X@XX@#@@@O",
"X@@@O@@@@@@X#XX@X @@@O##@@@@O@X@#OXOXX@@@# @X+@#@@@O@@OO@@@OOO@@",
"@@#@@@X##o+@O@@@@#O@X#O@@@@@@#@ @@XO+@O@@@o+#@X@X@+@@#+#X@@OOo +",
"OO@@@@@@@ @@X@@@@@O@O@X#@Oo@#@@@@O#@@#@@@@.#@@##@@@#@@@@##OXoXXO",
"X@O@#@OX#@@O@@X@@@@X@ @#XO@@@@##X##@#@#@@O#@#@@@@@@@X+@@@X@@@OO@",
"@#@@@@@#@@@@O+O###OOOO@@@ X#@o@@+@#X@#@@X@@.O@O@@#X@ o#@O@@@@@@o",
"O@@+XX@@O@#O @@@X@@O@@OX@X+X@@@X@O@@@@@@@ @@O@@#XO#@@O@O@@@XOXX#",
"##@o@@@X@@@@XO@@X@O@@@O@oX#O@@@#@@#o@O@O#@@OX@O@@OO##.@X@@@#X@@@",
"@X@# o@@@@X@@OX@@@XO @O@@@O@XO@#O@@@@@X#@@@@@@OX@#O#@O@oOO@X#@@@",
"@OX@@@@@@#@@X @OO#O@@@@XX@@@#@@@@X#@@# XO@@o@@@@@@@X@#X.@@O@X@@+",
" @X@@@@@#oX@X@@@#X@X@@@@@@##+@+@o#X@@@+O#@X#@OX@X@#@@@OX@@ @O O+",
"@@@OO@@O@#X@@XO@@X@@@@@X@@+O@@@#@#@O@@#@#O O+#@@#@o@#@X#@#@X#@@#",
"#@X@X#X@@+X@@X@@@@::*:::;:;;;:;;;;*:&:***&--%--:=-@#XXo@@@@@#@@+",
"@@@@#@.XOO@o@@@#@o:::;:**:;;;;;;==********--------@@OXX#@@# @@@O",
"@ O#@@#@X@@@@#@@@@::::::*:;;$&;;;;*****&**-------=O@@@X@@O@@@X@O",
" O@OO@@@#@@XX@XOXX::::::::;;;$;;;;**&*****--:-----+@X@ X@@@#OO@#",
"@@@OOOX@O@XX@O@O@#*:::::::;;;;;=;;**&****&-=------@@@@O@#O##OX@@",
"O@@X@@@@#.O@@@#@@O:*:::-:;;:*&;;;;********--------OOO#@@#@O@@X #",
"XXXX@@O@@@@#@ @ @@::*:::-:&=;;;;;:********--------O@@@#OO@X@@@@@",
"X@O@@X@XXX#@@X@O@@::::::::;;;;;;;=*******&-----:--@O@X@OO@#O@@#@",
"#O@X#X@O@@OO@#@@@@===-==$=@O#@@@#X#X@@XX@#O@@OOo@@@#X@#X@o@+@O@@",
"+o#@@X@Oo@Oo@oX@O@========@#oO@#O@@#@@@@@OO@+O@@@@@O@O@#@@ O@@@#",
"@@#@@X @O@@@  +@O#========@o@X@@@X@@oOX@@#O@X#@#@@@@@oO@@@+@@@+X",
"O@OO#X@O@oO@o@@@@@===;====X@@#@@#@@#@#O@@X@X@@OX@O@O@@O@#+X#@@o@",
"@.@## oX@X@@@.#@O#==;=====#@X@O+@OOOX@O@  @OO@++@@@@@@+@OX@XO@@O",
"@@o@@@@@O@@OO#@@@#$;=====-X@@@@+@@@@@#X@@@#X.@ @X##O@O@@X@@@@@@+",
"oXX@@X@ #O@X  @OX@$;;$;==;O@#@@@O.@@@@@#+##@oX@@@@@@X@@#@#@@XXXO",
"#OOO@@XXX+O@o@@@@+======;=##@#O@ @XX@O#X#o  @@X@#O@X@@ XOO@O@@@@",
"@@@@@XO##X@@#@#@#X********::::::::=$=====;@@#@OoOOX @O@@@@O#@O#X",
"@@@oO@@#@@@@XO@@ O%*******::::::::=-$====;@@X@#@O@# #X.@o@@O@OX#",
"+@@#.@@+X@@@@@@O@X***:****::::::::=-=====;OX#@#@X@@XX#@@@@@##+@.",
"OO@@X@@X#XOO@#oO@#****:**%::::::::========+@@@@#@@XO@@@O @@XO@@X",
"X@@@@@XX ##@ @#OX#*****&**:;::::::=$======@@+@@@@@@+@@#@@@O#X@OX",
"##@@X@@# +@@##@@#@********::::::::==$=====@@o@@XXX@@XX@O@@OO@+O#",
"#@@@@O#@#+O#X#X@+@*****&:*::::::::======;-@@@#@O@#@#O@@#XX@X@@@@",
"+O@@@+o#O#@+O@@O@X****:***;:::::::==-==$==+@@@#@#@#O@oO.OO#@X@@@",
"@#@@@@X@#O#@o@X@@@:*:-:*::O#@O@X@@@O@O#@OX@O@ O@ @@@O@o@@@X o+#@",
"O@@@#@X@@@X@@+@@X#::::::;:##@@X#@@X@oO@#@O#o#@@@@X@@#@@@@@#@#OXo",
"#@@@o@XX+@O@X@O@@@:::::;:*O#@@@X+@@@X@@@@@@@X@@@@X@@#@@@X@@@X@@O",
"@@@@@X@@Oo@@@@#@@@::*:::::@@X@@O@+#@o@@@@X@O@@@#@X@@o@X#@@@@O X@",
"O@+O@X@@oX@X@+o@@#*::;:::-XX.@#XXo@## @@@@#@#@#@#oO@@@@X@X@#@+@@",
"X#@@@@@XO@Xo@X@X#@::::*:::@@@X#@O@#X@ O##+@XO+.#@@@O#O@@OOOX@@#@",
"@@OOOO#XO#@@o@@#@@::::::;:O @o@#@@#@@OX#o@@@X X@ @X@@O##@@X@@#@O",
"o#  @OX+@@o@@@XXOO::::::::@@ .@XO@@@@@#O@@@@@@Oo@OX# @@.@OO@X@+@",
"##@X@ O#@XX@X@#X@O&&&&&&&;##@@@XO@@@#@@X#@X@@@@O+X@@OX#@@@Oo@@XX",
"#oX X@+@#@@@#OO@@O&&&&&&&&@.O@@@X@@@@@#@O@ #@@O+@X@@@@@Oo##@@@@@",
"@X@o@@@@O@X@@@@@XO&&;&&&&&X+O# @OO#@@@@X#@XX@@@@@X@@.+@OX@O@ @XO",
"X@#XO#+@##@@X@@O@O&&&$&&&$@@#@@@X@X @@@Oo#@@@@@@ @#@+X@@@#@O@+o@",
"@@#@#@O@X@XX@@@@@@*&&&&&$&+@@O@O@O+O@OO@@@ @OoX@OXOoo@OX@@O#OX@@",
"@@@@o@@@OO@X@ooO@X&;;&&&&&@#@+#@@@@@+X@@@X#@oX@+@@+O@X@@X@O@O@@O",
"@X@@O#@O@X+X#X@@@O&&&&&$&*X@@Oo+@oo@@@@@@X@@OX@@X@+@X@@O#@@@@##@",
"@@@@OOX @@X@@X@O@@&&&&&&&&@@@@O@@@@@+@@ @OO#X@OO#@+@@o@O+ O@O@O@",
"X@@@@OX@@@X@@#@O#X@@ @ ##@@@@OX@@#X@#O@oX@@o+@@@XOX @@#X@@@OX@O@",
"X#@@#X@@@@@X X @+@Xo@@@#@@+.o@O@+X@@+@OO@@X#+ @O@X @@+@X@@@@@#O@",
"#@#OOO#@@@@@@@O@#+@#@+O#X@+@.XO@@@@@@ @@O##@X@O@@X@@@O #@Oo@#@##",
"@XOOX@#@@@#@XX+@@#@O@@@@#X @@OO#@@#@@XO@X@@@+o@@@@@@@O@@@@@@@O@@",
"XO@@#@@X@@@@@O@O@@@@@X#XXO@@X @#X@@XOXXO@@@@#O@@O##@@@@X@O@@#@@@",
"@@+@@#@OO @@@#@#@##X@@O@O#@@O@@@#O@@@O@@@@XoO@OX@#@@XXX@@o@@@#@@",
"O@@@X@#+OX@X@O#@#@Oo@OX@@X@OO@OO#@O@ @@O@@+@@O+@#@#@XO+@@@@oXOX@",
"O#O@@@@X#O@O+##+@o@@@@O@XX##@@@@O@@@@@@#@X@XO#@OO@@@@X@@@o@@@@@@",
"@ @X@@@@@O@XX@O@@X#@@O@@@##X@@@+X@#O@O@#O@OX#+O@X#+@@@@#OX@@@@@@",
"+@@O@@@@#@@ @X@oX@@@O@O@OXXX+@@@O@@@@.##@XX@@o@#XoXO@X@## @#@O#@",
"X#OX@@@@@@@O@@O@##  @XX@O@@@@@#OoO@@OO X#+@X @OO @X##@O+#OXO#X  "
};
