/* XPM */
static char *result[] = {
/* columns rows colors chars-per-pixel */
"64 64 16 1 ",
"  c #162A42",
". c #172A42",
"X c #162B42",
"o c #172B42",
"O c #162A43",
"+ c #172A43",
"@ c #162B43",
"# c #172B43",
"$ c #546C8E",
"% c #556C8E",
"& c #546D8E",
"* c #556D8E",
"= c #546C8F",
"- c #556C8F",
"; c #546D8F",
": c #556D8F",
/* pixels */
".. o+o.+++. ...o...+......o .o .+.. ...o.o..o.+.. .+o..  .#o+o. ",
"+ ....oo.o+..+ ...o+.....+..X...+..o+.O..O....o. ... +...o....oo",
"+.+ .+...oo.o. +. .+ o.++....o+.. .+. O.....o............O. o...",
".o.... .....oo....+..#..+.#.... ....o+.....+ ....oo.XX. .+..o.+.",
"+... o.o.....o.. .o..  #.o+o. .o#o+..oo.. . + +....o..+.... .#.o",
"......... .+++......+.+..........+Xo+.+. .+.+..o...+. o..+.#..+o",
" .. .+ . ....o...++..... ..o+...+..+.....+. +++.... ..+. ..oo..+",
".... .+... ....o...o.o.....o.....X+o. .  .+...o. +..+... ...o+.o",
"...o.X....... ...... .+o..o.+.........o+...oo+.o...... o.o+.+..+",
".#o. ..... .o ..+.+....o. .o .+..o... .+... .#.......oo +.  ...+",
".oo. + .o......+...o....+. ...... ......+... .... ..O....O......",
". ..#..#O ..+..o.X...+..o o ..... ..o..#..Oo..o. .. . ......o++.",
". ......   .. .o********...+.  ....+.+.o******&*o ....++O.......",
".#....+o. ..@+..********+. ..+.. +....X.********.o+....+.. o..+.",
".X....... .. ..o**&*:***.......o.....o..***%*:**...#.. .....+...",
" .o   .+ .+.... *****:**....# ........o.********. ....+.o. ++. +",
" .....o....Xo.. *****&**o.+.  ....o.....**%*&*** .... ...o..... ",
".+.. ..  +.o X.o********..oO..+#..o..Xo.****:***..o......o...+..",
".o.+#+..oo......********.+.o o..........**:*****...o....o... ...",
"+oo......Oo...+o*****&**#o.....o.......o**%*****.o...o........+ ",
"+ .. ........o..::::::::-------%.......#--------.. ....X........",
"+..... .... o.o.*::::-::----;---.+...+ .------=-o..+....o.++.+..",
"..+.....+O.... .:-*:::::--------..+..+..---*----..+ o.. +...+..o",
".++........... .:*::::::--------o.....#.-----%-%.X...+.o.... +..",
"..+.... .... .#.:::::-:;-------% .X oo..-=------..... ... ......",
".oO.o+.... O.+.#::::::-:=-:----- .+.... -----*--o.....o.+.......",
"...+..... ..+O.+::::::::-:%-----........=------%.oo.+.+o..++.. #",
"...O....o. .. ..-::::-::-----=-=..oX.. .--%-----o ..+....+....+.",
"..oo.. .o++.....****&*%& .. ..+.;;;;&;;;;=;;*;&;..o...o.oo. .. o",
"......+.... ....*:*****%........;;;;;;&;;;;&;;;;... ....+ ....o ",
"o...o+o+......oo%*******o.......;;;;;;;;;=;&;:;;....#O..+O......",
"...o ......+....*&******....o...;;*=;;&;;;;;:;;; . . ..o+.oo.o.o",
".O....o....+.o o::******.o......;;;;=*:;;;&;;;;; o .o....X+o.+o.",
"....++ .o..o ..+*:******......+.=;;;;;;;;;;;;;;; ...............",
".+X+. +.. .o....********.oo.....;;;;;;;;;;;;;=;;o# .o.O+....... ",
"...........O ...********O..+@ +o;;;;;;;;;;;;;;;;.+o ....+.......",
"..... oo+.+... .&&&*&&:&.. +...+..o...o.:;;;;;;;.....o..o.  ++.+",
"O +. ....O.+. ..&&&&&&&&.. ....#o..+X. +;;;;;=;;.. .. ...o.+o...",
" ...o..+. .+....&&&&&&&& ....+.. ..o....;;;=;&;&X....o. .. .+ ..",
".+...o..........&&&&&&&&X+..#...oo. ....;;:;;=;;... .. ..... +.o",
"............ .o &&&&&&&$o.o........ +..+;;;;=;;;.oo... o........",
"..+.....oo....O.&&&&&&&&....+ ..+..o....=;=;;=;=. ............. ",
"+.o. . .+.......&&&&&&&&...+o.. ..o..oo ;;;;;;=;..+oX.oo.... +..",
"......oo..... ..&$&&&&&*oo..+...  ...+ .;;;;;;;;.....#.. .++.o+.",
"....#.... .....o&;=&&&&&...+ o...++..+..&$&&$&&&.+. ............",
"..+.X  .........&&&&&&&$o.....+oo.+. ..o&&&&&&&*.o... ..@....Xo.",
"....X ....+.....&*&&&&&&.o#.+.+....+....$&&;&&&$....o.......... ",
"  +o.......+X...&&&&&&&&.+ o+..o.....+..&&&&&&&&.O...o... #+... ",
"o......oo..++..o&&&&&*&&+ +.. .....o ..o&&&*&&&&..++.+  .......o",
"..o...o  .......*&&&&&&&o....o.. .......&&&&&&$&...o.... ooo+...",
"... ...#....++.o&&$&&&;&.............+X.&&&*&*&&...o....o.. .o#.",
"o..X  +...+.o...$*&&&&&&+ o+......... ..&&&&&&&&+...... .... .++",
".o. ... + .. o.... .....+o  .....o....o.o.o...o.. oo .o.........",
".....o......... oo  .+...o#O.o.O... . oo... ...++... ..o.. .+  #",
"...o ...+.....+.o...+.o...+#.......o.....+.. +....... ... .o ...",
"..o...X...o...........#o.o....    . .+.+.o........ .......+.  . ",
"o..oX+  ..o.+o...++o+.. . .... ..... . .+..+....+o..... ....#. .",
"..o@o....o........oo.+.+o.... ..o....X..o..o.....+....o ......++",
"+............+...... .. ... ....+  .... .++..#.o+...Xo .#.....oo",
"o..o...+ ....+..o.....+..+o  .........oo.....X. X.+...o.......o.",
". .Xo...... . .......++..  .o..O.o.o+... . ... . . .....o.......",
"+..+....o +..o..... ..++O.o.  . ....  ...+++....+  o..o.  . ....",
"......#.o......O.......oo.......+..o......oo+o...++.+...+....o..",
"O...+.....o.........o. +X  ...+.+....o.+..o..+ #+.... ...+o.o.X."
};
