/* XPM */
static char *b4c096254edd494adbfbd4387a8616a7PDvU9rXuQbdQnYfB[] = {
/* columns rows colors chars-per-pixel */
"50 50 49 1 ",
"  c #092652",
". c #0C2752",
"X c #0E2852",
"o c #102852",
"O c #152B53",
"+ c #182C54",
"@ c #1C2E54",
"# c #1F3055",
"$ c #223155",
"% c #253356",
"& c #273556",
"* c #293657",
"= c #2B3857",
"- c #2F3B59",
"; c #313B58",
": c #323C59",
"> c #353E5A",
", c #37405A",
"< c #38415A",
"1 c #3B435C",
"2 c #3E465D",
"3 c #40475D",
"4 c #41485E",
"5 c #444A5F",
"6 c #464C5F",
"7 c #494E60",
"8 c #4B5061",
"9 c #4C5162",
"0 c #505463",
"q c #535765",
"w c #545865",
"e c #585B66",
"r c #5A5D67",
"t c #5A5D68",
"y c #5D5F69",
"u c #5F616A",
"i c #61636B",
"p c #63656B",
"a c #63656C",
"s c #64656C",
"d c #66686D",
"f c #6A6B6F",
"g c #6B6C6F",
"h c #6B6C70",
"j c #6E6F71",
"k c #6F7072",
"l c #717172",
"z c #737374",
"x c gray46",
/* pixels */
"                                                  ",
"                                                  ",
"                                                  ",
"                                                  ",
"                                                  ",
"                                                  ",
"                                                  ",
"                                                  ",
"                                                  ",
"                                                  ",
"         fxxxxxxxy             @lxxxxxxxxl        ",
"         O9s-  >zx<             X>ytO rl8O        ",
"           -f<  wxj&               4p>x<          ",
"            &f1  ixf#               whp           ",
"             5l> +dxdO              &x9           ",
"             5yf- @fxpo              j3           ",
"             5w:f* $gxuX             s,           ",
"             5q <f$ *jxt             i>           ",
"             5q  2f+ -lxw            u:           ",
"             5w   5s+ >lx0           u:           ",
"             5w    7po 2lx7          u:           ",
"             5w     9u  4xx5         u:           ",
"             5w      wr  6xx2        u:           ",
"             5w       rw  9xl,       u:           ",
"             5w        u9  qxl:      u:           ",
"             5w        .i7  exk*     u:           ",
"             5w         Os5  yxj&    u:           ",
"             5w          +s2 .ixf#   u:           ",
"             5w           $d< OsxdO  u:           ",
"             5w            &f: +fxpo u:           ",
"             5r             -f= $hxuXu:           ",
"             8y              ;f& %jxtu:           ",
"             qs               ,f$ -jxl:           ",
"             aj                2s+ >lx:           ",
"            Ojx<                4pO <l:           ",
"            7qha                 7iX u:           ",
"           *f+4xq                 9u u:           ",
"          <f:  wxp:                qeu:           ",
"         wxxxxxxxxxf>               el:           ",
"                                     w*           ",
"                                                  ",
"                                                  ",
"                                                  ",
"                                                  ",
"                                                  ",
"                                                  ",
"                                                  ",
"                                                  ",
"                                                  ",
"                                                  "
};
