/* XPM */
static char *cd759e329f1e4e5fde06d589a56dbc96U4MPgMejSqOh7uh6[] = {
/* columns rows colors chars-per-pixel */
"50 50 49 1 ",
"  c #092652",
". c #0C2752",
"X c #0E2852",
"o c #102852",
"O c #152B53",
"+ c #1B2D54",
"@ c #1C2E54",
"# c #1F3055",
"$ c #223155",
"% c #253356",
"& c #273556",
"* c #293657",
"= c #2B3857",
"- c #2E3A58",
"; c #313B58",
": c #343E5A",
"> c #37405A",
", c #38415A",
"< c #3C445C",
"1 c #40475D",
"2 c #434A5E",
"3 c #454B5F",
"4 c #464C5F",
"5 c #464C60",
"6 c #4A4F60",
"7 c #4B5062",
"8 c #4D5262",
"9 c #4F5463",
"0 c #505563",
"q c #525664",
"w c #545865",
"e c #585B67",
"r c #5A5D67",
"t c #5A5D68",
"y c #5C5E68",
"u c #5D6069",
"i c #61636B",
"p c #62646B",
"a c #63656C",
"s c #65666C",
"d c #67696E",
"f c #696A6F",
"g c #6B6C6F",
"h c #6B6C70",
"j c #6E6E71",
"k c #6F7072",
"l c #707072",
"z c #737374",
"x c #747474",
/* pixels */
"                                                  ",
"                                                  ",
"                                                  ",
"                                                  ",
"                                                  ",
"                                                  ",
"                                                  ",
"                                                  ",
"                                                  ",
"                                                  ",
"                     >tflxji8*                    ",
"                   %pxa1$O*2ixksiO                ",
"                  -jl8       :hxx>                ",
"                 @fri         #fx6                ",
"                 w6j2          *lt                ",
"                 d*x<           wd                ",
"                #s&x8           %k                ",
"                &iXkgO           s&               ",
"                os wxs+          @O               ",
"                 s$Osxj<                          ",
"                 1t Orxxu*                        ",
"                  r0  :ixxy-                      ",
"                  Xwi&  =elxd8@                   ",
"                    <fw&  O7fxlu;                 ",
"                     .3du,   <dxxro               ",
"                        ,if4.  6lxpo              ",
"                          &ef4  -jxq              ",
"                            &us$ ,xl+             ",
"                              6f@ ix6             ",
"                e              6u 5xe             ",
"                f-              d*:xy             ",
"                st              86,xr             ",
"                ix-             5q6x6             ",
"                rhs             97dl+             ",
"                q4kq            p9xq              ",
"                84>l8          2sls.              ",
"                3lw2le+       3lliO               ",
"                 <tjjxjw:$O=6sxj6                 ",
"                    :9yfjlzlft2.                  ",
"                                                  ",
"                                                  ",
"                                                  ",
"                                                  ",
"                                                  ",
"                                                  ",
"                                                  ",
"                                                  ",
"                                                  ",
"                                                  ",
"                                                  "
};
