/* XPM */
static char *result[] = {
/* columns rows colors chars-per-pixel */
"64 64 16 1 ",
"  c #162A42",
". c #172A42",
"X c #162B42",
"o c #172B42",
"O c #162A43",
"+ c #172A43",
"@ c #162B43",
"# c #172B43",
"$ c #546C8E",
"% c #556C8E",
"& c #546D8E",
"* c #556D8E",
"= c #546C8F",
"- c #556C8F",
"; c #546D8F",
": c #556D8F",
/* pixels */
"&&&&&&&&;;&&&&;*&&*&&&$&&;&*&&$*&&&*&;&$&*$&&&&&&$;:&&&*&*%&&&&&",
"&&&&&;*&&$;;*&&&&&;$-&%&$&&&&&&&&$&**&&=&&&*&&$%&;&$$$&$&&:;&&$&",
"*&&*&&$&=&;&;&$%&&;*&&;&$&:&;&&$&$&&&;&&&**&$=&&&;$=;;&&&&&&:&&&",
"&$$&$&;*&*=&*&&=*=*&&;&&&&;&$;$&&&&&&&&&*&$&&*;&;=;=$&&$&**&&%&*",
"&;&;&&&&;&&*$:*&&;;&&:=$&&&&:;=&&;=&&&$&&&&&&&&&&&&;*$&:;;&&&&;&",
";&=&&&&&&&&&&-&&&*;&&&&&*&$:&&&%&&&&$$;&&&;&$&&&%*&$&&:;$&&&&&&&",
";$$$;*&&&&*&&&&&*&;&&$*&&;&&&&&;%&-&&&&&&;&&&&;&&&&&&;&$*&&$&;&*",
"&&&&&&;&&&&&&&&&$*&&:$&&&&;&&&&&*&=&&&*&$&&&*&*&&&&&&*&$&;*=&&$&",
"&&&&$&&&&&=$&&;&;&&*&*&&*&:&&$&;&&&&:&;&&;*&&**;;&*%*&;&;;-&=;&$",
"&;*$$;&$*&&;$$&&&;&*&$&&$&&*&&&$&&&$&&;&=&&*$&;&&&*$&&&&&&&&**;&",
";*&$*&-&&&$;&&-&&&&&&*&=&*&*&&&&*&&$&&&*;$**&;&$&*$$$&&&&&&:&&&;",
"&&&*&$&&&;&&&&;&&$=&&$&&:*&&&*&&$=&&&&%&&&$&*&&$&;-&&&&$;&&**$&&",
"&=$*$&&&;&&;$&$&$&&*&&&&;&&&*&&&$;&:;&&;&*$&&$&&&&*$&*;$&&*;;&;$",
"&*$&*&&&&&;;&&&&&&*&&&&&&*$&&&&&&&&$&&*&&&%&&&$;=&&$;;*;&$;&&&&:",
"&&&&&*&&&$&XXXXXX X&;&&*;$*&&&;&&&;$&;&&;&;...o+ ..&;&&&&;&;&$&;",
"=&&&**&$&&&XXoXoXoX$&;$%&&;$&&&;&*&&&:&&&=& .o ....-=$&$&&&&&*&&",
"&$&$&&*;&&&XXXXXXXX&&:;&&&%*&&;*;$&&&&$&&;&........&;&&&&&&&&$&$",
"*;*-;&&&-&$XXX@X XX;;&&&&*$:;&&$;&&&&&&&&&$..+o..+ &&%&&*&&&&&&&",
"&&&&;&&;$&&XXXX@X X&&&*$&$&*&&&&&&;&&&$&*&$....... &;&&*&&*&&;&;",
"&*&&&&*;$*&XXXXXoXX&&$=&*&;&**&&&&&&&&;&&&&+.......**&$&$&&$*&&&",
"*&&&&&*;;&$XXX  XXX$$*&&%&&&$$&;;&*&&*&&%&$....o..+&&;$$&:&*=*&&",
"&$*$*&&&&&*XXXXoXXX&;*&&&&&;&;*&&&&;$&$&&&&. +.....&&$&$;&&*$$&;",
"&*&&&&&&&&%+++++#@+&$&;;&%&&&&*$&&&&&-&&&&$+++++.+.&&&$&&&;&&&;&",
"*&&*$&*&&&&+.++#++#&$&&$%&$$&&*&;;&;:$&&&&&++++++++&&&%&&*&&:&:&",
"&$**%**;&&&++++++++&*&=&&;&$&&%*&;&$&&&*;$&+++.+.++&&*&&&*&&&&&;",
"&*&;&$$=$&*++++#+++&*%*;&&&;*&&&%;$&;&*&&&*++++++++&&$&&;&&&&&*&",
"*&;;$$;&$&$#+++++++*&*&$&&&&&&&&&&&&==*&;;;+++++++#*&&&&&*&&&&&&",
"$&&&&&*&&&&+O++++++&=&&&&&&&&&&**=&$&&*&$&&+++.++++:&=&*&&&=&*$=",
"&&*;&;&*&&&++++++++&&;&*&*&&*&$&*&$*&;;;&&&+O++O+#+&&&&&&$&&&&&*",
"&$&;*&*&&;&++++++#+&&&&&&&&&&&&&&;&;$&&&$&&+#++++.+*&&&&&&&&;$&;",
";&&$&=&&&&*oXXX@X@X%%&&&&&&#XX XXXX&&&&&;&&# XoXXoo&*$&&&*&$&&;*",
":&;&&&&&&&&XXX@XXXX:&;&=;=&X@XXXXoX&&&-&&$&ooooooXo&&&;;$&=&;&&;",
"&&&*;&&&&&;XX XXXX@;**$&&%&oXXXXXXX%&&;&&&-oooooooo&&&&;&&&;=&&*",
"$$&&;$&=&&&XXoXXXXX&%&&&;=;XXXXXXXX;&$&&=$&oooo#ooo&$&&&;&;&**-&",
"&&$$;$;=&*&XXX XXXX&$&;&&&&oXXX X@o&&$$&&&;oo#oooo#&&&%&&:&$&&&;",
"&&:*&;&&;&&XXXX oXX&%&&;&&&@XXXXXXX&*$&&&&&oooo.ooo&&&&&;$$&;;&&",
"&&&&&;&&&$$XoXXXXoX&%&&%&:;@XX#XXXX&$&%&&&&ooooooXo%&&$&;*;&&$&&",
"&&&*&$;&&&& XXXXoXX&$&;;&$&XXXXXXXX&&;*;&&;o#oooXoo&&&&&&:&&&&;&",
"&%$&&$&:&&&+o###+oo#+++++++;&;&&$&*        O@OOOOOO$&$&&;*&%;&&&",
"&&&&&*&&&&;o#######++++++++*$&&&;&&   X  .OOO+OOOOO&$$&$&&*&&&$;",
";**;&;&&&&&##.#####+#+++++O;&**;-$&     o  @OO OOOO&&%&&*&%&;&&$",
"&%$&&&&$&&&####@###++++++.+&&&;&&&*        OOOOOOO+;&&&&&&&*&&&&",
"$$;$;&&;*:&+####o##+O++++++$&&&&:&&    O . @+OO@O O&&;;&&&&&&&*&",
"&&&&&&&&&&;O###o##o+++++++O*&$&:&&&         O@OO@OO&&;$*&;&&*;&;",
"&&*&&&&&&$&########++++++++&&&&$&&$     . OOO OOOOO$&;**$$&&&&*&",
"$$&&$&&&&&&o######O++O+++#.&&&&&:$&        +OOOOOOO&*&&&&&&*&:&=",
"&;***&&$&&&.    X  ;&&&&*&&&;&&*$&&&&&&&&&&+++O++++&&&*&&$&&&&&&",
";$;&&&&&$&&    O   &&&&*&&;&&&&&;&&&&&&&&&&++++++.+*=$&&%$$&:&*&",
"&&%&;&&*&;$..X   X &&&&&;&&&&;$&&&*&&&&&&&&+#++.+++;&**&&;&&;*&$",
"&**&&&&**&&        &&&;&&&&&%*&&&&&&&&&&&&;#+++++++&&&&;&*;&$&;&",
"&&:$&&&&&;; .O   O *&&;&&&&&:&*&$$&&&&&&&&&++++++++&&**&&&&&&&&&",
";*$=;$&&*$; O O   O&&&*;&**&&**&&*&&&&&&&*&O+.+++++:&*&;&*$&&$&*",
"&&&&$$&**&& .   O  &&&&&&&**&$*&*&&;&&&&&&&+#+.++++&&&&&&&&&;$&&",
"*&&&&&$&=$&        &&$*;&;&&&;&$&&&&==&*&:&+++++++#$&&*&&&;&&*;&",
"$&&;;&&*&&&&;&&&&&&&&&&&=&;&*&&&:&*&&&&&&-$&;*&&&&&;&*&&*&&&&&&&",
"&&$;&&&&;&&&&&;&*&&&&&&*&*&&:;&$;*&&&&&$&&&*&&&&&&&*&&&%$&&$=*:=",
"&;&&%$:&&&&&&&;*&&&&&$%$&&=&&*&&&;&%$&&;&&&&$&&*&&&$&$*&$&&&***&",
"&&&&&&$&&&&&&&*$&;$&;&&&&*&&&&=&&=%;$&;&&*&&&&&$&&$&&&&$$%&&**&;",
"&&*&&&;;&&&&&$&&;&*&&;&&&&&&&&*;&$&**&&&&&*;%&&&$&&&&&*&&&&%$;&&",
"*&*&&&*:&&&&*&&&$$&&&%&&&=&&&&*$$&&&$&**&&&&&&;;*&&$&&&*&$$&&;&&",
"&$$&&&&;$&*&&&&&$%&=&;&*&*&=&&;&&&&;&&&%%&&&&&&&*;&;&&&:&&&$*&$&",
"&&&$&**$;&&&&&&$&$&&&&;&*$&$&*%$&&&$&&;**&&&&$;=&$&$&&&=&*&&&&;*",
"&&&&*&***;&&*&$&&&&&&&&$$;&&&&&;&&$&;&&&&&&;$&$$;&&&$*&;*&&&&*&;",
"&&&;-&;$&;&&$&$&&&%$&;&&&$&&&&&$&&&&$&&&;:;$&&&&;$&&&*&&;&*&;&&$"
};
