/* XPM */
static char *d42a49ad0b4747c493276caeff149131AM0gD88k0bbOuwnn[] = {
/* columns rows colors chars-per-pixel */
"50 50 49 1 ",
"  c #092652",
". c #0C2752",
"X c #0E2852",
"o c #122953",
"O c #172B53",
"+ c #182C54",
"@ c #1C2E54",
"# c #1F3055",
"$ c #203055",
"% c #243355",
"& c #273456",
"* c #2B3857",
"= c #2F3A58",
"- c #313B58",
"; c #323C59",
": c #343E5A",
"> c #37405B",
", c #38415B",
"< c #3B435C",
"1 c #3F465D",
"2 c #40475D",
"3 c #41485D",
"4 c #444A5E",
"5 c #464C5F",
"6 c #474D60",
"7 c #494F61",
"8 c #4A5061",
"9 c #4E5262",
"0 c #4F5463",
"q c #505463",
"w c #535764",
"e c #565A66",
"r c #585B67",
"t c #5A5D67",
"y c #5A5D68",
"u c #5C5F68",
"i c #5F616A",
"p c #61636B",
"a c #62646B",
"s c #63646C",
"d c #65676D",
"f c #67686E",
"g c #6B6B6F",
"h c #6B6C6F",
"j c #6C6D70",
"k c #6F7072",
"l c #707072",
"z c #737374",
"x c gray46",
/* pixels */
"                                                  ",
"                                                  ",
"                                                  ",
"                                                  ",
"                                                  ",
"                                                  ",
"                                                  ",
"                                                  ",
"                                                  ",
"                                                  ",
"                                                  ",
" yxxxxxxxxxxxlh          *j         $lxxxxxxxxxx@ ",
"  :a6    <ld:            wx<         X<ii@  7zy%  ",
"    u1   ll@             gxu            3d 4l4    ",
"    +d@ Oxk             :all+            t6k7     ",
"     6w  jx%            r4tx6            3li      ",
"      fO rx7            gO:xd            5l&      ",
"      97 :xf           1j  gx&           ee       ",
"      +d  gx=          yi1 9xw           f%       ",
"       u- 9xe         oi=u $xh          =i        ",
"       >t +lj         37 d@ px,         e>        ",
"        d+ ix1        u+ 87 2xy        oa         ",
"        97 ,xi       +y  +d XjlO       38         ",
"        @a  jl@      51   u; ex5       i+         ",
"         y; wx7      yX   ,r =xd      &y          ",
"         :t %xg     $e     do fz&     w:          ",
"          d+ sx=    8-     w4 8xw     i           ",
"          87 3xe    r      %p +lg    18           ",
"          Oa ojjX  &9       p% ux:   tO           ",
"           y; rx2  0%       3w ,xt  @e            ",
"           -t =xi  e        .d  hlo 8;            ",
"            sO fl#-6         e1 wx4 e             ",
"            77 8x9qO         =u &zs;5             ",
"            Op +lfw           a@ sxtO             ",
"             r= ux,           79 4xr              ",
"             =t ,j            +d oj=              ",
"              pO;e             u;Xi               ",
"              66e=             ,r35               ",
"              opi               duo               ",
"               e9               qe                ",
"                                                  ",
"                                                  ",
"                                                  ",
"                                                  ",
"                                                  ",
"                                                  ",
"                                                  ",
"                                                  ",
"                                                  ",
"                                                  "
};
